<svg width="312" height="112" viewBox="0 0 312 112" fill="none" xmlns="http://www.w3.org/2000/svg">
<rect width="312" height="112" fill="#1F356B"/>
<path d="M173.066 63.9227L170.343 63.2041C169.419 66.0462 168.131 68.757 166.512 71.2689L176.437 73.8928C176.066 70.3598 174.911 66.9539 173.057 63.9227H173.066Z" fill="#E7515A"/>
<path d="M176.447 74.0673C176.432 74.069 176.418 74.069 176.403 74.0673L166.478 71.4434C166.451 71.4364 166.426 71.4231 166.406 71.4047C166.385 71.3862 166.369 71.3631 166.359 71.3373C166.35 71.3118 166.346 71.2843 166.349 71.2571C166.351 71.2299 166.36 71.2037 166.375 71.1807C167.987 68.6812 169.268 65.9839 170.187 63.1559C170.2 63.1134 170.23 63.0778 170.269 63.0564C170.308 63.035 170.354 63.0295 170.397 63.041L173.121 63.7614C173.163 63.7725 173.2 63.7992 173.224 63.8362C175.092 66.8901 176.255 70.3216 176.63 73.8811C176.632 73.9091 176.628 73.9374 176.617 73.9634C176.607 73.9895 176.59 74.0126 176.569 74.0308C176.534 74.0579 176.49 74.0709 176.447 74.0673ZM166.788 71.1668L176.248 73.6654C176.063 72.0316 175.703 70.4223 175.176 68.8648C174.623 67.1895 173.878 65.5839 172.955 64.0798L170.458 63.4204C169.559 66.1437 168.326 68.7456 166.788 71.1668Z" fill="white"/>
<path d="M136.045 63.9227L138.766 63.2041C139.691 66.0459 140.978 68.7566 142.597 71.2689L132.672 73.8928C133.041 70.3593 134.196 66.9529 136.052 63.9227H136.045Z" fill="#E7515A"/>
<path d="M132.663 74.0672C132.622 74.0672 132.582 74.0524 132.55 74.0255C132.529 74.0073 132.512 73.9842 132.501 73.9581C132.491 73.9321 132.486 73.9038 132.489 73.8758C132.863 70.3163 134.027 66.8848 135.895 63.8309C135.919 63.7939 135.955 63.7672 135.998 63.7561L138.721 63.0357C138.764 63.0247 138.81 63.0305 138.848 63.0518C138.887 63.0731 138.916 63.1085 138.93 63.1506C139.85 65.9786 141.131 68.6759 142.744 71.1754C142.758 71.1984 142.767 71.2246 142.77 71.2518C142.773 71.279 142.769 71.3065 142.759 71.332C142.749 71.3578 142.733 71.3809 142.713 71.3993C142.692 71.4178 142.668 71.4311 142.641 71.4381L132.715 74.062C132.698 74.0662 132.681 74.068 132.663 74.0672ZM136.146 64.0745C135.224 65.5789 134.478 67.1845 133.924 68.8595C133.398 70.4172 133.039 72.0265 132.853 73.6601L142.32 71.1667C140.783 68.7455 139.55 66.1436 138.651 63.4203L136.146 64.0745Z" fill="white"/>
<path d="M151.625 70.8359H145.492V96.2344H151.625V70.8359Z" fill="#CEDAEB"/>
<path d="M171.196 81.0654C172.256 80.4726 172.634 79.1334 172.041 78.0744C171.448 77.0153 170.108 76.6374 169.048 77.2303C167.988 77.8231 167.61 79.1622 168.203 80.2213C168.796 81.2803 170.137 81.6583 171.196 81.0654Z" fill="#1A548E"/>
<path d="M171.481 93.7877C174.066 93.7877 176.162 91.6937 176.162 89.1107C176.162 86.5276 174.066 84.4336 171.481 84.4336C168.896 84.4336 166.801 86.5276 166.801 89.1107C166.801 91.6937 168.896 93.7877 171.481 93.7877Z" fill="#1F356B"/>
<path d="M184.347 91.8017C184.559 90.5052 183.678 89.2828 182.381 89.0714C181.084 88.86 179.86 89.7397 179.649 91.0362C179.437 92.3327 180.317 93.5551 181.615 93.7665C182.912 93.9779 184.136 93.0982 184.347 91.8017Z" fill="#1F356B"/>
<path d="M176.78 93.7899C179.854 93.7899 182.345 91.3002 182.345 88.2289C182.345 85.1577 179.854 82.668 176.78 82.668C173.706 82.668 171.215 85.1577 171.215 88.2289C171.215 91.3002 173.706 93.7899 176.78 93.7899Z" fill="#1F356B"/>
<path d="M162.483 92.3071C162.452 92.3073 162.421 92.2992 162.394 92.2836C162.367 92.268 162.345 92.2455 162.33 92.2183C161.959 91.5656 161.809 90.8103 161.902 90.0653C161.996 89.3202 162.328 88.6255 162.849 88.0846C163.37 87.5438 164.053 87.186 164.794 87.0645C165.536 86.9431 166.297 87.0645 166.964 87.4108C167.378 86.3183 168.173 85.4116 169.202 84.8569C170.231 84.3021 171.426 84.1364 172.567 84.3902C173.348 83.5295 174.372 82.9254 175.503 82.6572C176.634 82.3891 177.82 82.4696 178.905 82.888C179.989 83.3065 180.922 84.0434 181.579 85.0016C182.237 85.9599 182.588 87.0946 182.588 88.2564C182.588 88.4844 182.574 88.7122 182.546 88.9385C183.129 89.0529 183.654 89.3657 184.031 89.8235C184.409 90.2814 184.616 90.856 184.617 91.4493C184.616 91.6246 184.598 91.7995 184.563 91.9713H312.826C312.872 91.9713 312.917 91.9896 312.949 92.0222C312.982 92.0549 313 92.0991 313 92.1453C313 92.1914 312.982 92.2357 312.949 92.2683C312.917 92.3009 312.872 92.3193 312.826 92.3193H184.338C184.311 92.3193 184.284 92.313 184.26 92.3009C184.236 92.2888 184.215 92.2713 184.199 92.2496C184.183 92.2277 184.172 92.2022 184.167 92.1753C184.163 92.1484 184.165 92.1208 184.173 92.0948C184.266 91.7866 184.292 91.4617 184.247 91.1427C184.202 90.8238 184.087 90.5185 183.912 90.2483C183.736 89.9782 183.504 89.7496 183.231 89.5786C182.957 89.4077 182.65 89.2984 182.33 89.2586C182.307 89.2558 182.285 89.2485 182.265 89.2371C182.245 89.2256 182.227 89.2103 182.213 89.192C182.199 89.1737 182.189 89.1528 182.183 89.1305C182.177 89.1082 182.176 89.0849 182.179 89.062C182.353 87.9063 182.147 86.7255 181.593 85.6965C181.038 84.6675 180.165 83.8458 179.104 83.3546C178.043 82.8634 176.851 82.7291 175.707 82.972C174.563 83.2148 173.528 83.8217 172.758 84.7016C172.737 84.7258 172.71 84.7436 172.679 84.7532C172.648 84.7627 172.616 84.7635 172.584 84.7555C171.479 84.4839 170.312 84.6393 169.317 85.1907C168.321 85.742 167.571 86.6487 167.216 87.7292C167.208 87.7538 167.194 87.7763 167.176 87.795C167.158 87.8136 167.136 87.828 167.112 87.8371C167.087 87.8461 167.061 87.8495 167.035 87.8471C167.009 87.8447 166.984 87.8365 166.962 87.8231C166.367 87.4667 165.672 87.3171 164.983 87.3978C164.295 87.4786 163.653 87.785 163.157 88.2692C162.662 88.7535 162.341 89.3882 162.245 90.0741C162.149 90.76 162.283 91.4584 162.626 92.06C162.637 92.08 162.644 92.102 162.647 92.1247C162.649 92.1474 162.647 92.1704 162.641 92.1924C162.635 92.2143 162.624 92.2349 162.61 92.2528C162.596 92.2706 162.578 92.2856 162.558 92.2966C162.534 92.3059 162.509 92.3095 162.483 92.3071Z" fill="white"/>
<path d="M157.758 70.8359H151.625V96.2344H157.758V70.8359Z" fill="#DBE5F3"/>
<path d="M163.891 70.8359H157.758V96.2344H163.891V70.8359Z" fill="#ECF1F9"/>
<path d="M190.297 26.6095C191.163 25.7585 191.174 24.3671 190.323 23.5018C189.471 22.6364 188.079 22.6247 187.213 23.4757C186.347 24.3267 186.335 25.7181 187.187 26.5835C188.038 27.4489 189.431 27.4605 190.297 26.6095Z" fill="#1A548E"/>
<path d="M122.749 92.0366C123.728 91.3193 123.941 89.9441 123.223 88.965C122.505 87.986 121.129 87.7739 120.149 88.4912C119.169 89.2085 118.957 90.5837 119.675 91.5627C120.393 92.5418 121.769 92.7539 122.749 92.0366Z" fill="#1A548E"/>
<path d="M136.713 79.7051C136.679 79.9199 136.709 80.14 136.8 80.3376C136.891 80.5352 137.039 80.7014 137.224 80.8151C137.41 80.9289 137.625 80.985 137.843 80.9766C138.06 80.9681 138.27 80.8954 138.446 80.7676C138.622 80.6398 138.757 80.4626 138.832 80.2585C138.907 80.0545 138.921 79.8327 138.87 79.6211C138.819 79.4096 138.707 79.2179 138.547 79.0703C138.387 78.9226 138.187 78.8256 137.972 78.7916C137.684 78.7465 137.389 78.8173 137.154 78.9885C136.918 79.1597 136.759 79.4174 136.713 79.7051Z" fill="#1A548E"/>
<path d="M184.271 82.7378C184.237 82.9523 184.268 83.1719 184.359 83.3691C184.45 83.5662 184.598 83.7319 184.783 83.8452C184.968 83.9585 185.183 84.0144 185.4 84.0058C185.617 83.9972 185.827 83.9244 186.003 83.7967C186.178 83.669 186.312 83.4921 186.388 83.2884C186.463 83.0847 186.476 82.8633 186.425 82.6522C186.374 82.4411 186.262 82.2498 186.102 82.1024C185.943 81.955 185.743 81.8583 185.528 81.8243C185.386 81.8015 185.24 81.8071 185.1 81.8407C184.959 81.8743 184.827 81.9353 184.71 82.0202C184.593 82.105 184.494 82.2121 184.419 82.3353C184.344 82.4584 184.293 82.5952 184.271 82.7378Z" fill="#1A548E"/>
<path d="M122.745 40.1938C123.724 39.4765 123.937 38.1013 123.219 37.1223C122.501 36.1432 121.125 35.9311 120.145 36.6484C119.165 37.3658 118.953 38.7409 119.671 39.72C120.389 40.699 121.765 40.9111 122.745 40.1938Z" fill="#1A548E"/>
<path d="M185.353 37.682C184.841 37.682 184.341 37.5303 183.916 37.2462C183.49 36.9621 183.158 36.5583 182.963 36.0858C182.767 35.6134 182.716 35.0935 182.815 34.5919C182.915 34.0904 183.162 33.6297 183.524 33.2681C183.885 32.9064 184.346 32.6602 184.848 32.5604C185.35 32.4607 185.871 32.5119 186.343 32.7076C186.816 32.9033 187.22 33.2347 187.505 33.6599C187.789 34.0851 187.941 34.585 187.941 35.0964C187.94 35.7818 187.667 36.4389 187.182 36.9236C186.697 37.4083 186.039 37.681 185.353 37.682ZM185.353 32.8587C184.91 32.8587 184.477 32.99 184.109 33.2358C183.741 33.4817 183.454 33.8312 183.284 34.2401C183.115 34.6489 183.071 35.0988 183.157 35.5329C183.243 35.9669 183.457 36.3657 183.77 36.6786C184.083 36.9915 184.482 37.2046 184.916 37.291C185.351 37.3773 185.801 37.333 186.21 37.1636C186.619 36.9943 186.969 36.7075 187.215 36.3395C187.461 35.9715 187.592 35.5389 187.592 35.0964C187.592 34.5032 187.355 33.9346 186.936 33.5151C186.516 33.0957 185.947 32.8597 185.353 32.8587Z" fill="white"/>
<path d="M127.994 66.1536C127.482 66.1536 126.982 66.002 126.556 65.7179C126.131 65.4338 125.799 65.03 125.603 64.5575C125.407 64.085 125.356 63.5652 125.456 63.0636C125.556 62.562 125.802 62.1013 126.164 61.7397C126.526 61.3781 126.987 61.1319 127.489 61.0321C127.991 60.9323 128.511 60.9835 128.984 61.1792C129.457 61.3749 129.861 61.7063 130.145 62.1315C130.43 62.5567 130.581 63.0567 130.581 63.568C130.58 64.2535 130.308 64.9106 129.822 65.3953C129.337 65.88 128.68 66.1527 127.994 66.1536ZM127.994 61.3304C127.551 61.3304 127.118 61.4617 126.75 61.7075C126.381 61.9534 126.094 62.3029 125.925 62.7117C125.755 63.1206 125.711 63.5705 125.798 64.0046C125.884 64.4386 126.097 64.8373 126.41 65.1503C126.724 65.4632 127.123 65.6763 127.557 65.7626C127.991 65.849 128.442 65.8047 128.851 65.6353C129.26 65.466 129.61 65.1792 129.856 64.8112C130.102 64.4432 130.233 64.0106 130.233 63.568C130.232 62.9749 129.996 62.4062 129.576 61.9868C129.156 61.5674 128.587 61.3313 127.994 61.3304Z" fill="white"/>
<path d="M176.508 19.4561H176.16V24.1714H176.508V19.4561Z" fill="white"/>
<path d="M178.695 21.6396H173.977V21.9876H178.695V21.6396Z" fill="white"/>
<path d="M127.356 45.373H127.008V50.0884H127.356V45.373Z" fill="white"/>
<path d="M129.543 47.5566H124.824V47.9046H129.543V47.5566Z" fill="white"/>
<path d="M187.164 10.9247C186.874 10.9247 186.591 10.8388 186.35 10.678C186.109 10.5171 185.921 10.2884 185.811 10.021C185.7 9.75347 185.671 9.45915 185.727 9.17525C185.784 8.89135 185.924 8.63061 186.129 8.42603C186.334 8.22145 186.595 8.08222 186.879 8.02595C187.163 7.96969 187.458 7.99891 187.725 8.10994C187.993 8.22096 188.221 8.40878 188.382 8.64966C188.543 8.89053 188.628 9.17362 188.628 9.46311C188.628 9.85091 188.473 10.2227 188.199 10.4967C187.924 10.7708 187.552 10.9247 187.164 10.9247ZM187.164 8.34778C186.943 8.34778 186.727 8.4132 186.544 8.53575C186.36 8.6583 186.217 8.83249 186.132 9.03629C186.048 9.24009 186.026 9.46435 186.069 9.6807C186.112 9.89705 186.218 10.0958 186.374 10.2518C186.53 10.4077 186.729 10.514 186.946 10.557C187.162 10.6 187.387 10.578 187.591 10.4935C187.795 10.4091 187.969 10.2662 188.092 10.0828C188.214 9.89934 188.28 9.6837 188.28 9.46311C188.278 9.16835 188.16 8.88627 187.951 8.67833C187.741 8.47039 187.459 8.35345 187.164 8.353V8.34778Z" fill="white"/>
<path d="M119.474 61.162C119.184 61.1623 118.901 61.0768 118.66 60.9162C118.419 60.7556 118.231 60.5272 118.12 60.2599C118.009 59.9925 117.979 59.6982 118.036 59.4143C118.092 59.1303 118.231 58.8694 118.436 58.6646C118.641 58.4597 118.902 58.3202 119.186 58.2636C119.47 58.207 119.765 58.2359 120.032 58.3466C120.3 58.4573 120.529 58.6448 120.69 58.8855C120.851 59.1262 120.937 59.4092 120.937 59.6987C120.936 60.0863 120.782 60.458 120.508 60.7323C120.234 61.0066 119.862 61.1611 119.474 61.162ZM119.474 58.5851C119.253 58.5847 119.037 58.6499 118.853 58.7723C118.669 58.8947 118.526 59.0689 118.441 59.2728C118.357 59.4767 118.334 59.7011 118.377 59.9176C118.42 60.1341 118.527 60.333 118.683 60.4891C118.839 60.6452 119.038 60.7514 119.255 60.7944C119.472 60.8374 119.696 60.8151 119.9 60.7305C120.104 60.6459 120.278 60.5027 120.401 60.319C120.524 60.1353 120.589 59.9194 120.588 59.6987C120.588 59.4035 120.47 59.1205 120.261 58.9118C120.053 58.703 119.769 58.5855 119.474 58.5851Z" fill="white"/>
<path d="M180.894 76.0057C180.604 76.0057 180.321 75.9199 180.081 75.7591C179.84 75.5983 179.652 75.3698 179.541 75.1024C179.43 74.835 179.401 74.5408 179.458 74.2569C179.514 73.9731 179.654 73.7123 179.859 73.5077C180.063 73.3031 180.324 73.1637 180.608 73.1072C180.892 73.0508 181.187 73.0797 181.455 73.1905C181.722 73.3012 181.951 73.4888 182.112 73.7294C182.273 73.9701 182.359 74.253 182.359 74.5424C182.358 74.9304 182.204 75.3023 181.929 75.5766C181.655 75.851 181.282 76.0053 180.894 76.0057ZM180.894 73.4271C180.673 73.4271 180.458 73.4925 180.274 73.6151C180.09 73.7376 179.947 73.9118 179.863 74.1156C179.778 74.3194 179.756 74.5437 179.799 74.76C179.842 74.9764 179.949 75.1751 180.105 75.3311C180.261 75.4871 180.46 75.5933 180.676 75.6363C180.893 75.6794 181.117 75.6573 181.321 75.5729C181.525 75.4884 181.7 75.3455 181.822 75.1621C181.945 74.9786 182.01 74.763 182.01 74.5424C182.009 74.2471 181.891 73.9641 181.682 73.7554C181.473 73.5467 181.19 73.4293 180.894 73.4288V73.4271Z" fill="white"/>
<path d="M137.148 52.4534C137.136 59.951 139.558 67.2502 144.051 73.2549C150.935 70.9294 158.374 70.8042 165.333 72.8965C168.2 68.9507 170.204 64.447 171.218 59.6773C172.231 54.9077 172.229 49.9785 171.214 45.2093C170.198 40.4402 168.191 35.9375 165.322 31.9932C162.454 28.049 158.787 24.7511 154.561 22.3135C149.266 25.3668 144.868 29.76 141.811 35.0509C138.755 40.3419 137.146 46.3441 137.148 52.4534Z" fill="#F2B004"/>
<path d="M154.559 22.3115C176.412 47.3934 159.196 71.5739 159.159 71.6296C160.368 71.7635 162.727 72.1516 163.817 72.4735C167.921 66.6027 170.12 59.6142 170.119 52.4532C170.119 40.0437 164.343 28.4711 154.559 22.3115Z" fill="#EFD398"/>
<path d="M144.049 73.4286C144.022 73.4286 143.995 73.4223 143.971 73.4102C143.947 73.3981 143.926 73.3806 143.91 73.359C139.795 67.8396 137.4 61.2303 137.025 54.3579C136.649 47.4855 138.31 40.6551 141.799 34.721C144.874 29.5154 149.238 25.1893 154.473 22.16C154.499 22.1448 154.529 22.1367 154.56 22.1367C154.59 22.1367 154.62 22.1448 154.647 22.16C159.969 25.2285 164.389 29.644 167.461 34.962C170.533 40.2799 172.149 46.3127 172.147 52.4531C172.164 59.8355 169.826 67.0312 165.472 72.9953C165.451 73.0246 165.421 73.0466 165.387 73.0581C165.352 73.0697 165.315 73.0702 165.281 73.0597C158.356 70.979 150.955 71.1043 144.105 73.4181C144.087 73.4251 144.068 73.4287 144.049 73.4286ZM154.56 22.5132C149.324 25.5697 144.978 29.9407 141.955 35.1928C138.931 40.4449 137.333 46.3956 137.321 52.4549C137.299 59.8724 139.681 67.0977 144.112 73.0493C150.959 70.7676 158.343 70.6462 165.261 72.7013C169.526 66.8154 171.814 59.7302 171.797 52.4636C171.786 46.4027 170.19 40.4499 167.166 35.1959C164.142 29.9418 159.797 25.5691 154.56 22.5115V22.5132Z" fill="white"/>
<path d="M145.114 71.8831C144.967 71.8832 144.823 71.8461 144.694 71.7752C144.565 71.7043 144.456 71.6019 144.378 71.4777C139.928 64.4328 138.088 56.0528 139.177 47.7933C140.267 39.5337 144.217 31.9164 150.342 26.2643C150.426 26.1867 150.524 26.1265 150.632 26.0869C150.739 26.0474 150.853 26.0294 150.967 26.0339C151.082 26.0384 151.194 26.0654 151.298 26.1133C151.402 26.1612 151.495 26.229 151.573 26.313C151.65 26.397 151.711 26.4954 151.75 26.6027C151.79 26.71 151.808 26.824 151.803 26.9382C151.799 27.0524 151.772 27.1647 151.724 27.2685C151.676 27.3723 151.608 27.4656 151.524 27.5432C145.702 32.9217 141.947 40.1665 140.911 48.0214C139.874 55.8763 141.622 63.846 145.849 70.5486C145.932 70.6801 145.979 70.8314 145.983 70.9869C145.988 71.1424 145.951 71.2963 145.876 71.4325C145.801 71.5688 145.691 71.6825 145.557 71.7617C145.423 71.841 145.27 71.8829 145.114 71.8831Z" fill="#F2B004"/>
<path d="M153.877 45.3327C156.198 45.3327 158.079 43.4529 158.079 41.1341C158.079 38.8153 156.198 36.9355 153.877 36.9355C151.557 36.9355 149.676 38.8153 149.676 41.1341C149.676 43.4529 151.557 45.3327 153.877 45.3327Z" fill="#EFD398"/>
<path d="M154.561 45.5069C153.563 45.5069 152.586 45.211 151.756 44.6565C150.926 44.1021 150.278 43.314 149.896 42.392C149.514 41.47 149.414 40.4554 149.609 39.4766C149.804 38.4978 150.285 37.5987 150.991 36.893C151.697 36.1873 152.597 35.7067 153.576 35.512C154.556 35.3173 155.571 35.4172 156.494 35.7991C157.417 36.1811 158.205 36.8278 158.76 37.6576C159.315 38.4874 159.611 39.463 159.611 40.461C159.607 41.7981 159.074 43.0794 158.128 44.025C157.182 44.9705 155.9 45.5033 154.561 45.5069ZM154.561 35.7474C153.632 35.7474 152.723 36.0227 151.95 36.5385C151.177 37.0544 150.575 37.7876 150.219 38.6455C149.863 39.5034 149.769 40.4476 149.95 41.3587C150.13 42.2697 150.577 43.1068 151.234 43.7642C151.891 44.4216 152.727 44.8697 153.639 45.0519C154.55 45.2342 155.495 45.1424 156.355 44.7882C157.214 44.4339 157.949 43.8331 158.466 43.0617C158.984 42.2903 159.261 41.3828 159.263 40.454C159.262 39.2075 158.767 38.0122 157.885 37.13C157.004 36.2478 155.809 35.7506 154.561 35.7474Z" fill="white"/>
<path d="M147.382 96.3111C149.573 94.1211 149.573 90.5703 147.382 88.3803C145.19 86.1902 141.637 86.1902 139.445 88.3803C137.253 90.5703 137.253 94.1211 139.445 96.3111C141.637 98.5012 145.19 98.5012 147.382 96.3111Z" fill="#1F356B"/>
<path d="M150.758 97.955C152.946 97.955 154.72 96.1827 154.72 93.9965C154.72 91.8103 152.946 90.0381 150.758 90.0381C148.57 90.0381 146.797 91.8103 146.797 93.9965C146.797 96.1827 148.57 97.955 150.758 97.955Z" fill="#1F356B"/>
<path d="M130.819 97.9556C132.395 97.9556 133.673 96.6788 133.673 95.1038C133.673 93.5288 132.395 92.252 130.819 92.252C129.243 92.252 127.965 93.5288 127.965 95.1038C127.965 96.6788 129.243 97.9556 130.819 97.9556Z" fill="#1F356B"/>
<path d="M138.123 97.8633C141.762 97.2802 144.239 93.8601 143.655 90.2241C143.072 86.5881 139.649 84.1132 136.01 84.6963C132.372 85.2793 129.895 88.6995 130.478 92.3355C131.062 95.9714 134.485 98.4463 138.123 97.8633Z" fill="#1F356B"/>
<path d="M161.755 96.1053H154.278C154.247 96.1054 154.217 96.0975 154.191 96.0823C154.164 96.067 154.142 96.0451 154.127 96.0186C154.111 95.9921 154.103 95.9621 154.103 95.9315C154.103 95.9009 154.111 95.8708 154.127 95.8443C154.531 95.119 154.686 94.2809 154.566 93.4592C154.447 92.6374 154.061 91.8777 153.467 91.297C152.873 90.7164 152.104 90.347 151.279 90.2459C150.455 90.1448 149.62 90.3175 148.903 90.7375C148.88 90.7507 148.855 90.7588 148.829 90.7611C148.803 90.7634 148.777 90.7598 148.753 90.7506C148.728 90.7414 148.706 90.7268 148.688 90.708C148.67 90.6892 148.657 90.6665 148.648 90.6418C148.221 89.3434 147.318 88.2542 146.121 87.5916C144.925 86.9291 143.522 86.7421 142.194 87.0679C142.162 87.0756 142.129 87.0745 142.099 87.0647C142.068 87.0549 142.04 87.0367 142.019 87.0122C141.149 86.0174 139.996 85.3117 138.714 84.9892C137.431 84.6668 136.081 84.743 134.843 85.2077C133.606 85.6724 132.539 86.5034 131.787 87.5897C131.034 88.6761 130.631 89.966 130.631 91.2873C130.632 91.6094 130.656 91.9311 130.705 92.2495C130.708 92.2725 130.706 92.2959 130.7 92.3183C130.694 92.3407 130.684 92.3617 130.67 92.38C130.656 92.3985 130.638 92.4141 130.618 92.4257C130.598 92.4374 130.576 92.4449 130.553 92.4479C130.166 92.4956 129.795 92.6272 129.464 92.8335C129.134 93.0398 128.852 93.3157 128.64 93.6421C128.427 93.9684 128.288 94.3373 128.233 94.7228C128.178 95.1083 128.208 95.5012 128.321 95.8739C128.329 95.9005 128.33 95.9287 128.325 95.956C128.32 95.9834 128.309 96.0091 128.292 96.0311C128.275 96.0531 128.253 96.0707 128.227 96.0824C128.202 96.0941 128.174 96.0996 128.147 96.0984H-0.74384C-0.790022 96.0984 -0.83431 96.08 -0.866965 96.0474C-0.899621 96.0148 -0.917969 95.9705 -0.917969 95.9244C-0.917969 95.8782 -0.899621 95.834 -0.866965 95.8013C-0.83431 95.7687 -0.790022 95.7504 -0.74384 95.7504H127.929C127.88 95.5357 127.856 95.3162 127.856 95.0961C127.857 94.3898 128.105 93.7059 128.557 93.163C129.009 92.62 129.637 92.2519 130.332 92.1225C130.152 90.6786 130.438 89.215 131.148 87.9445C131.858 86.674 132.954 85.6628 134.279 85.0578C135.603 84.4528 137.086 84.2855 138.512 84.5804C139.938 84.8752 141.232 85.6168 142.208 86.6972C143.575 86.3912 145.007 86.5913 146.239 87.2604C147.47 87.9294 148.416 89.0221 148.903 90.3355C149.67 89.9348 150.544 89.7849 151.401 89.9069C152.258 90.0289 153.056 90.4167 153.681 91.0156C154.306 91.6145 154.727 92.3942 154.884 93.245C155.042 94.0957 154.929 94.9744 154.56 95.7573H161.752C161.798 95.7573 161.842 95.7757 161.875 95.8083C161.907 95.8409 161.926 95.8852 161.926 95.9313C161.926 95.9775 161.907 96.0217 161.875 96.0544C161.842 96.087 161.798 96.1053 161.752 96.1053H161.755Z" fill="white"/>
<path d="M165 95.5C167.209 95.5 169 93.7091 169 91.5C169 89.2909 167.209 87.5 165 87.5C162.791 87.5 161 89.2909 161 91.5C161 93.7091 162.791 95.5 165 95.5Z" fill="#1F356B"/>
<g clip-path="url(#clip0_8804_11261)">
<path d="M148.596 103.798C146.397 101.528 146.397 97.8474 148.596 95.5775C150.796 93.3076 154.361 93.3076 156.561 95.5775C158.76 97.8474 158.76 101.528 156.561 103.798C154.361 106.067 150.796 106.067 148.596 103.798Z" fill="#1F356B"/>
<path d="M145.208 105.5C143.013 105.5 141.233 103.663 141.233 101.397C141.233 99.1308 143.013 97.2939 145.208 97.2939C147.404 97.2939 149.184 99.1308 149.184 101.397C149.184 103.663 147.404 105.5 145.208 105.5Z" fill="#1F356B"/>
<path d="M165.218 105.5C163.636 105.5 162.354 104.176 162.354 102.544C162.354 100.911 163.636 99.5879 165.218 99.5879C166.8 99.5879 168.082 100.911 168.082 102.544C168.082 104.176 166.8 105.5 165.218 105.5Z" fill="#1F356B"/>
<path d="M157.885 105.406C154.234 104.802 151.749 101.257 152.334 97.4887C152.92 93.7202 156.354 91.155 160.006 91.7593C163.657 92.3636 166.143 95.9085 165.557 99.6771C164.972 103.446 161.537 106.011 157.885 105.406Z" fill="#1F356B"/>
<path d="M134.175 103.584H141.678C141.709 103.585 141.739 103.576 141.765 103.561C141.792 103.545 141.814 103.522 141.83 103.495C141.845 103.467 141.853 103.436 141.853 103.404C141.853 103.373 141.845 103.341 141.83 103.314C141.424 102.562 141.269 101.693 141.389 100.842C141.508 99.9901 141.896 99.2027 142.492 98.6008C143.088 97.999 143.859 97.6162 144.687 97.5114C145.515 97.4066 146.353 97.5856 147.072 98.0209C147.094 98.0346 147.12 98.043 147.146 98.0453C147.172 98.0477 147.198 98.044 147.223 98.0344C147.247 98.0249 147.269 98.0098 147.287 97.9903C147.305 97.9708 147.319 97.9474 147.327 97.9217C147.757 96.576 148.662 95.447 149.863 94.7603C151.064 94.0736 152.471 93.8798 153.804 94.2174C153.836 94.2255 153.869 94.2244 153.9 94.2142C153.931 94.204 153.958 94.1851 153.979 94.1597C154.852 93.1287 156.01 92.3972 157.297 92.063C158.583 91.7288 159.938 91.8078 161.18 92.2894C162.422 92.7711 163.493 93.6324 164.248 94.7583C165.003 95.8843 165.407 97.2213 165.407 98.5908C165.407 98.9246 165.382 99.258 165.333 99.588C165.33 99.6119 165.332 99.6361 165.338 99.6593C165.344 99.6825 165.354 99.7043 165.368 99.7233C165.382 99.7425 165.4 99.7586 165.42 99.7707C165.44 99.7827 165.462 99.7905 165.485 99.7936C165.874 99.8431 166.247 99.9795 166.578 100.193C166.91 100.407 167.192 100.693 167.406 101.031C167.619 101.37 167.758 101.752 167.814 102.151C167.869 102.551 167.839 102.958 167.726 103.345C167.717 103.372 167.716 103.401 167.721 103.43C167.726 103.458 167.738 103.485 167.755 103.508C167.772 103.53 167.794 103.549 167.819 103.561C167.845 103.573 167.872 103.578 167.9 103.577H177.825C177.872 103.577 177.916 103.558 177.949 103.524C177.982 103.491 178 103.445 178 103.397C178 103.349 177.982 103.303 177.949 103.269C177.916 103.236 177.872 103.217 177.825 103.217H168.119C168.167 102.994 168.192 102.767 168.192 102.538C168.191 101.806 167.942 101.098 167.488 100.535C167.035 99.972 166.405 99.5905 165.707 99.4564C165.888 97.9598 165.601 96.4429 164.889 95.126C164.177 93.8092 163.076 92.7611 161.747 92.134C160.418 91.507 158.93 91.3337 157.499 91.6393C156.068 91.9449 154.769 92.7134 153.79 93.8333C152.418 93.5161 150.981 93.7235 149.745 94.417C148.51 95.1104 147.56 96.2429 147.072 97.6043C146.302 97.1889 145.425 97.0336 144.565 97.16C143.705 97.2865 142.904 97.6884 142.277 98.3091C141.65 98.9298 141.228 99.738 141.069 100.62C140.911 101.502 141.025 102.412 141.395 103.224H134.178C134.132 103.224 134.087 103.243 134.055 103.277C134.022 103.31 134.003 103.356 134.003 103.404C134.003 103.452 134.022 103.498 134.055 103.532C134.087 103.565 134.132 103.584 134.178 103.584H134.175Z" fill="white"/>
</g>
<defs>
<clipPath id="clip0_8804_11261">
<rect width="44" height="14" fill="white" transform="matrix(-1 0 0 1 178 91.5)"/>
</clipPath>
</defs>
</svg>
