<svg width="18" height="18" viewBox="0 0 18 18" fill="none" xmlns="http://www.w3.org/2000/svg">
<path d="M6.75 16.5H11.25C15 16.5 16.5 15 16.5 11.25V6.75C16.5 3 15 1.5 11.25 1.5H6.75C3 1.5 1.5 3 1.5 6.75V11.25C1.5 15 3 16.5 6.75 16.5Z" stroke="#888EA8" stroke-linecap="round" stroke-linejoin="round"/>
<path d="M9.92969 8.13156L13.8213 5.29292C14.0236 5.14535 13.848 4.83662 13.6126 4.92616L6.4152 7.66485C6.26935 7.72034 6.22993 7.90372 6.34062 8.01174L7.9573 9.58933C8.06021 9.68975 8.04797 9.85587 7.9314 9.9409L4.18945 12.6704C3.96663 12.8329 4.16011 13.173 4.41929 13.0743L11.4349 10.4047C11.5955 10.3436 11.6389 10.1416 11.517 10.0227L9.90618 8.45078C9.81273 8.3596 9.82384 8.20876 9.92969 8.13156Z" fill="#888EA8"/>
</svg>
