<svg width="22" height="22" viewBox="0 0 22 22" fill="none" xmlns="http://www.w3.org/2000/svg">
<path d="M16.6282 19.8184C15.8216 20.0568 14.8682 20.1668 13.7499 20.1668H8.24991C7.13158 20.1668 6.17825 20.0568 5.37158 19.8184C5.57325 17.4351 8.02075 15.5559 10.9999 15.5559C13.9791 15.5559 16.4266 17.4351 16.6282 19.8184Z" stroke="#1A548E" stroke-width="1.5" stroke-linecap="round" stroke-linejoin="round"/>
<path d="M13.7499 1.83325H8.24992C3.66659 1.83325 1.83325 3.66659 1.83325 8.24992V13.7499C1.83325 17.2149 2.87825 19.1124 5.37159 19.8182C5.57325 17.4349 8.02075 15.5557 10.9999 15.5557C13.9791 15.5557 16.4266 17.4349 16.6283 19.8182C19.1216 19.1124 20.1666 17.2149 20.1666 13.7499V8.24992C20.1666 3.66659 18.3333 1.83325 13.7499 1.83325ZM10.9999 12.9891C9.18492 12.9891 7.71825 11.5133 7.71825 9.69827C7.71825 7.88327 9.18492 6.41659 10.9999 6.41659C12.8149 6.41659 14.2816 7.88327 14.2816 9.69827C14.2816 11.5133 12.8149 12.9891 10.9999 12.9891Z" stroke="#1A548E" stroke-width="1.5" stroke-linecap="round" stroke-linejoin="round"/>
<path d="M14.2816 9.69843C14.2816 11.5134 12.8149 12.9892 10.9999 12.9892C9.18493 12.9892 7.71826 11.5134 7.71826 9.69843C7.71826 7.88343 9.18493 6.41675 10.9999 6.41675C12.8149 6.41675 14.2816 7.88343 14.2816 9.69843Z" stroke="#1A548E" stroke-width="1.5" stroke-linecap="round" stroke-linejoin="round"/>
</svg>
