<svg width="22" height="22" viewBox="0 0 22 22" fill="none" xmlns="http://www.w3.org/2000/svg">
<path d="M3.95818 18.8242C5.16637 20.1666 7.11091 20.1666 11 20.1666C14.8891 20.1666 16.8336 20.1666 18.0418 18.8242C19.25 17.4817 19.25 15.3211 19.25 10.9999C19.25 6.67871 19.25 4.51811 18.0418 3.17568C16.8336 1.83325 14.8891 1.83325 11 1.83325C7.11091 1.83325 5.16637 1.83325 3.95818 3.17568C2.75 4.51811 2.75 6.67871 2.75 10.9999C2.75 15.3211 2.75 17.4817 3.95818 18.8242Z" stroke="#1A548E" stroke-width="1.5"/>
<path d="M6.41675 7.33333C6.41675 6.9071 6.41675 6.69398 6.4636 6.51912C6.59074 6.04462 6.96137 5.67399 7.43587 5.54685C7.61073 5.5 7.82384 5.5 8.25008 5.5H13.7501C14.1763 5.5 14.3894 5.5 14.5643 5.54685C15.0388 5.67399 15.4094 6.04462 15.5366 6.51912C15.5834 6.69398 15.5834 6.9071 15.5834 7.33333C15.5834 7.75957 15.5834 7.97269 15.5366 8.14754C15.4094 8.62204 15.0388 8.99267 14.5643 9.11982C14.3894 9.16667 14.1763 9.16667 13.7501 9.16667H8.25008C7.82384 9.16667 7.61073 9.16667 7.43587 9.11982C6.96137 8.99267 6.59074 8.62204 6.4636 8.14754C6.41675 7.97269 6.41675 7.75957 6.41675 7.33333Z" stroke="#1A548E" stroke-width="1.5"/>
<mask id="path-3-inside-1_248_187665" fill="white">
<ellipse cx="7.33342" cy="11.9167" rx="0.916667" ry="0.916667"/>
</mask>
<ellipse cx="7.33342" cy="11.9167" rx="0.916667" ry="0.916667" fill="#1A548E"/>
<path d="M8.25008 11.9167H7.25008C7.25008 11.8706 7.28739 11.8333 7.33341 11.8333V12.8333V13.8333C8.39196 13.8333 9.25008 12.9752 9.25008 11.9167H8.25008ZM7.33341 12.8333V11.8333C7.37944 11.8333 7.41675 11.8706 7.41675 11.9167H6.41675H5.41675C5.41675 12.9752 6.27487 13.8333 7.33341 13.8333V12.8333ZM6.41675 11.9167H7.41675C7.41675 11.9627 7.37944 12 7.33341 12V11V10C6.27487 10 5.41675 10.8581 5.41675 11.9167H6.41675ZM7.33341 11V12C7.28739 12 7.25008 11.9627 7.25008 11.9167H8.25008H9.25008C9.25008 10.8581 8.39196 10 7.33341 10V11Z" fill="#1A548E" mask="url(#path-3-inside-1_248_187665)"/>
<mask id="path-5-inside-2_248_187665" fill="white">
<ellipse cx="7.33342" cy="15.5834" rx="0.916667" ry="0.916667"/>
</mask>
<ellipse cx="7.33342" cy="15.5834" rx="0.916667" ry="0.916667" fill="#1A548E"/>
<path d="M8.25008 15.5834H7.25008C7.25008 15.5374 7.28739 15.5001 7.33341 15.5001V16.5001V17.5001C8.39196 17.5001 9.25008 16.642 9.25008 15.5834H8.25008ZM7.33341 16.5001V15.5001C7.37944 15.5001 7.41675 15.5374 7.41675 15.5834H6.41675H5.41675C5.41675 16.642 6.27487 17.5001 7.33341 17.5001V16.5001ZM6.41675 15.5834H7.41675C7.41675 15.6294 7.37944 15.6667 7.33341 15.6667V14.6667V13.6667C6.27487 13.6667 5.41675 14.5249 5.41675 15.5834H6.41675ZM7.33341 14.6667V15.6667C7.28739 15.6667 7.25008 15.6294 7.25008 15.5834H8.25008H9.25008C9.25008 14.5249 8.39196 13.6667 7.33341 13.6667V14.6667Z" fill="#1A548E" mask="url(#path-5-inside-2_248_187665)"/>
<ellipse cx="10.9999" cy="11.9167" rx="0.916667" ry="0.916667" fill="#1A548E"/>
<ellipse cx="10.9999" cy="15.5834" rx="0.916667" ry="0.916667" fill="#1A548E"/>
<circle cx="14.6667" cy="11.9167" r="0.916667" fill="#1A548E"/>
<circle cx="14.6667" cy="15.5834" r="0.916667" fill="#1A548E"/>
</svg>
