<svg width="18" height="18" viewBox="0 0 18 18" fill="none" xmlns="http://www.w3.org/2000/svg">
<path d="M6.75 16.5H11.25C15 16.5 16.5 15 16.5 11.25V6.75C16.5 3 15 1.5 11.25 1.5H6.75C3 1.5 1.5 3 1.5 6.75V11.25C1.5 15 3 16.5 6.75 16.5Z" stroke="#888EA8" stroke-linecap="round" stroke-linejoin="round"/>
<path d="M7.74705 8.44504C7.70614 8.44095 7.65705 8.44095 7.61205 8.44504C6.63842 8.41232 5.86523 7.61459 5.86523 6.63277C5.86523 5.6305 6.67523 4.81641 7.6816 4.81641C8.68387 4.81641 9.49796 5.6305 9.49796 6.63277C9.49387 7.61459 8.72069 8.41232 7.74705 8.44504Z" stroke="#888EA8" stroke-linecap="round" stroke-linejoin="round"/>
<path d="M10.7133 5.63281C11.507 5.63281 12.1452 6.27509 12.1452 7.06463C12.1452 7.83781 11.5315 8.46781 10.7665 8.49645C10.7338 8.49236 10.697 8.49236 10.6602 8.49645" stroke="#888EA8" stroke-linecap="round" stroke-linejoin="round"/>
<path d="M5.70148 9.95601C4.71148 10.6187 4.71148 11.6987 5.70148 12.3574C6.82648 13.1101 8.67148 13.1101 9.79649 12.3574C10.7865 11.6946 10.7865 10.6146 9.79649 9.95601C8.67558 9.20737 6.83058 9.20737 5.70148 9.95601Z" stroke="#888EA8" stroke-linecap="round" stroke-linejoin="round"/>
<path d="M11.502 12.1811C11.7965 12.1197 12.0747 12.0011 12.3038 11.8252C12.942 11.3466 12.942 10.557 12.3038 10.0784C12.0788 9.90656 11.8047 9.79202 11.5142 9.72656" stroke="#888EA8" stroke-linecap="round" stroke-linejoin="round"/>
</svg>
