<svg width="16" height="16" viewBox="0 0 16 16" fill="none" xmlns="http://www.w3.org/2000/svg">
<path d="M11.17 1.33301H4.83001C4.05743 1.33301 3.67114 1.33301 3.35959 1.44141C2.76881 1.64698 2.30499 2.12447 2.1053 2.73265C2 3.05337 2 3.45104 2 4.24638V13.5825C2 14.1546 2.65666 14.4582 3.07206 14.0781C3.31612 13.8548 3.68388 13.8548 3.92794 14.0781L4.25 14.3728C4.67772 14.7642 5.32228 14.7642 5.75 14.3728C6.17772 13.9814 6.82228 13.9814 7.25 14.3728C7.67772 14.7642 8.32228 14.7642 8.75 14.3728C9.17772 13.9814 9.82228 13.9814 10.25 14.3728C10.6777 14.7642 11.3223 14.7642 11.75 14.3728L12.0721 14.0781C12.3161 13.8548 12.6839 13.8548 12.9279 14.0781C13.3433 14.4582 14 14.1546 14 13.5825V4.24638C14 3.45104 14 3.05337 13.8947 2.73265C13.695 2.12447 13.2312 1.64698 12.6404 1.44141C12.3289 1.33301 11.9426 1.33301 11.17 1.33301Z" stroke="#E77C08"/>
<path d="M7 7.33301L11.3333 7.33301" stroke="#E77C08" stroke-linecap="round"/>
<path d="M4.66406 7.33301H4.9974" stroke="#E77C08" stroke-linecap="round"/>
<path d="M4.66406 5H4.9974" stroke="#E77C08" stroke-linecap="round"/>
<path d="M4.66406 9.66699H4.9974" stroke="#E77C08" stroke-linecap="round"/>
<path d="M7 5H11.3333" stroke="#E77C08" stroke-linecap="round"/>
<path d="M7 9.66699H11.3333" stroke="#E77C08" stroke-linecap="round"/>
</svg>
