<svg width="22" height="22" viewBox="0 0 22 22" fill="none" xmlns="http://www.w3.org/2000/svg">
<path d="M7.1499 12.65V8.80005" stroke="#1A548E" stroke-width="1.5" stroke-linecap="round" stroke-linejoin="round"/>
<path d="M7.28751 16.5C8.27472 16.5 9.07502 15.6997 9.07502 14.7125C9.07502 13.7253 8.27472 12.925 7.28751 12.925C6.3003 12.925 5.5 13.7253 5.5 14.7125C5.5 15.6997 6.3003 16.5 7.28751 16.5Z" stroke="#1A548E" stroke-width="1.5" stroke-linecap="round" stroke-linejoin="round"/>
<path d="M7.14999 8.80001C8.06126 8.80001 8.79998 8.06126 8.79998 7.14999C8.79998 6.23872 8.06126 5.5 7.14999 5.5C6.23872 5.5 5.5 6.23872 5.5 7.14999C5.5 8.06126 6.23872 8.80001 7.14999 8.80001Z" stroke="#1A548E" stroke-width="1.5" stroke-linecap="round" stroke-linejoin="round"/>
<path d="M14.8499 8.80001C15.7612 8.80001 16.4999 8.06126 16.4999 7.14999C16.4999 6.23872 15.7612 5.5 14.8499 5.5C13.9387 5.5 13.2 6.23872 13.2 7.14999C13.2 8.06126 13.9387 8.80001 14.8499 8.80001Z" stroke="#1A548E" stroke-width="1.5" stroke-linecap="round" stroke-linejoin="round"/>
<path d="M7.22339 12.6501C7.47089 11.6876 8.35088 10.9726 9.38671 10.9818L11.275 10.9909C12.7142 11.0001 13.9426 10.0742 14.3917 8.78174" stroke="#1A548E" stroke-width="1.5" stroke-linecap="round" stroke-linejoin="round"/>
<path d="M8.24992 1.83325H13.7499C18.3333 1.83325 20.1666 3.66659 20.1666 8.24992V13.7499C20.1666 18.3333 18.3333 20.1666 13.7499 20.1666H8.24992C3.66659 20.1666 1.83325 18.3333 1.83325 13.7499V8.24992C1.83325 3.66659 3.66659 1.83325 8.24992 1.83325Z" stroke="#1A548E" stroke-width="1.5" stroke-linecap="round" stroke-linejoin="round"/>
</svg>
