<svg width="213" height="167" viewBox="0 0 213 167" fill="none" xmlns="http://www.w3.org/2000/svg">
<path d="M57 49.9997L61 163V165C96.1667 164.833 167 164.6 169 165C171 165.4 172.5 163.833 173 163L178 52.5C177.333 51.6666 175.4 49.5997 173 47.9997C170.6 46.3997 97.3333 47.333 61 47.9997L57 49.9997Z" fill="white"/>
<path d="M170.517 23.168C178.172 23.0102 185.366 26.2714 190.438 31.2334C195.624 36.3064 198.547 43.1068 197.539 49.7783L197.497 50.0566L197.713 50.2373C200.185 52.2984 201.416 55.4047 202.219 58.6104C205.139 70.2809 202.948 82.7355 196.974 92.5723L196.822 92.8213L196.965 93.0762C198.151 95.1989 198.491 97.8662 197.896 100.772L197.764 101.356C195.738 109.59 186.776 115.948 177.345 115.948C177.049 115.948 176.758 115.93 176.437 115.916L175.936 115.895L175.915 116.396L174.133 159.718V159.72C174.027 162.509 171.676 164.785 168.904 164.785H163.267L163.155 164.845C162.796 165.038 162.682 165.127 162.433 165.212C162.194 165.294 161.832 165.365 161.082 165.418C159.579 165.523 156.68 165.544 150.473 165.531C138.079 165.506 112.575 165.347 58.9092 165.479C56.2386 165.479 53.9581 163.351 53.7227 160.677L53.707 160.416L49.8809 54.2295L49.8799 54.2266C49.8129 52.6149 50.3873 51.0585 51.4395 49.958C52.413 48.9378 53.7071 48.3799 55.0811 48.3799H60.7432L60.8564 48.3174C61.2223 48.1158 61.3039 48.0361 61.5459 47.9512C61.7737 47.8713 62.1363 47.7988 62.9229 47.7461C64.4952 47.6407 67.5843 47.6202 74.2627 47.6328C87.6001 47.658 115.175 47.816 173.32 47.6826C176.213 47.6826 178.482 50.1501 178.504 53.2354L178.499 53.5352L175.965 115.107L175.944 115.605L176.442 115.627C185.836 116.047 195.11 109.951 197.383 101.684L197.485 101.289C197.896 99.6304 198.313 96.6556 197.048 93.8682L196.684 93.0664L196.182 93.7891C195.269 95.1027 194.16 96.3469 192.722 97.2383L192.429 97.4121C190.367 98.586 187.968 98.6991 186.191 97.9609C185.308 97.5937 184.591 97.0217 184.132 96.2793C183.704 95.587 183.482 94.7191 183.585 93.6738L183.61 93.4629C183.867 91.594 185.153 89.9257 186.875 89.2217C189.925 87.9734 194.024 89.1538 196.219 91.9561L196.672 92.5352L197.044 91.9004C202.924 81.8583 204.712 69.7531 201.947 58.6816L201.946 58.6807C201.35 56.3052 200.369 53.2165 198.085 50.958L197.471 50.3506L197.25 51.1855C196.124 55.4504 193.011 57.1772 190.341 57.1465C188.994 57.131 187.774 56.671 186.952 55.8838C186.193 55.1567 185.744 54.1258 185.86 52.8184L185.892 52.5537C186.182 50.5382 187.577 48.9976 189.541 48.3311C191.506 47.664 194.056 47.8737 196.591 49.4326L197.273 49.8525L197.351 49.0547C198.025 42.0774 194.756 35.5158 189.566 30.7949C184.497 26.1837 177.553 23.2879 170.528 23.4531L170.517 23.168ZM63.2266 47.9697C60.5271 47.9697 58.1936 50.3106 58.3047 53.5244V53.5254L62.1338 159.706V159.708C62.2355 162.345 64.4331 164.498 67.0547 164.498H168.904C171.538 164.498 173.749 162.349 173.851 159.707L178.22 53.5234C178.342 50.5419 176.222 47.9707 173.323 47.9707L63.2266 47.9697ZM189.203 89.0254C187.926 89.0762 186.701 89.4549 185.738 90.2012C184.768 90.9535 184.09 92.0598 183.891 93.502C183.742 94.5799 183.961 95.5101 184.462 96.252C184.959 96.9875 185.708 97.5015 186.564 97.8037C188.041 98.3247 189.891 98.2396 191.549 97.5293V97.5859L192.296 97.1621C194.054 96.1636 195.322 94.6127 196.309 93.0977L196.492 92.8154L196.3 92.5391C194.612 90.1219 191.748 88.9242 189.203 89.0254ZM196.923 49.9883C194.706 48.4472 192.212 47.9867 190.166 48.4629C188.109 48.9417 186.49 50.3817 186.174 52.5957C186.018 53.683 186.268 54.6054 186.818 55.3135C187.361 56.0126 188.164 56.462 189.048 56.6807C190.805 57.1152 193.008 56.67 194.579 55.2734L194.58 55.2744C195.858 54.1399 196.701 52.5241 197.127 50.502L197.195 50.1777L196.923 49.9883Z" fill="#AACDE6" stroke="#D3EAFC"/>
<path d="M161.923 18.347C161.999 18.3116 162.068 18.2614 162.125 18.1993C162.181 18.1372 162.226 18.0644 162.254 17.9851C162.283 17.9058 162.296 17.8216 162.292 17.7373C162.289 17.653 162.268 17.5703 162.233 17.4939L154.326 0.372548C154.017 -0.290494 153.023 -0.00172615 153.11 0.714574L155.281 19.6633C150.945 17.7903 146.367 16.5387 141.684 15.945C141.068 15.8473 140.68 16.6823 141.216 17.0947L152.648 25.8618C146.482 28.3892 140.952 32.261 136.458 37.1975C136.042 37.6519 136.452 38.3863 137.057 38.2617C141.504 37.3842 146.078 37.3663 150.533 38.2089C150.698 38.2383 150.869 38.201 151.008 38.105C151.146 38.009 151.242 37.862 151.273 37.6959C151.305 37.5298 151.27 37.3579 151.176 37.2173C151.083 37.0768 150.938 36.9789 150.773 36.9449C146.799 36.1958 142.73 36.1037 138.727 36.6722C143.106 32.2675 148.369 28.8496 154.166 26.646C154.273 26.6056 154.367 26.5371 154.439 26.4477C154.511 26.3583 154.557 26.2513 154.574 26.1377C154.59 26.0241 154.576 25.9081 154.533 25.8018C154.49 25.6954 154.42 25.6026 154.329 25.5329L143.981 17.5979C148.054 18.3257 152.019 19.5673 155.782 21.2933C155.886 21.3399 156 21.3583 156.113 21.3468C156.226 21.3354 156.333 21.2943 156.426 21.2278C156.999 20.8076 156.611 21.0944 154.837 4.53256L161.073 18.0328C161.108 18.1096 161.158 18.1787 161.219 18.236C161.281 18.2934 161.354 18.338 161.433 18.3672C161.512 18.3963 161.596 18.4096 161.68 18.4061C161.764 18.4027 161.847 18.3826 161.923 18.347Z" fill="#FCE48B"/>
<path d="M148.662 10.4502C148.777 10.3255 148.839 10.16 148.833 9.98977C148.828 9.81958 148.755 9.65855 148.632 9.54186L143.75 4.93575C143.626 4.81912 143.461 4.75664 143.291 4.76204C143.122 4.76745 142.961 4.8403 142.845 4.96458C142.729 5.08885 142.667 5.25436 142.672 5.42471C142.678 5.59505 142.75 5.75627 142.874 5.8729L147.756 10.478C147.817 10.5361 147.889 10.5814 147.968 10.6114C148.047 10.6415 148.13 10.6556 148.215 10.653C148.299 10.6504 148.381 10.6312 148.458 10.5964C148.535 10.5616 148.604 10.5119 148.662 10.4502Z" fill="#FCE48B"/>
<path d="M137.228 26.545C138.055 26.545 138.089 25.2937 137.253 25.258L129.736 24.9492C129.441 24.9492 129.086 25.214 129.071 25.5658C129.067 25.6504 129.081 25.7349 129.11 25.8143C129.139 25.8938 129.183 25.9667 129.24 26.0289C129.297 26.0912 129.366 26.1414 129.443 26.1769C129.519 26.2124 129.602 26.2324 129.686 26.2357L137.203 26.545H137.228Z" fill="#FCE48B"/>
<path d="M62.4004 73.2423L169.465 72.8807C169.635 72.8804 169.798 72.8122 169.918 72.6912C170.038 72.5703 170.105 72.4064 170.104 72.2358C170.104 72.0651 170.036 71.9016 169.916 71.7812C169.795 71.6608 169.632 71.5934 169.462 71.5938H169.46L62.3951 71.9558C62.2283 71.9608 62.07 72.0309 61.9539 72.1513C61.8378 72.2717 61.7731 72.4329 61.7734 72.6005C61.7738 72.7681 61.8393 72.9289 61.9559 73.0488C62.0726 73.1687 62.2312 73.2381 62.398 73.2423H62.4004Z" fill="#E4F2FD"/>
<path d="M124.133 60.5722H164.439C164.609 60.5722 164.772 60.5044 164.892 60.3837C165.012 60.263 165.08 60.0993 165.08 59.9287C165.08 59.758 165.012 59.5943 164.892 59.4736C164.772 59.353 164.609 59.2852 164.439 59.2852H124.133C123.963 59.2852 123.8 59.353 123.68 59.4736C123.56 59.5943 123.492 59.758 123.492 59.9287C123.492 60.0993 123.56 60.263 123.68 60.3837C123.8 60.5044 123.963 60.5722 124.133 60.5722Z" fill="#E4F2FD"/>
<path d="M165.847 84.0803H139.322C139.237 84.078 139.152 84.0928 139.072 84.1241C138.992 84.1554 138.919 84.2024 138.858 84.2623C138.797 84.3223 138.748 84.394 138.715 84.4732C138.681 84.5524 138.664 84.6376 138.664 84.7236C138.664 84.8096 138.681 84.8947 138.715 84.9739C138.748 85.0531 138.797 85.1249 138.858 85.1848C138.919 85.2448 138.992 85.2918 139.072 85.3231C139.152 85.3543 139.237 85.3692 139.322 85.3668H165.847C165.932 85.3692 166.017 85.3543 166.097 85.3231C166.177 85.2918 166.25 85.2448 166.311 85.1848C166.372 85.1249 166.421 85.0531 166.455 84.9739C166.488 84.8947 166.505 84.8096 166.505 84.7236C166.505 84.6376 166.488 84.5524 166.455 84.4732C166.421 84.394 166.372 84.3223 166.311 84.2623C166.25 84.2024 166.177 84.1554 166.097 84.1241C166.017 84.0928 165.932 84.078 165.847 84.0803Z" fill="#E4F2FD"/>
<path d="M151.977 90.3928H144.252C144.167 90.3905 144.081 90.4053 144.002 90.4366C143.922 90.4679 143.849 90.5149 143.788 90.5748C143.726 90.6348 143.678 90.7065 143.644 90.7857C143.611 90.8649 143.594 90.9501 143.594 91.0361C143.594 91.1221 143.611 91.2072 143.644 91.2864C143.678 91.3656 143.726 91.4374 143.788 91.4973C143.849 91.5573 143.922 91.6043 144.002 91.6356C144.081 91.6668 144.167 91.6817 144.252 91.6793H151.977C152.062 91.6817 152.147 91.6668 152.227 91.6356C152.307 91.6043 152.38 91.5573 152.441 91.4973C152.502 91.4374 152.551 91.3656 152.585 91.2864C152.618 91.2072 152.635 91.1221 152.635 91.0361C152.635 90.9501 152.618 90.8649 152.585 90.7857C152.551 90.7065 152.502 90.6348 152.441 90.5748C152.38 90.5149 152.307 90.4679 152.227 90.4366C152.147 90.4053 152.062 90.3905 151.977 90.3928Z" fill="#E4F2FD"/>
<path d="M70.0277 67.4875C70.6942 67.4879 71.3539 67.3537 71.9678 67.093C72.5816 66.8323 73.137 66.4504 73.601 65.9699C74.6397 64.9066 75.1953 63.4618 75.1651 61.9037V61.8983C75.0775 58.8064 72.6577 56.292 69.7699 56.292C66.9482 56.292 64.543 58.7277 64.6354 61.9335C64.7205 64.9961 67.137 67.4875 70.0277 67.4875Z" fill="#AACDE6"/>
<path d="M83.5707 67.5139C84.2367 67.5128 84.8958 67.3783 85.5093 67.1182C86.1229 66.8582 86.6786 66.4777 87.144 65.9992C87.404 65.7347 87.6364 65.4443 87.8377 65.1324C88.4526 64.1727 88.774 63.0531 88.7621 61.912V61.9056C88.7017 58.8108 86.3048 56.2939 83.4194 56.2939C82.7475 56.2944 82.0825 56.4305 81.464 56.6942C80.8456 56.958 80.2862 57.3439 79.8193 57.8292C78.7782 58.8924 78.2002 60.3865 78.2275 61.9305C78.2883 65.0083 80.6828 67.5139 83.5707 67.5139Z" fill="#AACDE6"/>
<path d="M90.3071 95.6699H67.9536C67.218 95.6699 66.6172 96.2944 66.6172 97.0825L66.7977 102.789C66.7977 103.556 67.4082 104.181 68.1599 104.181H90.383C91.1463 104.181 91.7452 103.571 91.7452 102.789V102.782L91.6678 97.062C91.6659 96.2807 91.0675 95.6699 90.3071 95.6699ZM68.0786 102.769L67.9536 96.955L90.3845 97.0683L90.4613 102.788C90.4613 102.806 90.4565 102.894 90.382 102.894L68.0786 102.769Z" fill="#E4F2FD"/>
<path d="M67.8479 92.1821H83.495C84.2306 92.1821 84.831 91.5577 84.831 90.7896V90.7808L84.7784 87.0126C84.7337 86.225 84.1382 85.6318 83.3948 85.6318H67.6951C67.5139 85.6325 67.3348 85.6704 67.1687 85.7432C67.0026 85.8159 66.8531 85.922 66.7294 86.055C66.6026 86.1895 66.5046 86.3487 66.4414 86.5227C66.3781 86.6968 66.351 86.8819 66.3616 87.0669V87.0766L66.4643 90.8287C66.5115 91.5753 67.1298 92.1821 67.8479 92.1821ZM83.3948 86.9183C83.4649 86.9183 83.495 87.019 83.4975 87.0581V90.8951H67.8479C67.8209 90.8865 67.7969 90.8704 67.7787 90.8486C67.7605 90.8268 67.7489 90.8002 67.7452 90.772L67.6966 86.9183H83.3948Z" fill="#E4F2FD"/>
<path d="M118.899 84.6865C120.662 84.6925 122.305 85.6511 123.139 87.1855L123.142 87.1895L143.248 123.501C145.515 127.591 142.556 132.626 137.921 132.626H99.1533C94.076 132.626 90.8371 127.116 93.3213 122.646L93.3223 122.646L112.58 87.8213L112.581 87.8203C113.593 85.9791 115.063 85.2206 116.329 84.9043C116.968 84.7448 117.557 84.6978 118.01 84.6875C118.236 84.6824 118.426 84.6862 118.577 84.6895C118.65 84.691 118.722 84.6926 118.78 84.6924C118.801 84.6923 118.846 84.6909 118.899 84.6865ZM118.925 118.852C116.572 118.852 114.809 121.026 114.809 123.521C114.809 126.014 116.571 128.187 118.922 128.188V128.189H118.925V128.188C121.276 128.187 123.043 126.014 123.043 123.521C123.043 121.027 121.277 118.852 118.925 118.852ZM120.312 97.6895L117.493 97.708C117.072 97.7111 116.657 97.8024 116.273 97.9766C115.89 98.1507 115.548 98.4038 115.269 98.7188C114.989 99.0337 114.779 99.4043 114.65 99.8057C114.522 100.207 114.479 100.631 114.523 101.05L116.028 115.047C116.109 115.789 116.461 116.477 117.017 116.975C117.573 117.472 118.294 117.745 119.04 117.74C119.786 117.735 120.503 117.452 121.052 116.947C121.601 116.442 121.943 115.75 122.014 115.007V115.006L123.327 100.989C123.366 100.57 123.317 100.146 123.184 99.7461C123.05 99.3468 122.834 98.9798 122.551 98.6689C122.267 98.3579 121.921 98.1092 121.535 97.9404C121.15 97.7717 120.733 97.6867 120.312 97.6895Z" fill="#FCE48B" stroke="#FCE48B" stroke-width="1.2"/>
<mask id="path-15-inside-1_10091_246512" fill="white">
<path d="M48.961 139.988L47.3303 135.488C47.2398 135.238 47.0544 135.035 46.8148 134.923C46.5753 134.811 46.3011 134.799 46.0528 134.89L41.3892 135.691C41.2362 135.745 41.0738 135.767 40.912 135.755C40.2877 134.8 39.5637 133.914 38.7524 133.113C38.6621 132.949 38.6113 132.766 38.6042 132.578C38.597 132.391 38.6336 132.204 38.7111 132.033L39.9127 127.436C40.0243 127.195 40.0361 126.92 39.9457 126.671C39.8553 126.422 39.67 126.219 39.4306 126.106L35.1086 124.083C34.99 124.027 34.8617 123.995 34.7309 123.99C34.6002 123.984 34.4696 124.004 34.3467 124.049C34.2237 124.094 34.1108 124.163 34.0143 124.252C33.9178 124.34 33.8396 124.447 33.7843 124.566L31.0512 128.445C30.9806 128.592 30.8813 128.722 30.7593 128.828C29.6449 128.596 28.5089 128.484 27.3708 128.495C27.1913 128.443 27.0263 128.35 26.8891 128.222C26.7518 128.095 26.646 127.937 26.5803 127.762L24.1935 123.658C24.1029 123.409 23.9177 123.206 23.6785 123.094C23.4393 122.982 23.1656 122.97 22.9175 123.06L20.1615 124.068L18.4363 124.698C18.3133 124.743 18.2003 124.812 18.1038 124.901C18.0073 124.99 17.9292 125.097 17.8739 125.216C17.8186 125.335 17.7872 125.464 17.7815 125.595C17.7759 125.727 17.796 125.858 17.8409 125.981L18.6387 130.665C18.6925 130.819 18.7143 130.982 18.7029 131.144C17.7516 131.771 16.8696 132.498 16.072 133.312C15.9085 133.403 15.7261 133.454 15.5394 133.462C15.3527 133.469 15.1669 133.433 14.9968 133.355L10.4194 132.148C10.3008 132.092 10.1725 132.061 10.0418 132.055C9.91101 132.049 9.78041 132.069 9.65743 132.114C9.53444 132.159 9.42148 132.228 9.325 132.317C9.22851 132.406 9.1504 132.513 9.09513 132.632L7.07861 136.971C6.96699 137.212 6.95502 137.487 7.04533 137.736C7.13564 137.986 7.32085 138.189 7.56024 138.301L11.4225 141.046C11.5683 141.117 11.6982 141.217 11.8044 141.339C11.5726 142.458 11.4612 143.599 11.4722 144.742C11.4205 144.923 11.3276 145.088 11.2009 145.226C11.0742 145.364 10.9172 145.47 10.7424 145.536L6.65584 147.934C6.40756 148.024 6.20529 148.21 6.09354 148.451C5.98178 148.691 5.96967 148.966 6.05988 149.216L7.6911 153.716C7.73586 153.84 7.80439 153.953 7.89279 154.05C7.98118 154.147 8.08772 154.225 8.2063 154.281C8.32489 154.336 8.4532 154.368 8.58392 154.374C8.71464 154.379 8.84521 154.359 8.96816 154.314L13.6322 153.513C13.7854 153.459 13.948 153.437 14.1099 153.448C14.7338 154.404 15.4578 155.289 16.2695 156.09C16.3598 156.254 16.4106 156.438 16.4178 156.625C16.4251 156.813 16.3886 156.999 16.3113 157.17L15.1092 161.767C14.9976 162.008 14.9857 162.283 15.0761 162.532C15.1665 162.782 15.3518 162.985 15.5913 163.097L19.9133 165.121C20.1528 165.232 20.4265 165.244 20.6743 165.153C20.9222 165.062 21.1241 164.876 21.2356 164.636L23.9688 160.757C24.0392 160.611 24.1385 160.481 24.2607 160.374C25.375 160.606 26.511 160.718 27.6491 160.707C27.8286 160.759 27.9935 160.853 28.1307 160.98C28.268 161.107 28.3738 161.265 28.4397 161.44L30.8264 165.544C30.8712 165.668 30.9397 165.781 31.0281 165.878C31.1165 165.975 31.223 166.054 31.3416 166.109C31.4602 166.165 31.5885 166.196 31.7192 166.202C31.85 166.208 31.9805 166.187 32.1035 166.143L34.8595 165.135L36.5846 164.504C36.8326 164.414 37.0347 164.228 37.1465 163.988C37.2584 163.748 37.2708 163.473 37.181 163.224L36.3832 158.54C36.3292 158.386 36.3073 158.223 36.319 158.06C37.2702 157.434 38.1521 156.707 38.9494 155.892C39.1132 155.801 39.2957 155.75 39.4825 155.743C39.6694 155.736 39.8553 155.772 40.0256 155.85L44.6025 157.057C44.8421 157.169 45.1161 157.181 45.3644 157.09C45.6128 156.999 45.815 156.813 45.9268 156.573L47.9443 152.23C47.9996 152.111 48.031 151.982 48.0368 151.851C48.0425 151.719 48.0224 151.588 47.9777 151.465C47.933 151.341 47.8645 151.228 47.7761 151.131C47.6877 151.034 47.5812 150.955 47.4626 150.9L43.6003 148.155C43.4546 148.084 43.3246 147.984 43.2184 147.862C43.4502 146.743 43.5616 145.602 43.5507 144.459C43.6023 144.278 43.6951 144.113 43.8218 143.975C43.9485 143.837 44.1056 143.731 44.2805 143.665L48.367 141.267C48.6152 141.177 48.8174 140.991 48.929 140.75C49.0407 140.51 49.0527 140.235 48.9625 139.985L48.961 139.988ZM33.722 147.512C33.1492 148.746 32.225 149.781 31.0665 150.487C29.908 151.192 28.5671 151.537 27.2133 151.478C25.8596 151.419 24.5538 150.957 23.461 150.153C22.3682 149.348 21.5376 148.236 21.0741 146.957C20.6107 145.678 20.5351 144.29 20.8571 142.968C21.1791 141.646 21.8841 140.45 22.8831 139.53C23.882 138.61 25.13 138.009 26.4692 137.802C27.8085 137.594 29.1788 137.791 30.4071 138.366C31.2245 138.745 31.9591 139.283 32.5686 139.949C33.1781 140.615 33.6506 141.395 33.9587 142.245C34.2668 143.095 34.4045 143.998 34.3639 144.901C34.3232 145.805 34.1051 146.691 33.722 147.51V147.512Z"/>
</mask>
<path d="M48.961 139.988L47.3303 135.488C47.2398 135.238 47.0544 135.035 46.8148 134.923C46.5753 134.811 46.3011 134.799 46.0528 134.89L41.3892 135.691C41.2362 135.745 41.0738 135.767 40.912 135.755C40.2877 134.8 39.5637 133.914 38.7524 133.113C38.6621 132.949 38.6113 132.766 38.6042 132.578C38.597 132.391 38.6336 132.204 38.7111 132.033L39.9127 127.436C40.0243 127.195 40.0361 126.92 39.9457 126.671C39.8553 126.422 39.67 126.219 39.4306 126.106L35.1086 124.083C34.99 124.027 34.8617 123.995 34.7309 123.99C34.6002 123.984 34.4696 124.004 34.3467 124.049C34.2237 124.094 34.1108 124.163 34.0143 124.252C33.9178 124.34 33.8396 124.447 33.7843 124.566L31.0512 128.445C30.9806 128.592 30.8813 128.722 30.7593 128.828C29.6449 128.596 28.5089 128.484 27.3708 128.495C27.1913 128.443 27.0263 128.35 26.8891 128.222C26.7518 128.095 26.646 127.937 26.5803 127.762L24.1935 123.658C24.1029 123.409 23.9177 123.206 23.6785 123.094C23.4393 122.982 23.1656 122.97 22.9175 123.06L20.1615 124.068L18.4363 124.698C18.3133 124.743 18.2003 124.812 18.1038 124.901C18.0073 124.99 17.9292 125.097 17.8739 125.216C17.8186 125.335 17.7872 125.464 17.7815 125.595C17.7759 125.727 17.796 125.858 17.8409 125.981L18.6387 130.665C18.6925 130.819 18.7143 130.982 18.7029 131.144C17.7516 131.771 16.8696 132.498 16.072 133.312C15.9085 133.403 15.7261 133.454 15.5394 133.462C15.3527 133.469 15.1669 133.433 14.9968 133.355L10.4194 132.148C10.3008 132.092 10.1725 132.061 10.0418 132.055C9.91101 132.049 9.78041 132.069 9.65743 132.114C9.53444 132.159 9.42148 132.228 9.325 132.317C9.22851 132.406 9.1504 132.513 9.09513 132.632L7.07861 136.971C6.96699 137.212 6.95502 137.487 7.04533 137.736C7.13564 137.986 7.32085 138.189 7.56024 138.301L11.4225 141.046C11.5683 141.117 11.6982 141.217 11.8044 141.339C11.5726 142.458 11.4612 143.599 11.4722 144.742C11.4205 144.923 11.3276 145.088 11.2009 145.226C11.0742 145.364 10.9172 145.47 10.7424 145.536L6.65584 147.934C6.40756 148.024 6.20529 148.21 6.09354 148.451C5.98178 148.691 5.96967 148.966 6.05988 149.216L7.6911 153.716C7.73586 153.84 7.80439 153.953 7.89279 154.05C7.98118 154.147 8.08772 154.225 8.2063 154.281C8.32489 154.336 8.4532 154.368 8.58392 154.374C8.71464 154.379 8.84521 154.359 8.96816 154.314L13.6322 153.513C13.7854 153.459 13.948 153.437 14.1099 153.448C14.7338 154.404 15.4578 155.289 16.2695 156.09C16.3598 156.254 16.4106 156.438 16.4178 156.625C16.4251 156.813 16.3886 156.999 16.3113 157.17L15.1092 161.767C14.9976 162.008 14.9857 162.283 15.0761 162.532C15.1665 162.782 15.3518 162.985 15.5913 163.097L19.9133 165.121C20.1528 165.232 20.4265 165.244 20.6743 165.153C20.9222 165.062 21.1241 164.876 21.2356 164.636L23.9688 160.757C24.0392 160.611 24.1385 160.481 24.2607 160.374C25.375 160.606 26.511 160.718 27.6491 160.707C27.8286 160.759 27.9935 160.853 28.1307 160.98C28.268 161.107 28.3738 161.265 28.4397 161.44L30.8264 165.544C30.8712 165.668 30.9397 165.781 31.0281 165.878C31.1165 165.975 31.223 166.054 31.3416 166.109C31.4602 166.165 31.5885 166.196 31.7192 166.202C31.85 166.208 31.9805 166.187 32.1035 166.143L34.8595 165.135L36.5846 164.504C36.8326 164.414 37.0347 164.228 37.1465 163.988C37.2584 163.748 37.2708 163.473 37.181 163.224L36.3832 158.54C36.3292 158.386 36.3073 158.223 36.319 158.06C37.2702 157.434 38.1521 156.707 38.9494 155.892C39.1132 155.801 39.2957 155.75 39.4825 155.743C39.6694 155.736 39.8553 155.772 40.0256 155.85L44.6025 157.057C44.8421 157.169 45.1161 157.181 45.3644 157.09C45.6128 156.999 45.815 156.813 45.9268 156.573L47.9443 152.23C47.9996 152.111 48.031 151.982 48.0368 151.851C48.0425 151.719 48.0224 151.588 47.9777 151.465C47.933 151.341 47.8645 151.228 47.7761 151.131C47.6877 151.034 47.5812 150.955 47.4626 150.9L43.6003 148.155C43.4546 148.084 43.3246 147.984 43.2184 147.862C43.4502 146.743 43.5616 145.602 43.5507 144.459C43.6023 144.278 43.6951 144.113 43.8218 143.975C43.9485 143.837 44.1056 143.731 44.2805 143.665L48.367 141.267C48.6152 141.177 48.8174 140.991 48.929 140.75C49.0407 140.51 49.0527 140.235 48.9625 139.985L48.961 139.988ZM33.722 147.512C33.1492 148.746 32.225 149.781 31.0665 150.487C29.908 151.192 28.5671 151.537 27.2133 151.478C25.8596 151.419 24.5538 150.957 23.461 150.153C22.3682 149.348 21.5376 148.236 21.0741 146.957C20.6107 145.678 20.5351 144.29 20.8571 142.968C21.1791 141.646 21.8841 140.45 22.8831 139.53C23.882 138.61 25.13 138.009 26.4692 137.802C27.8085 137.594 29.1788 137.791 30.4071 138.366C31.2245 138.745 31.9591 139.283 32.5686 139.949C33.1781 140.615 33.6506 141.395 33.9587 142.245C34.2668 143.095 34.4045 143.998 34.3639 144.901C34.3232 145.805 34.1051 146.691 33.722 147.51V147.512Z" fill="#E4F2FD" stroke="#D3EAFC" stroke-width="2" mask="url(#path-15-inside-1_10091_246512)"/>
<path d="M22.9672 109.437L22.0954 106.937C22.047 106.799 21.9479 106.686 21.8198 106.623C21.6917 106.561 21.5452 106.554 21.4124 106.605L18.9192 107.05C18.8374 107.08 18.7506 107.092 18.6641 107.086C18.3304 106.555 17.9433 106.063 17.5096 105.618C17.4613 105.527 17.4342 105.425 17.4303 105.321C17.4265 105.217 17.4461 105.113 17.4875 105.018L18.1299 102.464C18.1895 102.331 18.1959 102.178 18.1476 102.039C18.0992 101.901 18.0002 101.788 17.8721 101.726L15.5616 100.601C15.4982 100.571 15.4296 100.553 15.3597 100.55C15.2898 100.547 15.22 100.558 15.1543 100.583C15.0885 100.608 15.0281 100.646 14.9766 100.695C14.925 100.745 14.8832 100.804 14.8536 100.87L13.3925 103.025C13.3547 103.106 13.3017 103.179 13.2364 103.238C12.6407 103.109 12.0334 103.047 11.4249 103.052C11.329 103.024 11.2408 102.972 11.1674 102.901C11.094 102.83 11.0375 102.743 11.0023 102.645L9.72635 100.365C9.67792 100.227 9.5789 100.114 9.45101 100.052C9.32312 99.9899 9.17681 99.9831 9.04415 100.033L7.57078 100.593L6.64853 100.943C6.58276 100.968 6.52236 101.007 6.47077 101.056C6.41918 101.105 6.3774 101.165 6.34784 101.231C6.31828 101.297 6.3015 101.369 6.29847 101.442C6.29544 101.515 6.30622 101.588 6.33018 101.656L6.75672 104.258C6.78547 104.343 6.79715 104.434 6.79105 104.524C6.28246 104.872 5.81094 105.276 5.38452 105.729C5.29712 105.779 5.19962 105.808 5.09982 105.812C5.00001 105.816 4.90067 105.796 4.80974 105.752L2.36262 105.082C2.29923 105.051 2.23063 105.033 2.16074 105.03C2.09084 105.027 2.02103 105.038 1.95528 105.063C1.88953 105.088 1.82914 105.126 1.77756 105.176C1.72598 105.225 1.68422 105.284 1.65467 105.351L0.576628 107.761C0.516958 107.895 0.51056 108.048 0.55884 108.186C0.607121 108.325 0.70613 108.438 0.83411 108.5L2.89891 110.025C2.97684 110.064 3.04631 110.12 3.10307 110.188C2.97915 110.81 2.9196 111.443 2.92544 112.078C2.89782 112.178 2.84816 112.27 2.78043 112.347C2.71269 112.424 2.62876 112.482 2.53531 112.519L0.350616 113.851C0.217881 113.901 0.109751 114.005 0.0500046 114.138C-0.00974193 114.272 -0.016213 114.425 0.0320144 114.563L0.904073 117.063C0.927997 117.132 0.964635 117.195 1.01189 117.249C1.05915 117.303 1.1161 117.346 1.1795 117.377C1.2429 117.408 1.31149 117.425 1.38138 117.429C1.45126 117.432 1.52106 117.421 1.58679 117.396L4.08021 116.951C4.16211 116.921 4.24902 116.908 4.33561 116.915C4.66913 117.445 5.05617 117.937 5.49012 118.382C5.53838 118.473 5.56553 118.575 5.56942 118.679C5.5733 118.784 5.5538 118.887 5.51248 118.982L4.86982 121.536C4.81017 121.669 4.8038 121.822 4.85214 121.961C4.90047 122.099 4.99953 122.212 5.12756 122.275L7.43814 123.399C7.56616 123.461 7.71246 123.467 7.84497 123.417C7.97749 123.366 8.0854 123.263 8.14504 123.129L9.60619 120.975C9.64386 120.894 9.69695 120.821 9.76224 120.762C10.358 120.891 10.9653 120.953 11.5737 120.947C11.6697 120.976 11.7578 121.028 11.8312 121.098C11.9046 121.169 11.9611 121.257 11.9964 121.354L13.2723 123.634C13.2962 123.703 13.3329 123.766 13.3801 123.82C13.4274 123.873 13.4844 123.917 13.5477 123.948C13.6111 123.979 13.6797 123.996 13.7496 123.999C13.8195 124.003 13.8893 123.991 13.955 123.966L15.4284 123.407L16.3507 123.056C16.4833 123.006 16.5913 122.903 16.6511 122.769C16.7109 122.636 16.7175 122.483 16.6695 122.345L16.243 119.743C16.2141 119.658 16.2024 119.567 16.2087 119.477C16.7172 119.129 17.1887 118.725 17.6149 118.272C17.7025 118.222 17.8001 118.193 17.8999 118.189C17.9998 118.185 18.0992 118.206 18.1902 118.249L20.6371 118.919C20.7652 118.981 20.9117 118.988 21.0444 118.938C21.1772 118.887 21.2853 118.784 21.345 118.65L22.4236 116.238C22.4532 116.172 22.47 116.1 22.4731 116.027C22.4761 115.954 22.4654 115.881 22.4415 115.813C22.4176 115.744 22.381 115.681 22.3337 115.627C22.2865 115.573 22.2295 115.53 22.1661 115.499L20.1013 113.974C20.0234 113.935 19.9539 113.879 19.8972 113.811C20.0211 113.189 20.0806 112.556 20.0748 111.921C20.1024 111.82 20.152 111.728 20.2197 111.652C20.2875 111.575 20.3714 111.516 20.4649 111.48L22.6496 110.148C22.7823 110.097 22.8904 109.994 22.9501 109.861C23.0098 109.727 23.0162 109.574 22.968 109.436L22.9672 109.437ZM14.8203 113.617C14.5141 114.302 14.02 114.877 13.4007 115.269C12.7813 115.661 12.0645 115.853 11.3407 115.82C10.617 115.787 9.91892 115.531 9.33473 115.084C8.75054 114.637 8.30649 114.019 8.05871 113.308C7.81093 112.598 7.77055 111.827 7.94268 111.093C8.11482 110.358 8.49173 109.694 9.02577 109.183C9.55981 108.672 10.227 108.338 10.943 108.223C11.6589 108.108 12.3915 108.217 13.0481 108.536C13.4851 108.747 13.8779 109.046 14.2037 109.416C14.5296 109.785 14.7821 110.219 14.9468 110.691C15.1115 111.163 15.1852 111.665 15.1635 112.167C15.1417 112.668 15.0251 113.161 14.8203 113.616V113.617Z" fill="#AACDE6"/>
<path d="M84.308 145.91C84.4014 146.283 84.5747 146.547 84.828 146.7C85.0814 146.847 85.3914 146.92 85.758 146.92H85.958L86.018 147.45L85.958 148H85.758C85.3447 148 84.9414 147.907 84.548 147.72C84.1614 147.527 83.8547 147.22 83.628 146.8C83.448 147.06 83.228 147.26 82.968 147.4C82.708 147.533 82.4347 147.6 82.148 147.6C81.8214 147.6 81.5014 147.51 81.188 147.33C80.888 147.163 80.6547 146.927 80.488 146.62C80.328 146.313 80.248 145.983 80.248 145.63C80.248 145.27 80.3314 144.947 80.498 144.66C80.6114 144.473 80.7347 144.317 80.868 144.19C81.0014 144.063 81.208 143.923 81.488 143.77C81.768 143.617 82.168 143.43 82.688 143.21L82.568 142.7L83.488 142.46L84.308 145.91ZM81.318 145.22C81.2247 145.373 81.178 145.523 81.178 145.67C81.178 145.817 81.218 145.957 81.298 146.09C81.378 146.223 81.4847 146.333 81.618 146.42C81.7714 146.513 81.9347 146.56 82.108 146.56C82.268 146.56 82.4247 146.523 82.578 146.45C82.7314 146.377 82.8647 146.273 82.978 146.14C83.0514 146.053 83.1047 145.963 83.138 145.87C83.1714 145.77 83.188 145.65 83.188 145.51C83.188 145.463 83.1814 145.373 83.168 145.24L83.078 144.85L82.918 144.22C82.4047 144.407 82.0314 144.58 81.798 144.74C81.5647 144.9 81.4047 145.06 81.318 145.22ZM85.8602 146.92H86.1302C86.4235 146.92 86.6035 146.78 86.6702 146.5L86.9702 145.42C87.1168 144.88 87.3502 144.46 87.6702 144.16C87.9902 143.86 88.3768 143.71 88.8302 143.71C89.1902 143.71 89.5102 143.813 89.7902 144.02C90.0702 144.22 90.2868 144.497 90.4402 144.85C90.5935 145.203 90.6702 145.59 90.6702 146.01C90.6702 146.523 90.5935 146.947 90.4402 147.28C90.2868 147.607 90.0902 147.843 89.8502 147.99C89.6168 148.137 89.3668 148.21 89.1002 148.21C88.8535 148.21 88.6002 148.16 88.3402 148.06C88.0868 147.967 87.7035 147.79 87.1902 147.53C87.0502 147.677 86.8868 147.793 86.7002 147.88C86.5135 147.96 86.3268 148 86.1402 148H85.8602V146.92ZM87.6402 146.6C88.0602 146.813 88.3702 146.957 88.5702 147.03C88.7702 147.103 88.9535 147.14 89.1202 147.14C89.3268 147.14 89.4835 147.06 89.5902 146.9C89.7035 146.733 89.7602 146.437 89.7602 146.01C89.7602 145.617 89.6768 145.313 89.5102 145.1C89.3502 144.88 89.1235 144.77 88.8302 144.77C88.6102 144.77 88.4168 144.85 88.2502 145.01C88.0835 145.163 87.9602 145.397 87.8802 145.71L87.6402 146.6ZM93.8829 148C93.2096 148 92.7329 147.813 92.4529 147.44C92.1796 147.067 92.0429 146.533 92.0429 145.84L92.0329 141.45H92.9729L92.9829 145.84C92.9829 146.16 93.0029 146.393 93.0429 146.54C93.0829 146.68 93.1629 146.78 93.2829 146.84C93.4029 146.893 93.6029 146.92 93.8829 146.92H94.1029L94.1629 147.47L94.1029 148H93.8829ZM94.0047 146.92H95.0547C95.3347 146.92 95.5414 146.863 95.6747 146.75C95.808 146.63 95.8747 146.467 95.8747 146.26C95.8747 146.08 95.8447 145.817 95.7847 145.47C95.7247 145.123 95.6547 144.783 95.5747 144.45L96.4847 144.22C96.5647 144.553 96.638 144.923 96.7047 145.33C96.778 145.737 96.8147 146.057 96.8147 146.29C96.8147 146.583 96.748 146.86 96.6147 147.12C96.4814 147.38 96.2847 147.593 96.0247 147.76C95.7647 147.92 95.4547 148 95.0947 148H94.0047V146.92ZM95.0147 141.96H96.1247V143.06H95.0147V141.96ZM99.7191 144.83V146.26C99.7191 146.5 99.7791 146.67 99.8991 146.77C100.019 146.87 100.209 146.92 100.469 146.92H100.599L100.659 147.47L100.599 148H100.469C100.162 148 99.9125 147.92 99.7191 147.76C99.6991 148.647 99.4558 149.327 98.9891 149.8C98.5225 150.28 97.8591 150.52 96.9991 150.52H96.3691V149.44H96.9991C97.4325 149.44 97.7791 149.38 98.0391 149.26C98.2991 149.147 98.4858 148.96 98.5991 148.7C98.7191 148.447 98.7791 148.097 98.7791 147.65V144.83H99.7191ZM100.499 146.92H101.549C101.829 146.92 102.035 146.863 102.169 146.75C102.302 146.63 102.369 146.467 102.369 146.26C102.369 146.08 102.339 145.817 102.279 145.47C102.219 145.123 102.149 144.783 102.069 144.45L102.979 144.22C103.059 144.553 103.132 144.923 103.199 145.33C103.272 145.737 103.309 146.057 103.309 146.29C103.309 146.583 103.242 146.86 103.109 147.12C102.975 147.38 102.779 147.593 102.519 147.76C102.259 147.92 101.949 148 101.589 148H100.499V146.92ZM101.189 149.42H102.299V150.52H101.189V149.42ZM108.106 145.43C107.719 146.277 107.526 146.977 107.526 147.53C107.526 148.117 107.666 148.58 107.946 148.92C108.233 149.267 108.666 149.44 109.246 149.44H110.256C110.843 149.44 111.259 149.353 111.506 149.18C111.753 149.013 111.889 148.733 111.916 148.34V148.27C111.916 148.217 111.903 148.177 111.876 148.15C111.856 148.13 111.806 148.11 111.726 148.09L109.566 147.51C109.466 147.203 109.416 146.883 109.416 146.55C109.416 146.197 109.473 145.867 109.586 145.56C109.706 145.247 109.866 144.973 110.066 144.74C110.326 144.453 110.623 144.233 110.956 144.08C111.296 143.92 111.649 143.84 112.016 143.84C112.196 143.84 112.379 143.853 112.566 143.88C112.759 143.907 112.923 143.94 113.056 143.98L112.836 144.99C112.569 144.917 112.279 144.89 111.966 144.91C111.486 144.917 111.089 145.093 110.776 145.44C110.609 145.613 110.489 145.797 110.416 145.99C110.349 146.177 110.329 146.383 110.356 146.61L112.076 147.08C112.363 147.167 112.566 147.297 112.686 147.47C112.806 147.643 112.866 147.883 112.866 148.19C112.866 148.923 112.639 149.493 112.186 149.9C111.733 150.313 111.089 150.52 110.256 150.52H109.246C108.699 150.52 108.223 150.383 107.816 150.11C107.416 149.843 107.109 149.48 106.896 149.02C106.689 148.567 106.586 148.073 106.586 147.54C106.586 147.167 106.649 146.757 106.776 146.31C106.903 145.857 107.063 145.417 107.256 144.99L108.106 145.43ZM116.266 148C115.592 148 115.116 147.813 114.836 147.44C114.562 147.067 114.426 146.533 114.426 145.84L114.416 141.45H115.356L115.366 145.84C115.366 146.16 115.386 146.393 115.426 146.54C115.466 146.68 115.546 146.78 115.666 146.84C115.786 146.893 115.986 146.92 116.266 146.92H116.486L116.546 147.47L116.486 148H116.266ZM116.387 146.92H117.488L117.757 146.52L117.748 141.45H118.688L118.698 145.09C119.018 144.617 119.338 144.277 119.658 144.07C119.978 143.857 120.351 143.75 120.778 143.75C121.171 143.75 121.508 143.85 121.788 144.05C122.074 144.25 122.291 144.52 122.438 144.86C122.584 145.193 122.658 145.553 122.658 145.94C122.658 146.22 122.611 146.483 122.518 146.73C122.684 146.857 122.924 146.92 123.238 146.92H123.528L123.608 147.47L123.528 148H123.228C122.994 148 122.764 147.953 122.538 147.86C122.318 147.767 122.131 147.647 121.978 147.5C121.584 147.833 121.104 148 120.538 148H116.387V146.92ZM120.538 146.92C120.918 146.92 121.211 146.84 121.418 146.68C121.624 146.513 121.728 146.267 121.728 145.94C121.728 145.593 121.648 145.323 121.487 145.13C121.334 144.93 121.094 144.83 120.768 144.83C120.488 144.83 120.254 144.897 120.068 145.03C119.888 145.163 119.664 145.417 119.398 145.79L118.578 146.92H120.538ZM123.408 146.92H124.638C125.285 146.92 125.871 146.82 126.398 146.62C126.925 146.42 127.541 146.113 128.248 145.7C126.788 145.12 125.925 144.83 125.658 144.83C125.478 144.83 125.335 144.873 125.228 144.96C125.128 145.047 125.031 145.213 124.938 145.46L124.058 145.18C124.218 144.693 124.435 144.337 124.708 144.11C124.988 143.877 125.305 143.76 125.658 143.76C125.905 143.76 126.288 143.857 126.808 144.05C127.328 144.237 128.061 144.527 129.008 144.92L129.198 145L129.398 146.15L129.038 146.37C128.425 146.75 127.918 147.047 127.518 147.26C127.125 147.473 126.685 147.65 126.198 147.79C125.718 147.93 125.198 148 124.638 148H123.408V146.92ZM125.238 141.73H126.348V142.83H125.238V141.73ZM134.179 145.49C133.819 146.243 133.639 146.937 133.639 147.57C133.639 148.15 133.779 148.607 134.059 148.94C134.339 149.273 134.776 149.44 135.369 149.44H136.369C136.809 149.44 137.149 149.393 137.389 149.3C137.629 149.207 137.796 149.053 137.889 148.84C137.989 148.633 138.039 148.343 138.039 147.97V144.83H138.989V145.93C138.989 146.297 139.063 146.553 139.209 146.7C139.363 146.847 139.573 146.92 139.839 146.92C140.126 146.92 140.333 146.857 140.459 146.73C140.593 146.603 140.659 146.4 140.659 146.12V144.83H141.599V146.22C141.599 146.467 141.659 146.643 141.779 146.75C141.899 146.857 142.083 146.913 142.329 146.92C142.596 146.913 142.793 146.847 142.919 146.72C143.053 146.593 143.109 146.423 143.089 146.21C143.056 145.863 142.956 145.277 142.789 144.45L143.699 144.22C143.779 144.553 143.853 144.927 143.919 145.34C143.993 145.747 144.029 146.067 144.029 146.3C144.029 146.587 143.966 146.86 143.839 147.12C143.713 147.38 143.519 147.593 143.259 147.76C143.006 147.92 142.696 148 142.329 148C142.103 148 141.879 147.95 141.659 147.85C141.446 147.743 141.259 147.587 141.099 147.38C140.773 147.793 140.353 148 139.839 148C139.519 148 139.236 147.913 138.989 147.74V147.97C138.989 148.763 138.776 149.387 138.349 149.84C137.929 150.293 137.269 150.52 136.369 150.52H135.369C134.803 150.52 134.316 150.383 133.909 150.11C133.509 149.837 133.206 149.477 132.999 149.03C132.799 148.583 132.699 148.097 132.699 147.57C132.699 147.137 132.763 146.707 132.889 146.28C133.023 145.847 133.189 145.44 133.389 145.06L134.179 145.49ZM139.569 142.49H140.639V143.55H139.569V142.49ZM140.529 141.15H141.549V142.16H140.529V141.15ZM141.429 142.49H142.499V143.55H141.429V142.49ZM146.965 144.83V147.65C146.965 148.57 146.732 149.277 146.265 149.77C145.799 150.27 145.125 150.52 144.245 150.52H143.615V149.44H144.245C144.679 149.44 145.025 149.38 145.285 149.26C145.545 149.147 145.732 148.96 145.845 148.7C145.965 148.447 146.025 148.097 146.025 147.65V144.83H146.965ZM148.255 141.45H149.195L149.205 148H148.265L148.255 141.45ZM152.434 144.83V146.26C152.434 146.5 152.494 146.67 152.614 146.77C152.734 146.87 152.924 146.92 153.184 146.92H153.314L153.374 147.47L153.314 148H153.184C152.877 148 152.627 147.92 152.434 147.76C152.414 148.647 152.171 149.327 151.704 149.8C151.237 150.28 150.574 150.52 149.714 150.52H149.084V149.44H149.714C150.147 149.44 150.494 149.38 150.754 149.26C151.014 149.147 151.201 148.96 151.314 148.7C151.434 148.447 151.494 148.097 151.494 147.65V144.83H152.434ZM151.354 142.4H152.464V143.5H151.354V142.4ZM157.954 142.29L155.114 143.55L156.634 145.1C156.807 145.28 156.937 145.48 157.024 145.7C157.117 145.92 157.164 146.143 157.164 146.37C157.164 146.657 157.094 146.927 156.954 147.18C156.82 147.427 156.624 147.627 156.364 147.78C156.104 147.927 155.797 148 155.444 148H153.214V146.92H155.454C155.707 146.92 155.9 146.873 156.034 146.78C156.174 146.687 156.244 146.563 156.244 146.41C156.244 146.223 156.144 146.03 155.944 145.83L154.084 143.97L154.354 142.73L157.564 141.31L157.954 142.29ZM154.454 141.6L157.034 140.47L157.194 140.88L154.394 142.11L154.454 141.6Z" fill="#AACDE6"/>
</svg>
