<svg width="50" height="50" viewBox="0 0 50 50" fill="none" xmlns="http://www.w3.org/2000/svg">
<g clip-path="url(#clip0_615_1610)">
<path d="M21.0013 35C20.3364 35.4341 19.5548 36.2 20.487 37.5278C21.3061 38.6944 20.5142 39.3411 19.668 39.6667" stroke="#82C4F8" stroke-width="1.5" stroke-linecap="round"/>
<path d="M26.1431 36.6983C25.5158 35.5921 25.5103 34.8118 25.686 34.2588C25.8466 33.7539 26.1876 33.3436 26.5747 33.0016H24.8183C24.6559 33.2557 24.5156 33.5394 24.4152 33.8552C24.105 34.8314 24.2119 35.996 24.9829 37.3558C25.5208 38.3044 25.4694 38.2483 25.2817 38.6501C25.074 39.0946 24.6204 39.4581 24.048 39.7308C23.7156 39.8891 23.5746 40.2864 23.7329 40.6188C23.8912 40.9512 24.2885 41.0922 24.6209 40.9339C25.3178 40.602 26.093 40.0626 26.4894 39.2139C26.9057 38.3224 26.8336 37.9162 26.1431 36.6983Z" fill="#2196F3"/>
<path d="M38 9C39.6569 9 41 10.3431 41 12V30C41 31.6569 39.6569 33 38 33H26.5762C26.6339 32.9491 26.6926 32.8995 26.752 32.8516C27.038 32.6201 27.0828 32.2003 26.8516 31.9141C26.6201 31.6279 26.2003 31.584 25.9141 31.8154C25.556 32.1049 25.1465 32.4942 24.8223 33H12C10.3431 33 9 31.6569 9 30V12C9 10.3431 10.3431 9 12 9H38ZM15.3379 25C14.7934 25.0001 14.292 25.2974 14.0312 25.7754L13.2998 27.1162C13.1646 27.3642 13.3445 27.667 13.627 27.667H36.373C36.6555 27.667 36.8354 27.3642 36.7002 27.1162L35.9688 25.7754C35.708 25.2974 35.2066 25.0001 34.6621 25H15.3379ZM15.3379 19.667C14.7933 19.6671 14.292 19.9643 14.0312 20.4424L13.2998 21.7832C13.1648 22.0311 13.3446 22.333 13.627 22.333H36.373C36.6554 22.333 36.8352 22.0311 36.7002 21.7832L35.9688 20.4424C35.708 19.9643 35.2067 19.6671 34.6621 19.667H15.3379ZM15.3379 14.333C14.7933 14.3331 14.292 14.6313 14.0312 15.1094L13.2998 16.4502C13.1651 16.6981 13.3447 17 13.627 17H36.373C36.6553 17 36.8349 16.6981 36.7002 16.4502L35.9688 15.1094C35.708 14.6313 35.2067 14.3331 34.6621 14.333H15.3379Z" fill="#2196F3"/>
<path d="M30.3333 35C29.6684 35.4341 28.8869 36.2 29.8191 37.5278C30.6381 38.6944 29.8462 39.3411 29 39.6667" stroke="#82C4F8" stroke-width="1.5" stroke-linecap="round"/>
<path d="M11.667 29.667C12.0349 29.6672 12.3328 29.9651 12.333 30.333C12.333 30.7011 12.035 30.9998 11.667 31C11.2988 31 11 30.7012 11 30.333C11.0002 29.965 11.2989 29.667 11.667 29.667ZM38.333 29.667C38.7011 29.667 38.9998 29.965 39 30.333C39 30.7012 38.7012 31 38.333 31C37.965 30.9998 37.667 30.7011 37.667 30.333C37.6672 29.9651 37.9651 29.6672 38.333 29.667ZM11.667 11C12.035 11.0002 12.333 11.2989 12.333 11.667C12.3328 12.0349 12.0349 12.3328 11.667 12.333C11.2989 12.333 11.0002 12.035 11 11.667C11 11.2988 11.2988 11 11.667 11ZM38.333 11C38.7012 11 39 11.2988 39 11.667C38.9998 12.035 38.7011 12.333 38.333 12.333C37.9651 12.3328 37.6672 12.0349 37.667 11.667C37.667 11.2989 37.965 11.0002 38.333 11Z" fill="#82C4F8"/>
</g>
<defs>
<clipPath id="clip0_615_1610">
<rect width="32" height="32" fill="white" transform="translate(9 9)"/>
</clipPath>
</defs>
</svg>
