<svg width="34" height="34" viewBox="0 0 34 34" fill="none" xmlns="http://www.w3.org/2000/svg">
<path d="M12.3333 27C11.6684 27.5581 10.8869 28.5428 11.8191 30.25C12.6381 31.75 11.8462 32.5814 11 33" stroke="#82C4F8" stroke-width="1.5" stroke-linecap="round"/>
<path d="M18.332 24.3335C17.3346 25.1397 16.1623 26.562 17.5606 29.0279C18.7892 31.1946 17.6014 32.3955 16.332 33.0002" stroke="#2196F3" stroke-width="1.5" stroke-linecap="round"/>
<path d="M23.0013 27C22.3364 27.5581 21.5548 28.5428 22.487 30.25C23.3061 31.75 22.5142 32.5814 21.668 33" stroke="#82C4F8" stroke-width="1.5" stroke-linecap="round"/>
<path d="M28.7143 25H30C31.6569 25 33 23.6569 33 22V4C33 2.34315 31.6569 1 30 1H4C2.34315 1 1 2.34315 1 4V22C1 23.6569 2.34315 25 4 25H5.28571" stroke="#2196F3" stroke-width="1.5" stroke-linecap="round"/>
<path d="M6.03146 12.4422C6.29227 11.964 6.79343 11.6665 7.33809 11.6665H26.6619C27.2066 11.6665 27.7077 11.964 27.9685 12.4422L28.6999 13.7829C28.8351 14.0309 28.6556 14.3332 28.3732 14.3332H5.62681C5.34437 14.3332 5.1649 14.0309 5.30015 13.7829L6.03146 12.4422Z" stroke="#82C4F8" stroke-width="1.5"/>
<path d="M6.03146 7.10916C6.29227 6.631 6.79343 6.3335 7.33809 6.3335H26.6619C27.2066 6.3335 27.7077 6.631 27.9685 7.10916L28.6999 8.44989C28.8351 8.69785 28.6556 9.00016 28.3732 9.00016H5.62681C5.34437 9.00016 5.1649 8.69785 5.30015 8.44989L6.03146 7.10916Z" stroke="#82C4F8" stroke-width="1.5"/>
<path d="M6.03146 17.7757C6.29227 17.2975 6.79343 17 7.33809 17H26.6619C27.2066 17 27.7077 17.2975 27.9685 17.7757L28.6999 19.1164C28.8351 19.3643 28.6556 19.6667 28.3732 19.6667H5.62681C5.34437 19.6667 5.1649 19.3643 5.30015 19.1164L6.03146 17.7757Z" stroke="#82C4F8" stroke-width="1.5"/>
<circle cx="4.0013" cy="3.99984" r="0.333333" stroke="#2196F3" stroke-width="1.5"/>
<circle cx="4.0013" cy="21.9998" r="0.333333" stroke="#2196F3" stroke-width="1.5"/>
<circle cx="30.0013" cy="3.99984" r="0.333333" stroke="#2196F3" stroke-width="1.5"/>
<circle cx="30.0013" cy="21.9998" r="0.333333" stroke="#2196F3" stroke-width="1.33333"/>
<path d="M8.33333 25C7.6684 25.5581 6.88687 26.5428 7.81906 28.25C8.63812 29.75 7.84625 30.5814 7 31" stroke="#2196F3" stroke-width="1.5" stroke-linecap="round"/>
<path d="M27.0013 25C26.3364 25.5581 25.5548 26.5428 26.487 28.25C27.3061 29.75 26.5142 30.5814 25.668 31" stroke="#2196F3" stroke-width="1.5" stroke-linecap="round"/>
</svg>
