<svg width="16" height="16" viewBox="0 0 16 16" fill="none" xmlns="http://www.w3.org/2000/svg">
<path d="M6.66667 14.6673H9.33333C12.6667 14.6673 14 13.334 14 10.0007V6.00065C14 2.66732 12.6667 1.33398 9.33333 1.33398H6.66667C3.33333 1.33398 2 2.66732 2 6.00065V10.0007C2 13.334 3.33333 14.6673 6.66667 14.6673Z" stroke="#6D6D6D" stroke-linecap="round" stroke-linejoin="round"/>
<path d="M11 5.05273V5.7194C11 6.26607 10.5533 6.7194 10 6.7194H6C5.45333 6.7194 5 6.27273 5 5.7194V5.05273C5 4.50607 5.44667 4.05273 6 4.05273H10C10.5533 4.05273 11 4.4994 11 5.05273Z" stroke="#6D6D6D" stroke-linecap="round" stroke-linejoin="round"/>
<path d="M5.42408 9.33333H5.43178" stroke="#6D6D6D" stroke-linecap="round" stroke-linejoin="round"/>
<path d="M7.9983 9.33333H8.006" stroke="#6D6D6D" stroke-linecap="round" stroke-linejoin="round"/>
<path d="M10.5686 9.33333H10.5763" stroke="#6D6D6D" stroke-linecap="round" stroke-linejoin="round"/>
<path d="M5.42408 11.6673H5.43178" stroke="#6D6D6D" stroke-linecap="round" stroke-linejoin="round"/>
<path d="M7.9983 11.6673H8.006" stroke="#6D6D6D" stroke-linecap="round" stroke-linejoin="round"/>
<path d="M10.5686 11.6673H10.5763" stroke="#6D6D6D" stroke-linecap="round" stroke-linejoin="round"/>
</svg>
