<svg width="328" height="186" viewBox="0 0 328 186" fill="none" xmlns="http://www.w3.org/2000/svg">
<g clip-path="url(#clip0_10286_76455)">
<rect width="328" height="186" rx="6" fill="url(#paint0_linear_10286_76455)"/>
<g opacity="0.5">
<mask id="mask0_10286_76455" style="mask-type:luminance" maskUnits="userSpaceOnUse" x="-44" y="0" width="416" height="186">
<path d="M-43.3285 186H371.344V-0.000350952H-43.3285V186Z" fill="white"/>
</mask>
<g mask="url(#mask0_10286_76455)">
<path d="M-46.9836 98.5322C-42.6641 84.373 -36.3058 70.5159 -27.8396 57.0774C-13.3952 34.1064 6.43998 13.1813 31.3203 -5.25595H29.4543C4.88497 13.1116 -14.7774 33.8971 -29.1182 56.7054C-36.7551 68.8652 -42.6987 81.3504 -46.9836 94.0915V98.5322Z" fill="url(#paint1_linear_10286_76455)"/>
<path d="M-46.9523 159.564C-45.9502 170.143 -43.9459 180.582 -40.9396 190.766H-39.1772C-43.2894 176.839 -45.5701 162.494 -45.8811 147.869C-46.1575 135.942 -45.3973 125.294 -43.6349 115.342C-41.2506 102.299 -36.9656 89.3722 -30.8147 76.8869C-24.7328 64.5179 -16.8195 52.5441 -7.31658 41.3143C4.43246 27.4341 18.5659 14.0653 35.8785 0.394257C38.3319 -1.53549 40.7854 -3.39549 43.2734 -5.23224H40.9236C38.7812 -3.62799 36.6733 -2.00049 34.5653 -0.349731C17.1837 13.3678 3.01569 26.8063 -8.80247 40.7331C-18.3745 52.0326 -26.3224 64.0761 -32.4388 76.5149C-38.6243 89.0699 -42.9438 102.09 -45.3282 115.203C-46.0193 118.993 -46.5377 122.852 -46.9178 126.875V159.564H-46.9523Z" fill="url(#paint2_linear_10286_76455)"/>
<path d="M52.0408 -5.23224C47.203 -1.65173 42.4343 2.11476 37.7692 6.09052C25.3636 16.6228 9.36415 30.7821 -4.49281 46.9176C-23.6368 69.2377 -35.6278 94.743 -39.2216 120.667C-40.7766 132.059 -40.5347 143.243 -40.0855 152.682C-39.4635 165.749 -37.4938 178.49 -34.2455 190.766H-32.4832C-35.766 178.49 -37.7357 165.725 -38.3577 152.636C-38.8069 143.243 -39.0488 132.106 -37.4938 120.76C-33.9345 94.9987 -22.0127 69.6794 -3.00693 47.4989C10.8155 31.4331 26.7804 17.3203 39.1169 6.81126C44.1275 2.5565 49.2072 -1.44249 54.3906 -5.23224H52.0408Z" fill="url(#paint3_linear_10286_76455)"/>
<path d="M62.307 -5.23143C54.9811 0.0928345 47.8972 5.92859 40.7786 12.4619L38.2906 14.7636C25.1939 26.8071 11.6134 39.2691 -0.377586 53.0099C-19.5562 75.051 -30.9251 100.324 -33.3095 126.085C-34.2425 136.64 -33.4823 147.219 -32.7566 157.449C-31.9273 168.981 -30.1994 180.095 -27.6423 190.743H-25.5344C-28.1261 180.071 -29.8539 168.935 -30.6832 157.379C-31.4089 147.173 -32.1691 136.64 -31.2361 126.155C-28.8863 100.649 -17.5865 75.5857 1.41931 53.7307C13.3757 40.0596 26.8871 27.6209 39.9838 15.6006L42.4719 13.2988C49.936 6.41682 57.4346 0.302078 65.1406 -5.23143H62.307Z" fill="url(#paint4_linear_10286_76455)"/>
<path d="M72.3987 -5.23224C62.6539 1.58002 53.462 9.4153 43.9936 18.9246C39.8469 23.0863 35.4583 27.3178 31.2424 31.4098C22.1197 40.2216 12.6859 49.3589 3.94321 59.2169C-5.59425 70.0281 -13.1275 81.8159 -18.4146 94.2082C-23.6671 106.461 -26.6043 119.039 -27.1572 131.548C-27.5028 139.918 -26.6389 148.125 -25.7404 156.797C-25.5676 158.611 -25.3603 160.424 -25.1875 162.261C-24.1854 172.328 -22.734 181.791 -20.7298 190.766H-18.6219C-20.6261 181.768 -22.112 172.259 -23.1142 162.168C-23.2869 160.331 -23.4943 158.518 -23.667 156.704C-24.5655 148.055 -25.4294 139.871 -25.0838 131.594C-24.5309 119.202 -21.5937 106.74 -16.4103 94.6034C-11.1578 82.3042 -3.69368 70.6559 5.74011 59.9376C14.4482 50.1261 23.8475 41.0121 32.9702 32.2236C37.2206 28.1316 41.5747 23.9001 45.756 19.7151C55.639 9.8338 65.1419 1.76602 75.3359 -5.209H72.3987V-5.23224Z" fill="url(#paint5_linear_10286_76455)"/>
<path d="M82.1159 -5.23224C66.5311 4.95128 55.7151 15.7858 47.0415 25.3183C41.3398 31.5958 35.258 37.5943 28.8651 43.9416C21.9884 50.7539 14.8699 57.7754 8.09694 65.3084C-10.9434 86.5822 -21.3448 112.041 -21.2411 136.988C-21.172 144.033 -20.1699 150.869 -19.0987 158.123C-18.684 161.029 -18.2348 164.028 -17.8547 167.051C-16.7834 175.56 -15.5048 183.395 -13.9844 190.766H-11.5309C-13.0514 183.372 -14.3645 175.467 -15.4357 166.911C-15.8159 163.865 -16.2651 160.866 -16.6797 157.96C-17.751 150.752 -18.7531 143.94 -18.8222 136.988C-18.9259 112.343 -8.62817 87.1867 10.1703 66.1454C16.9087 58.6589 23.9927 51.6374 30.8693 44.8484C37.2968 38.4778 43.3786 32.4561 49.1149 26.1553C58.0304 16.3671 69.2611 5.13728 85.6406 -5.23224H82.1159Z" fill="url(#paint6_linear_10286_76455)"/>
<path d="M92.3304 -5.23146C91.5702 -4.76645 90.7754 -4.32469 90.0152 -3.8597C72.7026 6.62607 61.6101 17.9721 50.2412 31.7594C43.8829 39.4784 36.6261 46.7324 28.9547 54.4049C23.4949 59.8454 17.8622 65.4952 12.4024 71.4704C2.83037 82.026 -4.42641 93.6277 -9.16058 105.95C-13.8256 118.087 -15.8299 130.363 -15.1042 142.43C-14.7241 148.591 -13.5492 154.543 -12.3052 160.82C-11.614 164.378 -10.8538 168.051 -10.3009 171.818C-9.29882 178.328 -8.22759 184.628 -6.98357 190.743H-4.53007C-5.77408 184.582 -6.84534 178.211 -7.88203 171.655C-8.46947 167.888 -9.19516 164.192 -9.92084 160.611C-11.1649 154.357 -12.3398 148.451 -12.6853 142.36C-13.3764 130.456 -11.4067 118.343 -6.81079 106.346C-2.14573 94.1857 5.04195 82.7235 14.4757 72.3074C19.9356 66.3554 25.5337 60.7289 30.959 55.2884C38.6649 47.5927 45.9217 40.3154 52.3491 32.5266C63.6144 18.8788 74.6032 7.64906 91.6393 -2.67395C93.0907 -3.55745 94.5766 -4.41769 96.0625 -5.2547H92.3304V-5.23146Z" fill="url(#paint7_linear_10286_76455)"/>
<path d="M103.377 -5.23148C98.7808 -2.88322 94.3576 -0.372223 90.1418 2.32478C72.4145 13.6243 62.2896 26.2491 53.4433 38.2229C46.9467 47.0114 38.8952 55.0791 30.3944 63.6119C25.9021 68.0992 21.2716 72.7492 16.7448 77.6549C-2.29558 98.3475 -11.6948 123.946 -8.9649 147.893C-8.34289 153.427 -6.99519 158.728 -5.54384 164.354C-4.54172 168.307 -3.50505 172.399 -2.71027 176.607C-1.81181 181.443 -0.947891 186.14 -0.0148773 190.743H2.43859C1.50558 186.07 0.607117 181.304 -0.291344 176.398C-1.08613 172.143 -2.1228 168.028 -3.12492 164.052C-4.54172 158.472 -5.88942 153.194 -6.51143 147.731C-9.17224 124.109 0.0542221 98.859 18.8527 78.4687C23.3795 73.5862 28.01 68.9594 32.4678 64.4722C41.0377 55.8929 49.1238 47.7786 55.6894 38.8971C64.4321 27.0628 74.4533 14.5543 91.8696 3.44077C96.8456 0.278763 102.064 -2.62749 107.523 -5.30124H103.377V-5.23148Z" fill="url(#paint8_linear_10286_76455)"/>
<path d="M116.23 -5.23227C106.935 -1.3495 98.2613 3.25401 90.3134 8.57826C74.0029 19.5058 65.4676 31.4331 56.7595 44.7321C50.4703 54.3344 41.8658 62.9369 32.743 72.0509C28.9419 75.8406 25.037 79.7699 21.1322 83.8852C11.5256 94.1617 4.54532 105.577 0.433159 117.807C-3.57534 129.641 -4.68111 141.917 -2.74598 153.356C-1.88208 158.425 -0.361618 163.238 1.22796 168.329C2.54109 172.538 3.92332 176.885 4.89089 181.396C5.54745 184.372 6.16946 187.371 6.79147 190.301C6.82603 190.463 6.8606 190.603 6.89516 190.766H9.00307C8.96851 190.556 8.89939 190.324 8.86483 190.115C8.24282 187.208 7.62082 184.186 6.96425 181.21C5.96213 176.63 4.61446 172.259 3.26678 168.05C1.6772 162.982 0.156723 158.192 -0.672623 153.194C-2.5732 141.941 -1.50198 129.804 2.47197 118.132C6.54958 106.066 13.4263 94.7894 22.9292 84.6524C26.7994 80.5372 30.7042 76.6311 34.5054 72.8414C43.6627 63.6809 52.3363 55.0319 58.6946 45.2901C67.3336 32.1073 75.7653 20.3195 91.7993 9.55476C100.473 3.74225 110.01 -1.21001 120.273 -5.25551H116.23V-5.23227Z" fill="url(#paint9_linear_10286_76455)"/>
<path d="M319.78 -5.23224C322.13 -5.02299 324.48 -4.79049 326.795 -4.55798C343.693 -2.83748 361.489 -0.744983 378.422 2.90527V1.44051C363.805 -1.675 348.6 -3.65124 333.914 -5.23224H319.78Z" fill="url(#paint10_linear_10286_76455)"/>
<path d="M132.441 -5.23109C129.158 -4.25459 125.91 -3.16183 122.696 -1.97609C110.774 2.41817 99.9235 8.06793 90.4206 14.7872C74.2483 26.203 67.3371 38.3627 59.9767 51.22C54.1713 61.3803 45.2558 70.2386 35.822 79.6316C32.4355 82.9796 28.9454 86.4438 25.4898 90.0941C6.41487 110.112 -1.84401 135.804 3.40851 158.821C4.47974 163.518 6.13843 167.935 7.93533 172.632C9.59402 176.98 11.2873 181.467 12.4622 186.21C12.8423 187.721 13.2224 189.256 13.5679 190.79H15.6759C15.2958 189.186 14.9157 187.582 14.501 185.977C13.2915 181.188 11.5983 176.654 9.93956 172.283C8.1772 167.633 6.51851 163.215 5.44728 158.612C0.26387 135.92 8.41911 110.577 27.2176 90.8381C30.6732 87.2111 34.1634 83.7468 37.5153 80.3988C47.0182 70.9593 56.0028 62.0313 61.9118 51.7083C69.1686 38.9672 76.0453 26.947 91.941 15.7404C101.306 9.13742 112.018 3.58066 123.733 -0.743851C128.294 -2.4411 132.994 -3.92909 137.797 -5.20786H132.441V-5.23109Z" fill="url(#paint11_linear_10286_76455)"/>
<path d="M311.521 1.27889C306.649 0.906889 301.638 0.511633 296.628 0.0233822C284.222 -1.16237 270.642 -2.90611 255.264 -5.25437H246.28C247.835 -4.99862 249.424 -4.71963 251.014 -4.48713C268.015 -1.81338 282.84 0.116387 296.351 1.39514C301.362 1.88339 306.407 2.27865 311.28 2.65065C314.942 2.92965 318.744 3.23188 322.441 3.55738C342 5.30113 361.075 7.3239 378.422 11.1602V9.69539C360.315 5.74289 340.998 3.81315 322.718 2.18565C319.02 1.86015 315.184 1.58114 311.521 1.27889Z" fill="url(#paint12_linear_10286_76455)"/>
<path d="M318.299 10.4627C315.293 10.2302 312.182 10.0209 309.211 9.83492C303.854 9.48616 298.326 9.11418 292.831 8.60268C279.423 7.34718 265.048 5.34767 248.91 2.44142C244.453 1.65092 240.064 0.744171 235.848 -0.116089C229.041 -1.51109 222.613 -2.81311 215.806 -3.78961C211.624 -4.3941 207.478 -4.8591 203.296 -5.23109H164.386C163.35 -5.13809 162.313 -5.04512 161.276 -4.92886C147.558 -3.48737 134.392 -0.441605 122.159 4.13866C110.41 8.53291 99.8358 14.2059 90.6784 21.0182C75.8885 32.062 70.1867 43.7567 64.1394 56.1258L63.3792 57.6835C58.1267 68.4018 48.9348 77.4693 39.1554 87.0716C36.149 90.0243 33.039 93.0933 29.929 96.3018C10.7158 116.181 3.14804 141.57 9.71368 164.238C10.9923 168.609 12.8237 172.725 14.7589 177.096C16.7285 181.467 18.7328 185.977 20.1151 190.79H21.8774V190.767C20.4606 185.838 18.4218 181.234 16.4176 176.77C14.4824 172.446 12.651 168.354 11.407 164.029C8.29691 153.241 8.40057 141.43 11.7525 129.875C15.1736 118.064 21.9811 106.671 31.3803 96.9529C34.4904 93.7444 37.5658 90.6986 40.5722 87.7458C50.3861 78.0738 59.6817 68.9365 65.0033 58.0555L65.7635 56.4978C71.7418 44.245 77.4089 32.6432 91.957 21.8087C100.976 15.0894 111.412 9.48618 122.988 5.16167C135.048 0.651154 148.007 -2.34811 161.518 -3.76636C179.142 -5.60312 197.249 -5.23111 215.426 -2.62711C222.164 -1.67384 228.557 -0.371826 235.33 1.02318C239.58 1.88342 243.969 2.79018 248.461 3.58067C264.668 6.48694 279.078 8.50967 292.589 9.76518C298.118 10.2767 303.682 10.6487 309.038 11.0207C312.01 11.2299 315.12 11.4159 318.126 11.6484C335.508 12.9737 357.14 14.6012 376.249 18.8094C376.975 18.9722 377.735 19.1349 378.461 19.321V18.0887C377.908 17.9724 377.355 17.8329 376.802 17.7167C357.485 13.4154 335.75 11.7879 318.299 10.4627Z" fill="url(#paint13_linear_10286_76455)"/>
<path d="M15.8288 169.678C17.2801 173.793 19.2844 177.653 21.3923 181.721C22.9128 184.651 24.4678 187.65 25.8155 190.766H27.6124C26.2302 187.511 24.606 184.395 23.051 181.349C20.9431 177.304 18.9734 173.468 17.522 169.422C13.79 158.89 13.4444 147.242 16.5199 135.733C19.6645 123.992 26.2647 112.715 35.6985 103.113C38.4976 100.253 41.3311 97.5097 44.0265 94.8592C54.5316 84.6292 63.5852 75.7942 68.2503 64.4481C68.665 63.4484 69.0797 62.4254 69.4597 61.4256C74.1939 49.6378 78.6862 38.5011 92.094 27.9456C109.89 13.9723 134.183 4.92802 160.515 2.48676C177.966 0.882507 195.831 1.60327 213.628 4.67227C219.917 5.76503 225.895 7.16003 232.184 8.62479C236.573 9.64778 241.134 10.7173 245.799 11.6705C261.349 14.8325 275.414 16.9483 288.752 18.1573C294.696 18.692 300.64 19.0175 306.41 19.343C308.829 19.4825 311.317 19.6221 313.736 19.7616L315.844 19.901C334.574 21.0403 353.925 22.2493 371.721 25.9461C374.002 26.4343 376.248 26.9458 378.391 27.4806V26.2483C358.728 21.3658 336.612 19.994 315.982 18.7385L313.875 18.5991C311.456 18.4595 308.933 18.32 306.514 18.1805C300.778 17.855 294.834 17.5295 288.96 16.9948C275.725 15.809 261.764 13.6933 246.283 10.5546C241.652 9.60129 237.091 8.55504 232.737 7.53204C226.379 6.04404 220.4 4.64902 214.042 3.55626C202.224 1.53351 190.406 0.510513 178.657 0.510513C172.471 0.510513 166.355 0.789505 160.273 1.3475C133.527 3.81201 108.854 12.9958 90.7808 27.2016C77.0966 37.9663 72.6043 49.2194 67.8011 61.1234C67.3864 62.1231 67.0063 63.1461 66.5916 64.1459C62.0302 75.3059 53.0456 84.0712 42.6443 94.2082C39.9143 96.8587 37.1153 99.6022 34.2817 102.462C24.7442 112.18 18.0059 123.619 14.8267 135.524C11.6821 147.195 12.0622 158.983 15.8288 169.678Z" fill="url(#paint14_linear_10286_76455)"/>
<path d="M22.1148 175.096C23.7389 179.002 26.0196 182.792 28.1967 186.442C29.026 187.86 29.8899 189.302 30.7192 190.743H32.2051C31.3067 189.162 30.3737 187.628 29.4752 186.093C27.1945 182.28 25.052 178.676 23.4279 174.84C19.1084 164.54 18.2791 153.055 21.0436 141.593C23.8772 129.898 30.3737 118.691 39.8075 109.229C42.3992 106.625 44.9909 104.114 47.5135 101.719C58.1913 91.4422 67.4177 82.584 71.2534 70.8195C71.7027 69.4244 72.1519 67.9829 72.6011 66.6112C76.1949 55.1722 79.616 44.3842 92.0562 34.0146C109.196 19.7624 133.143 10.7413 159.44 8.64883C176.511 7.27708 194.618 8.39308 211.862 11.8806C217.806 13.0896 223.404 14.5776 229.313 16.1586C233.805 17.3444 238.435 18.5999 243.239 19.6926C258.201 23.1104 271.851 25.3424 284.982 26.4816C291.237 27.0396 297.492 27.2954 303.539 27.5511C305.509 27.6441 307.478 27.7139 309.414 27.8069C311.107 27.8766 312.835 27.9696 314.562 28.0394C335.849 29.0159 358.863 30.0621 378.422 35.6654V34.6424C358.794 29.1321 335.883 28.0859 314.666 27.1094C312.938 27.0396 311.21 26.9466 309.517 26.8769C307.582 26.7839 305.612 26.6909 303.643 26.6211C297.595 26.3654 291.375 26.1096 285.19 25.5516C272.162 24.4124 258.616 22.2036 243.723 18.8091C238.954 17.7164 234.323 16.4841 229.866 15.2984C223.922 13.7173 218.289 12.2061 212.311 10.9971C199.733 8.46283 186.671 7.16083 173.885 7.16083C168.978 7.16083 164.105 7.34683 159.337 7.74208C132.694 9.88107 108.436 18.9951 91.054 33.4334C78.4066 43.9657 74.9509 54.8699 71.3225 66.4252C70.8733 67.7969 70.4241 69.2152 69.9749 70.6335C66.1737 82.212 57.0509 91.0005 46.4422 101.184C43.9196 103.602 41.3279 106.09 38.7362 108.717C29.1642 118.296 22.5986 129.619 19.765 141.453C16.8968 153.055 17.7262 164.68 22.1148 175.096Z" fill="url(#paint15_linear_10286_76455)"/>
<path d="M28.2658 180.559C29.9936 184.07 32.2743 187.487 34.4858 190.766H36.0063C33.5874 187.232 31.3412 183.86 29.5789 180.257C24.6374 170.213 23.3588 158.89 25.8123 147.497C28.3349 135.872 34.6586 124.782 44.1615 115.412C46.615 112.994 49.0339 110.692 51.3837 108.46C62.1998 98.2072 71.5299 89.349 74.5363 77.2124C74.9509 75.4919 75.3656 73.7249 75.7457 72.0277C78.2683 60.8909 80.6527 50.3586 92.2289 40.1519C108.712 25.6438 132.245 16.6693 158.473 14.9256C175.405 13.7863 193.271 15.2743 210.1 19.2036C215.732 20.5288 221.019 22.1098 226.583 23.7838C231.11 25.1556 235.775 26.5506 240.647 27.8061C254.884 31.4331 268.534 33.8279 281.181 34.8974C287.678 35.4554 294.174 35.6414 300.464 35.8041C302.019 35.8506 303.539 35.8971 305.059 35.9436C307.547 36.0134 310.036 36.0831 312.558 36.1529C334.778 36.7806 358.932 37.4548 378.422 44.0811V43.0349C358.829 36.5481 334.743 35.8739 312.627 35.2461C310.105 35.1763 307.582 35.1066 305.129 35.0368C303.608 34.9903 302.053 34.9438 300.533 34.8974C294.278 34.7113 287.816 34.5486 281.389 33.9906C268.81 32.9211 255.299 30.5728 241.165 26.9691C236.328 25.7368 231.697 24.3418 227.17 22.9701C221.814 21.3426 216.25 19.6918 210.549 18.3433C197.245 15.2511 183.319 13.6468 169.704 13.6468C165.868 13.6468 162.101 13.7631 158.335 14.0188C131.726 15.8091 107.848 24.8998 91.1231 39.6171C79.3395 50.0099 76.817 61.1467 74.3635 71.9114C73.9834 73.6087 73.5687 75.3524 73.154 77.0729C70.1822 89.0002 60.9557 97.7655 50.2434 107.926C47.8936 110.158 45.4747 112.459 43.0212 114.877C33.4146 124.34 27.0217 135.57 24.4646 147.335C21.942 158.89 23.2552 170.375 28.2658 180.559Z" fill="url(#paint16_linear_10286_76455)"/>
<path d="M-46.968 76.2373C-43.6507 69.0298 -39.8149 61.9153 -35.4263 54.917C-21.6039 32.8992 -2.90914 12.7182 20.3125 -5.25409H18.4811C-4.46414 12.6484 -22.9516 32.7132 -36.7049 54.5683C-40.5406 60.683 -43.9617 66.8908 -47.0026 73.1451V76.2373H-46.968Z" fill="url(#paint17_linear_10286_76455)"/>
<path d="M-46.9762 58.7061C-45.8013 56.6833 -44.5919 54.6838 -43.3479 52.6843C-30.1129 31.643 -12.5584 12.2292 9.03906 -5.23156H7.69137C-13.6988 12.1827 -31.1496 31.5035 -44.2808 52.4285C-45.2139 53.8933 -46.0778 55.358 -46.9417 56.8228V58.7061H-46.9762Z" fill="url(#paint18_linear_10286_76455)"/>
</g>
</g>
</g>
<defs>
<linearGradient id="paint0_linear_10286_76455" x1="164" y1="0" x2="164" y2="186" gradientUnits="userSpaceOnUse">
<stop stop-color="#1C65F4"/>
<stop offset="1" stop-color="#103B8E"/>
</linearGradient>
<linearGradient id="paint1_linear_10286_76455" x1="-7.83165" y1="-5.25595" x2="-7.83165" y2="98.5322" gradientUnits="userSpaceOnUse">
<stop stop-color="#D7F0FF" stop-opacity="0.5"/>
<stop offset="1" stop-color="#55AAFF" stop-opacity="0.2"/>
</linearGradient>
<linearGradient id="paint2_linear_10286_76455" x1="-1.83944" y1="-5.23224" x2="-1.83944" y2="190.766" gradientUnits="userSpaceOnUse">
<stop stop-color="#D7F0FF" stop-opacity="0.5"/>
<stop offset="1" stop-color="#55AAFF" stop-opacity="0.2"/>
</linearGradient>
<linearGradient id="paint3_linear_10286_76455" x1="6.98328" y1="-5.23224" x2="6.98328" y2="190.766" gradientUnits="userSpaceOnUse">
<stop stop-color="#D7F0FF" stop-opacity="0.5"/>
<stop offset="1" stop-color="#55AAFF" stop-opacity="0.2"/>
</linearGradient>
<linearGradient id="paint4_linear_10286_76455" x1="15.6993" y1="-5.23143" x2="15.6993" y2="190.743" gradientUnits="userSpaceOnUse">
<stop stop-color="#D7F0FF" stop-opacity="0.5"/>
<stop offset="1" stop-color="#55AAFF" stop-opacity="0.2"/>
</linearGradient>
<linearGradient id="paint5_linear_10286_76455" x1="24.0504" y1="-5.23224" x2="24.0504" y2="190.766" gradientUnits="userSpaceOnUse">
<stop stop-color="#D7F0FF" stop-opacity="0.5"/>
<stop offset="1" stop-color="#55AAFF" stop-opacity="0.2"/>
</linearGradient>
<linearGradient id="paint6_linear_10286_76455" x1="32.1994" y1="-5.23224" x2="32.1994" y2="190.766" gradientUnits="userSpaceOnUse">
<stop stop-color="#D7F0FF" stop-opacity="0.5"/>
<stop offset="1" stop-color="#55AAFF" stop-opacity="0.2"/>
</linearGradient>
<linearGradient id="paint7_linear_10286_76455" x1="40.4067" y1="-5.2547" x2="40.4067" y2="190.743" gradientUnits="userSpaceOnUse">
<stop stop-color="#D7F0FF" stop-opacity="0.5"/>
<stop offset="1" stop-color="#55AAFF" stop-opacity="0.2"/>
</linearGradient>
<linearGradient id="paint8_linear_10286_76455" x1="49.0471" y1="-5.30124" x2="49.0471" y2="190.743" gradientUnits="userSpaceOnUse">
<stop stop-color="#D7F0FF" stop-opacity="0.5"/>
<stop offset="1" stop-color="#55AAFF" stop-opacity="0.2"/>
</linearGradient>
<linearGradient id="paint9_linear_10286_76455" x1="58.2997" y1="-5.25551" x2="58.2997" y2="190.766" gradientUnits="userSpaceOnUse">
<stop stop-color="#D7F0FF" stop-opacity="0.5"/>
<stop offset="1" stop-color="#55AAFF" stop-opacity="0.2"/>
</linearGradient>
<linearGradient id="paint10_linear_10286_76455" x1="349.101" y1="-5.23224" x2="349.101" y2="2.90527" gradientUnits="userSpaceOnUse">
<stop stop-color="#D7F0FF" stop-opacity="0.5"/>
<stop offset="1" stop-color="#55AAFF" stop-opacity="0.2"/>
</linearGradient>
<linearGradient id="paint11_linear_10286_76455" x1="69.8268" y1="-5.23109" x2="69.8268" y2="190.79" gradientUnits="userSpaceOnUse">
<stop stop-color="#D7F0FF" stop-opacity="0.5"/>
<stop offset="1" stop-color="#55AAFF" stop-opacity="0.2"/>
</linearGradient>
<linearGradient id="paint12_linear_10286_76455" x1="312.351" y1="-5.25437" x2="312.351" y2="11.1602" gradientUnits="userSpaceOnUse">
<stop stop-color="#D7F0FF" stop-opacity="0.5"/>
<stop offset="1" stop-color="#55AAFF" stop-opacity="0.2"/>
</linearGradient>
<linearGradient id="paint13_linear_10286_76455" x1="192.927" y1="-5.23109" x2="192.927" y2="190.79" gradientUnits="userSpaceOnUse">
<stop stop-color="#D7F0FF" stop-opacity="0.5"/>
<stop offset="1" stop-color="#55AAFF" stop-opacity="0.2"/>
</linearGradient>
<linearGradient id="paint14_linear_10286_76455" x1="195.55" y1="0.510513" x2="195.55" y2="190.766" gradientUnits="userSpaceOnUse">
<stop stop-color="#D7F0FF" stop-opacity="0.5"/>
<stop offset="1" stop-color="#55AAFF" stop-opacity="0.2"/>
</linearGradient>
<linearGradient id="paint15_linear_10286_76455" x1="198.255" y1="7.16083" x2="198.255" y2="190.743" gradientUnits="userSpaceOnUse">
<stop stop-color="#D7F0FF" stop-opacity="0.5"/>
<stop offset="1" stop-color="#55AAFF" stop-opacity="0.2"/>
</linearGradient>
<linearGradient id="paint16_linear_10286_76455" x1="200.819" y1="13.6468" x2="200.819" y2="190.766" gradientUnits="userSpaceOnUse">
<stop stop-color="#D7F0FF" stop-opacity="0.5"/>
<stop offset="1" stop-color="#55AAFF" stop-opacity="0.2"/>
</linearGradient>
<linearGradient id="paint17_linear_10286_76455" x1="-13.345" y1="-5.25409" x2="-13.345" y2="76.2373" gradientUnits="userSpaceOnUse">
<stop stop-color="#D7F0FF" stop-opacity="0.5"/>
<stop offset="1" stop-color="#55AAFF" stop-opacity="0.2"/>
</linearGradient>
<linearGradient id="paint18_linear_10286_76455" x1="-18.9686" y1="-5.23156" x2="-18.9686" y2="58.7061" gradientUnits="userSpaceOnUse">
<stop stop-color="#D7F0FF" stop-opacity="0.5"/>
<stop offset="1" stop-color="#55AAFF" stop-opacity="0.2"/>
</linearGradient>
<clipPath id="clip0_10286_76455">
<rect width="328" height="186" rx="6" fill="white"/>
</clipPath>
</defs>
</svg>
