<svg width="20" height="20" viewBox="0 0 20 20" fill="none" xmlns="http://www.w3.org/2000/svg">
<path d="M5.81178 11.5982C6.37393 11.5982 6.9173 11.5573 7.43148 11.4813V5.13932C6.91735 5.06332 6.37393 5.02246 5.81178 5.02246C2.60203 5.02246 0 6.35044 0 7.98865V8.63193C0 10.2701 2.60203 11.5982 5.81178 11.5982Z" fill="#F7BE4B"/>
<path d="M5.81178 14.9113C6.37393 14.9113 6.9173 14.8705 7.43148 14.7945V12.9356C6.9172 13.0116 6.37408 13.053 5.81178 13.053C3.01002 13.053 0.671527 12.0411 0.122232 10.6943C0.0422382 10.8905 0 11.0936 0 11.3019V11.9451C0 13.5834 2.60203 14.9113 5.81178 14.9113Z" fill="#F7BE4B"/>
<path d="M7.43148 16.3906V16.2461C6.9172 16.3221 6.37408 16.3636 5.81178 16.3636C3.01002 16.3636 0.671527 15.3516 0.122232 14.0049C0.0422382 14.201 0 14.4041 0 14.6123V15.2556C0 16.8939 2.60203 18.2219 5.81178 18.2219C6.45367 18.2219 7.07106 18.1686 7.6484 18.0705C7.5053 17.7411 7.43148 17.3937 7.43148 17.0339V16.3906Z" fill="#F7BE4B"/>
<path d="M14.1868 0C10.977 0 8.375 1.32798 8.375 2.96619V3.60947C8.375 5.24769 10.977 6.57567 14.1868 6.57567C17.3965 6.57567 19.9986 5.24769 19.9986 3.60947V2.96619C19.9986 1.32798 17.3965 0 14.1868 0Z" fill="#F7BE4B"/>
<path d="M14.1868 8.02957C11.385 8.02957 9.04653 7.01771 8.49723 5.6709C8.41724 5.86702 8.375 6.07014 8.375 6.27842V6.9217C8.375 8.55991 10.977 9.88789 14.1868 9.88789C17.3965 9.88789 19.9986 8.55991 19.9986 6.9217V6.27842C19.9986 6.07014 19.9563 5.86702 19.8763 5.6709C19.327 7.01771 16.9886 8.02957 14.1868 8.02957Z" fill="#F7BE4B"/>
<path d="M14.1868 11.3401C11.385 11.3401 9.04653 10.3282 8.49723 8.98145C8.41724 9.17756 8.375 9.38069 8.375 9.58896V10.2322C8.375 11.8705 10.977 13.1985 14.1868 13.1985C17.3965 13.1985 19.9986 11.8705 19.9986 10.2322V9.58896C19.9986 9.38069 19.9563 9.17756 19.8763 8.98145C19.327 10.3283 16.9886 11.3401 14.1868 11.3401Z" fill="#F7BE4B"/>
<path d="M14.1868 14.8313C11.385 14.8313 9.04653 13.8194 8.49723 12.4727C8.41724 12.6688 8.375 12.8719 8.375 13.0801V13.7235C8.375 15.3617 10.977 16.6897 14.1868 16.6897C17.3965 16.6897 19.9986 15.3617 19.9986 13.7235V13.0801C19.9986 12.8719 19.9563 12.6687 19.8763 12.4727C19.327 13.8194 16.9886 14.8313 14.1868 14.8313Z" fill="#F7BE4B"/>
<path d="M14.1868 18.1419C11.385 18.1419 9.04653 17.13 8.49723 15.7833C8.41724 15.9794 8.375 16.1826 8.375 16.3907V17.034C8.375 18.6722 10.977 20.0002 14.1868 20.0002C17.3965 20.0002 19.9986 18.6722 19.9986 17.034V16.3907C19.9986 16.1824 19.9563 15.9793 19.8763 15.7832C19.327 17.13 16.9886 18.1419 14.1868 18.1419Z" fill="#F7BE4B"/>
</svg>
