<svg width="95" height="51" viewBox="0 0 95 51" fill="none" xmlns="http://www.w3.org/2000/svg">
<g clip-path="url(#clip0_6093_26414)">
<path d="M88.9996 6.4176L88.9465 6.20007C88.9312 6.31575 88.9538 6.38158 88.9996 6.4176Z" fill="#00AB55"/>
<path d="M58.674 37.3738C58.6616 37.2506 58.6008 37.1052 58.5785 36.9822C58.4931 36.5333 58.4188 36.1431 58.3564 35.806L51.9347 37.3731C52.0115 37.6474 52.0611 37.891 51.7908 37.8154C51.7486 37.6902 51.7172 37.5617 51.697 37.4311L51.3098 37.5256C51.3454 38.0273 51.3401 38.551 51.9299 38.7144C51.7208 39.0563 51.9305 39.5824 51.1822 39.6751C51.1917 39.6914 51.1971 39.7044 51.205 39.7189L52.5388 39.3934C52.3817 38.7183 52.8209 38.846 52.9284 38.9756C53.0688 39.1455 53.3564 38.8459 53.4179 39.1789L58.7445 37.879C58.6923 37.7857 58.6456 37.6893 58.6048 37.5904C58.6177 37.6477 58.6808 37.4556 58.674 37.3738ZM54.5306 37.97C54.4419 37.6338 54.4995 37.4508 54.6202 37.3324C54.6784 37.6387 54.7962 37.9996 54.5264 37.971L54.5306 37.97Z" fill="#00AB55"/>
<path d="M52.1761 39.3712C52.1136 39.1153 51.925 39.2437 51.8495 39.0426C51.9841 39.0262 51.9461 38.8346 51.8788 38.6129C51.7022 38.5561 51.7356 38.3954 51.4031 38.0649C51.323 37.989 51.1868 38.1385 51.1258 37.9427C51.0785 37.7984 50.8442 37.816 50.8105 37.6509L46.8923 38.607C46.872 38.7535 46.8547 38.9037 46.6552 38.8657C46.6509 38.8005 46.6399 38.7359 46.6224 38.6729L41.7971 39.8504C41.8865 40.2753 42.0575 40.9173 41.9632 41.2477C41.725 41.0555 41.6583 40.309 41.4784 39.9281L29.318 42.8956C29.3154 42.9653 29.3065 43.0347 29.2916 43.1029C29.534 43.1316 29.8078 43.0549 29.8987 43.576C29.671 43.783 29.8246 44.3766 29.5101 44.494C29.2804 44.2735 29.0748 43.4313 29.1775 43.1307C29.0831 43.0985 28.9941 43.0526 28.9132 42.9944L26.2364 43.6476L26.3302 44.0319L26.0987 44.0884L26.0047 43.703L25.1858 43.9029C25.2073 44.1171 25.1793 44.2776 25.0567 44.3427C25.0348 44.2097 24.9858 44.0827 24.9128 43.9695L22.976 44.4421C22.967 44.4506 22.956 44.4565 22.944 44.4595C22.932 44.4624 22.9194 44.4622 22.9075 44.4588L18.024 45.6505C18.0219 45.7817 18.0423 45.8469 18.1741 45.8148C18.4408 45.7497 18.383 46.486 18.5285 46.7578C18.2423 47.0856 18.1893 46.2194 18.0599 45.8426C18.0564 45.8281 17.9542 45.8871 17.9437 45.871C17.9131 45.8125 17.8876 45.7516 17.8673 45.6888L14.9912 46.3906C15.1467 46.9701 15.3326 47.5409 15.5482 48.1008C15.5467 48.0946 15.4191 48.1576 15.4808 48.3247C15.5047 48.3913 15.5846 48.2994 15.6213 48.4002L16.1257 48.2771C16.1011 48.2477 16.0787 48.2165 16.0589 48.1836C16.203 48.0848 16.2125 47.8531 16.474 47.8749C16.5075 47.974 16.5285 48.0769 16.5367 48.1812L17.7262 47.8909C17.6688 47.5296 17.6143 47.162 17.559 46.7869C17.9408 46.7201 18.0666 47.303 18.1061 47.7982L25.6944 45.9465L25.6691 45.8429L25.8995 45.7867L25.9248 45.8903L44.4 41.3818C44.2838 41.3564 44.1491 41.2235 44.0897 40.9351C44.1997 40.9127 44.314 40.9273 44.4147 40.9766C44.5154 41.0259 44.597 41.107 44.6467 41.2075C44.6322 41.2594 44.6014 41.3054 44.5588 41.3387L46.3482 40.902C46.3434 40.5037 46.4408 40.2088 46.3772 39.7501C46.5707 39.8127 46.9182 39.38 47.0031 39.8048C46.8138 39.8445 47.0335 40.1772 47.0287 40.4143C47.0271 40.5475 46.8877 40.598 46.8838 40.7713L51.0064 39.7653C50.8448 39.4546 50.6589 39.4813 50.7065 38.9011C51.0535 38.9712 51.3744 39.1234 51.5887 39.6232L52.1834 39.478C52.1931 39.4426 52.1905 39.4049 52.1761 39.3712ZM29.0191 43.9915L28.5562 44.1044L28.4621 43.7191L28.9251 43.6061L29.0191 43.9915ZM39.7956 42.3923C39.4252 42.677 39.4471 41.6674 39.2805 41.2866C39.6486 41.0014 39.621 42.0102 39.7956 42.3923ZM41.7199 41.7153C41.4763 41.8121 41.3143 41.6442 41.2304 41.219C41.465 41.1212 41.6264 41.287 41.7088 41.7147L41.7199 41.7153ZM50.1235 39.4638C50.1712 39.6596 49.9743 39.7537 49.891 39.5205C50.09 39.3808 50.081 39.0285 50.3766 38.9871C50.5141 39.5188 50.3492 39.6995 50.1123 39.4632L50.1235 39.4638Z" fill="#00AB55"/>
<path d="M51.102 10.3098C50.8732 9.68298 50.9693 9.39173 50.8897 8.92162L39.3095 11.7475C39.167 11.9612 38.9938 11.9859 38.8476 11.8602L23.5029 15.6047C23.4914 15.6944 23.449 15.7773 23.383 15.8392C23.3528 15.7742 23.3208 15.715 23.288 15.6572L20.4347 16.3535C20.5238 16.5381 20.5877 16.8002 20.7003 16.9055C20.4464 16.906 20.1909 16.9091 20.0818 16.4396L5.40445 20.0213C5.41936 20.0824 5.43504 20.1466 5.44134 20.2175C5.62882 20.1926 5.83695 20.0946 5.88488 20.5209L5.30468 20.6624C5.24564 19.9338 4.75766 20.5885 4.58474 20.2224C4.52766 20.7456 4.73035 21.5402 4.33801 21.7215C4.24499 21.3403 4.12155 20.6768 3.98041 20.3688L0.000976562 21.3398L0.675156 24.1026C0.975854 24.2487 1.10859 23.8958 1.24348 24.1241C1.17645 24.3677 0.894541 24.4968 0.716613 24.2725L1.99823 29.5244C2.0014 29.5105 2.00924 29.498 2.02045 29.4891C2.03167 29.4801 2.04561 29.4753 2.05994 29.4753C2.15815 29.7291 2.31598 29.808 2.36449 30.2231C2.3017 30.3218 2.23771 30.321 2.17973 30.2682L2.49647 31.5662L4.46854 31.0849L2.47331 22.9086L2.65703 22.8638C2.64953 22.7339 2.69352 22.6573 2.85802 22.705C2.86686 22.7413 2.8752 22.7754 2.88329 22.8086L3.71364 22.606C3.69525 22.5747 3.68017 22.5416 3.66864 22.5072C3.65709 22.2906 3.68744 22.0738 3.75803 21.8685C3.81277 22.1044 3.82384 22.3483 3.7907 22.5883L6.24437 21.9895C6.05903 21.7483 5.96413 21.3774 6.18783 21.2756C6.23781 21.7913 6.52094 21.5455 6.62218 21.8973L6.71767 21.874C6.6844 21.5078 6.90012 21.5672 7.07886 21.7859L7.65284 21.6458C7.66305 21.629 7.67371 21.6231 7.69229 21.6362L7.82722 21.6032C7.80943 21.4177 7.7377 21.1147 7.74089 21.1008C7.76824 20.992 8.04371 21.1114 8.08756 21.0162C8.15325 21.1734 8.19596 21.3393 8.21436 21.5088L44.0707 12.7588C43.8946 12.3299 44.4187 12.202 44.46 12.6639L51.5055 10.9446C51.4278 10.5453 51.3013 10.3062 51.102 10.3098ZM1.99132 25.1742C2.18731 25.1121 2.32507 25.253 2.43382 25.4778C2.23577 25.536 2.09953 25.4013 1.99132 25.1742ZM1.40599 24.2853C1.73735 24.3318 1.80271 24.1084 1.61189 23.6193L1.95959 23.5345C2.10413 24.1358 1.75412 25.0675 1.40599 24.2853ZM4.38586 30.9624C4.08914 31.0985 3.98835 30.6314 3.84829 30.2737C4.18688 29.9847 4.29364 30.4493 4.38586 30.9624ZM9.8721 20.7805C9.94072 19.98 9.54405 20.4456 9.42419 19.4497C9.81627 19.2267 9.97869 19.7436 10.1245 20.3095C9.97057 20.3953 10.0082 20.6759 9.8721 20.7805ZM22.6734 17.4513C22.3954 17.6641 22.3524 17.1049 22.1852 16.9558C22.4288 16.8591 22.592 17.0234 22.6734 17.4513ZM23.9268 17.5582L23.4638 17.6711C23.234 17.4188 23.2092 16.5556 23.5259 16.4245C23.7878 16.3847 23.7769 17.2325 23.9268 17.5582Z" fill="#00AB55"/>
<path d="M45.8882 12.3054L54.366 10.2366L53.8668 8.19072L45.252 10.293L45.4423 11.073C45.6293 11.3885 45.8852 11.4863 45.9571 12.1777C45.9418 12.224 45.9185 12.2672 45.8882 12.3054Z" fill="#00AB55"/>
<path d="M91.8195 25.1654C91.9336 25.2901 92.0145 25.4054 92.1019 25.0965L92.2912 25.8724C92.0304 25.7319 91.9346 25.8848 91.8089 26.0548L91.8411 26.047L91.9316 26.4178C91.8849 26.4166 91.8386 26.4279 91.7977 26.4505L92.0707 27.5693L91.5102 27.706C91.3595 27.7779 91.3262 27.9705 91.4062 28.2802C91.7425 28.1125 92.3664 28.0733 92.1952 28.4938C91.9662 28.4263 91.7235 28.4197 91.491 28.4746C91.5982 28.5846 91.7621 28.5128 91.7967 28.8709C91.6903 29.2327 91.4463 28.9356 91.2723 28.5247C91.2526 28.5295 91.235 28.5338 91.2142 28.5389C91.205 28.5187 91.2016 28.4964 91.2044 28.4744C91.2072 28.4524 91.216 28.4316 91.23 28.4143C91.1563 28.2214 91.1099 28.0192 91.0922 27.8135L89.0703 28.3069C89.3092 28.4341 89.6959 28.3738 89.9679 28.4567C89.4534 29.1376 90.3361 29.3975 90.5563 29.8673C90.0318 30.0567 89.6561 30.054 89.3483 29.9689C89.3356 29.7459 89.7354 29.7076 90.0041 29.6146C89.516 29.3539 88.701 29.5111 87.8204 29.7556C87.5749 29.011 87.9196 28.9499 88.6198 28.9755C88.6131 28.6775 88.4016 28.6402 88.2669 28.503L56.8415 36.1716L57.3417 38.2217L57.87 38.0927C57.8673 38.077 57.8635 38.0614 57.8587 38.0461C57.989 37.9885 58.1334 37.9705 58.2738 37.9942L63.6576 36.6804C63.5749 36.3011 63.359 36.3582 63.3202 35.8254C63.602 35.7226 63.7566 36.0362 63.9247 36.2926C63.8103 36.36 63.8025 36.5309 63.7499 36.6579L68.5504 35.4865C68.5969 35.4413 68.6321 35.3859 68.6533 35.3247C68.6744 35.2635 68.6809 35.1982 68.6722 35.134C68.5417 34.5227 69.0139 34.38 69.3392 34.3566C69.3129 34.0865 69.415 33.9463 69.2679 33.5508C69.5576 33.4176 69.6641 33.8855 69.8031 34.2434C69.5067 34.4573 69.4065 34.8714 69.3215 35.2983L80.3444 32.6084C80.309 32.4688 80.2928 32.3251 80.2962 32.1811C80.554 31.9755 80.7266 32.2594 80.8067 32.2497C81.0917 32.2186 80.9002 32.0513 80.9927 32.0112C81.1675 31.9389 81.3024 32.1222 81.2665 32.1375C81.5423 32.0011 81.5594 31.6885 81.8779 31.6009C82.2947 31.4794 82.6339 31.7292 83.3187 31.4436C83.2182 31.681 83.2049 31.8203 83.2547 31.8982L88.1891 30.6941C88.2096 30.598 88.1624 30.4811 87.9613 30.3106C88.3507 30.3155 88.4422 30.4468 88.462 30.6275L93.4545 29.4092C93.4332 29.0688 93.5019 28.7288 93.6538 28.4232C93.7344 28.7537 93.8146 29.082 93.8084 29.3228L94.5506 29.1417L93.4813 24.7599L91.8195 25.1654ZM60.6122 36.2788L60.4732 36.3127C60.3627 36.5318 60.1262 36.6937 59.773 36.8008L59.593 36.0633C60.0142 35.9868 60.0301 35.7184 60.4834 35.6561C60.4976 35.7034 60.5094 35.7515 60.5185 35.8001C60.5324 35.7352 60.5807 35.7125 60.6344 35.8651C60.5532 35.9288 60.5384 36.0619 60.6122 36.2788ZM61.0077 36.3897L60.7794 36.4455L60.6853 36.0601L60.9178 36.0034L61.0077 36.3897ZM62.3699 35.4416L62.0232 35.5262C61.7142 34.999 62.4013 34.8314 62.3699 35.4416ZM67.6183 35.6645C66.7099 36.0201 66.8576 35.0303 66.0431 35.2707L65.8631 34.5332C66.1431 34.5 66.1425 34.8217 66.2283 35.0291C67.1142 34.8875 67.3716 33.9686 67.9977 34.2087C68.2559 34.8701 67.1741 34.9212 67.6183 35.6645ZM82.9936 31.1344L82.8136 30.3968L83.51 30.2268C84.1411 30.3341 83.2311 30.8865 83.9246 30.9072C83.9812 31.3916 83.4599 30.756 82.9936 31.1344ZM84.3875 30.7942C84.2266 30.5042 84.4842 30.4018 84.7638 30.3127C85.1675 30.5204 86.2686 29.5888 86.5219 30.4687C85.6167 30.8246 85.1516 30.6132 84.3875 30.7942ZM92.2968 26.9049L92.2015 26.5144C92.1805 26.3966 92.1625 26.2825 92.2708 26.2934C92.3329 26.5482 92.5166 26.4221 92.597 26.6253C92.4514 26.673 92.4965 26.9122 92.2968 26.9049ZM93.2286 27.7038C93.0764 27.1614 93.4342 27.1356 93.5032 26.8147C93.8973 27.2893 93.6734 28.0167 93.2296 27.7079L93.2286 27.7038Z" fill="#00AB55"/>
<path d="M91.5172 25.2996L91.5496 25.4322L93.5217 24.9509L92.7944 21.9707C92.6062 21.9343 92.4628 21.842 92.4647 21.5616C92.5436 21.5424 92.6121 21.5256 92.6817 21.5087L92.216 19.6006C92.0633 19.5448 91.8959 19.543 91.7419 19.5955C91.6198 19.262 91.7805 19.0505 92.0365 18.8651L91.8735 18.1969C91.3717 18.3578 91.4973 17.7235 91.0558 17.8115C91.1247 17.5258 91.4821 17.5351 91.7431 17.6624L91.2479 15.6331C91.0433 15.6962 90.7561 15.7224 90.5629 15.7915C90.5483 15.5108 90.7672 15.3399 91.1533 15.2457L89.1973 7.22996C88.6402 7.43943 88.7833 6.75475 88.3654 6.78648C87.8986 6.95089 88.5024 7.60916 88.1298 7.81752C87.6925 7.8957 87.836 7.23068 87.483 7.19498C87.3581 7.21425 87.2374 7.25521 87.1265 7.316L88.2749 12.022C88.3302 11.9809 88.3885 11.944 88.4492 11.9115C88.386 11.8731 88.3378 11.7883 88.3169 11.6079C88.97 11.9183 89.2467 10.8169 89.7082 11.4012C89.7926 11.3621 89.8743 11.3173 89.9525 11.2669C90.0554 11.4405 89.8616 11.7282 89.7472 11.9756C89.811 12.1067 89.8535 12.2471 89.8729 12.3916C89.9895 12.3982 90.1065 12.3903 90.2213 12.3681C90.2071 12.4813 89.925 12.5918 89.574 12.6358C89.5243 12.8828 89.8611 13.3121 89.6014 13.3568C89.4124 12.9518 89.109 12.9161 88.8854 12.6172C88.693 12.588 88.5124 12.5068 88.3629 12.3825L89.0826 15.3317L89.2175 15.2988L89.3599 15.882L89.2249 15.9149L91.0955 23.5805C91.5604 23.3076 92.1029 23.1968 92.6375 23.2657C92.8278 23.6264 92.5991 23.7931 92.5804 24.0589C92.2384 24.2258 92.5273 24.6843 91.7437 24.6549C91.5456 24.2939 91.7881 24.1249 91.798 23.8635C91.5796 23.8883 91.379 23.9962 91.2381 24.1648L91.4292 24.9479C91.5834 24.9487 91.7046 24.9904 91.6475 25.2612L91.5172 25.2996ZM88.4735 11.2448C87.9742 11.3666 88.0197 10.4083 88.618 10.8232C88.6083 10.9814 88.4282 11.0594 88.4735 11.2448ZM88.856 9.78828C88.3612 9.94194 88.5932 9.16203 88.4029 8.92749C88.6383 8.99078 88.8729 9.05097 88.8627 8.81529C89.7022 8.90239 88.4944 9.3837 88.8555 9.78621L88.856 9.78828ZM88.5878 8.6892C87.6758 8.55724 88.8788 8.07926 88.5935 7.71206C89.3515 7.76745 88.604 8.45366 88.5878 8.6892ZM90.7007 16.3472C91.2583 16.2617 91.038 17.121 90.9257 17.2692C90.2082 17.2763 90.9191 16.643 90.7007 16.3472ZM91.1378 20.1348C90.3249 20.1433 91.307 19.7104 91.2324 19.5267C91.9295 19.463 90.9441 19.9 91.1378 20.1348Z" fill="#00AB55"/>
<path d="M14.6483 46.884C14.5176 46.7721 14.3795 46.684 14.2431 46.5757L12.9706 46.8862C13.1094 46.9774 13.1811 47.298 13.2388 47.6428C12.9403 47.7716 12.793 47.4651 12.7028 46.9515L11.0805 47.3474L11.1268 47.537L10.8964 47.5932L10.8501 47.4036L8.58741 47.9558L8.2009 46.3719C8.13226 46.325 8.07764 46.2319 8.06002 46.0199C8.06904 45.9892 8.08005 45.959 8.09296 45.9296L7.96024 45.3857C7.92186 45.3445 7.89149 45.2964 7.87068 45.2441C7.88891 45.2394 7.90559 45.23 7.91904 45.2169L5.36465 34.7492L4.84568 34.8759C5.05059 35.2649 5.23632 35.697 5.47752 35.9554C5.18871 36.196 5.11004 35.7564 4.85134 35.904C4.83098 35.5457 4.71487 35.0834 4.84568 34.8759L3.39258 35.2305L5.37997 43.3746C5.41771 43.3477 5.44954 43.3134 5.47353 43.2737C5.49751 43.2341 5.51315 43.19 5.51947 43.1441C5.11741 42.1995 5.92071 42.481 5.65125 41.6741C5.93223 41.5683 6.08578 41.882 6.25702 42.1421C6.05546 42.1814 5.99502 42.3618 6.00385 42.6143C6.23268 42.6057 6.20635 42.3355 6.41924 42.3066C6.62261 42.9057 6.23425 42.9006 6.3094 43.3662C6.79495 43.1973 6.40449 43.7063 6.40319 43.7506C6.37012 44.6696 6.86778 44.4691 7.0823 45.0238C6.67018 45.5162 6.18657 44.3906 5.58473 44.2137L7.11357 50.4788L8.62065 50.111C8.57501 49.9469 8.5178 49.7863 8.44946 49.6303C8.44365 49.6065 8.34845 49.6671 8.33425 49.6584C8.32006 49.6498 8.10207 49.1125 8.07704 49.0956C8.08811 49.0644 8.25463 49.0347 8.14467 48.8815C8.42434 48.7793 8.57553 49.0969 8.81787 49.1255L9.03375 50.0102L9.86409 49.8076C9.856 49.7744 9.8347 49.7412 9.81805 49.709C9.674 49.7091 9.49611 49.8183 9.42257 49.5981C9.62239 49.4615 9.61208 49.1128 9.9077 49.0714C9.9802 49.2919 10.0207 49.6245 10.1647 49.6244C10.5178 49.8138 10.2253 48.6515 10.5809 49.3154C10.5218 49.3508 10.4765 49.405 10.4522 49.4693C10.428 49.5336 10.4263 49.6043 10.4474 49.6696L12.627 49.1377C12.4367 48.3577 13.1085 48.4967 13.3121 48.9706L14.9987 48.559C14.8059 48.021 14.727 47.4772 14.6483 46.884ZM5.74246 41.034C5.50524 40.4629 5.35956 40.4743 5.0703 40.7897C4.78855 40.212 5.13513 40.2712 5.11113 39.9565C5.07137 39.7215 5.21103 39.4646 4.96957 39.3764C5.16911 39.9237 4.4453 39.1839 4.80555 39.209C4.94732 39.5421 4.90988 39.0958 4.99027 38.9565C5.20316 39.225 5.54506 39.6256 5.3914 40.0956C5.70867 39.9896 6.11272 40.8207 5.73755 41.0319L5.74246 41.034ZM4.88798 36.5229C4.67533 36.0436 4.13084 36.6605 4.00119 35.9128C4.15968 35.3725 4.35892 35.8826 4.51291 35.9954C4.63006 36.0744 5.22399 36.2323 4.88181 36.5156L4.88798 36.5229ZM7.04427 45.8639C7.29954 45.7698 7.87945 46.3571 7.69653 46.5268C7.45269 45.9783 7.74928 47.1396 7.28139 46.8356L7.04427 45.8639ZM6.82412 47.9767C6.95276 47.9135 7.0028 47.5687 7.17079 47.8921C7.03494 47.9483 6.98698 48.2926 6.81795 47.9694L6.82412 47.9767ZM7.59749 49.6407C7.41118 49.0484 7.63777 48.643 7.26559 48.2806C7.42237 48.2335 7.54162 48.3076 7.66031 48.3884C7.69458 47.6545 7.46697 47.9296 7.25993 47.2524C7.39737 46.8512 7.95957 47.0279 8.09663 47.6662C7.24084 47.7916 8.52215 49.437 7.59132 49.6334L7.59749 49.6407ZM6.85782 42.6167C7.05356 42.5535 7.19185 42.6921 7.3006 42.9169C7.10513 42.9767 6.96788 42.8379 6.85782 42.6167ZM11.5251 48.6734L11.2926 48.7302L11.197 48.3386L11.4295 48.2819L11.5251 48.6734Z" fill="#00AB55"/>
<path d="M88.3431 3.72501L87.4331 -0.00419948L81.4131 1.46484L81.9123 3.51073L85.9603 2.52292L86.9522 6.58775C87.0665 6.52648 87.199 6.50816 87.3256 6.53614C87.2151 6.80896 87.1153 7.02648 87.1097 7.23311L87.2002 7.60397C87.2577 7.7054 87.3282 7.79889 87.4099 7.88206C87.3601 7.89422 87.3186 7.90435 87.276 7.91474L87.957 10.7054L89.9291 10.2242L89.2971 7.63445C89.2229 7.64227 89.1493 7.65581 89.0772 7.67496C89.0974 7.5592 89.1511 7.45185 89.2317 7.36616L89.0939 6.80159C88.9133 6.75566 88.7461 6.69221 88.3879 6.874C88.1637 6.92871 88.2664 7.13744 88.2465 7.29485C87.9217 7.31593 87.9441 6.88023 87.8374 6.61431C87.9688 6.47247 88.6541 6.35574 88.7187 6.20606C88.7734 6.08297 88.494 5.75823 88.5847 5.65705C88.6395 5.59641 88.7055 5.5468 88.7789 5.51088L88.6682 5.05716C88.5935 5.0754 88.5187 5.09364 88.4495 5.10285C88.4806 4.99121 88.5331 4.88666 88.6042 4.79508L88.5001 4.36829C88.4236 4.37494 88.3467 4.37497 88.2703 4.36839C87.9735 4.1258 88.1297 3.92746 88.3431 3.72501ZM85.8568 2.02682C85.7759 1.69534 85.825 1.50885 85.9477 1.38999C86.0114 1.70044 86.1279 2.06055 85.8573 2.02889L85.8568 2.02682ZM88.9363 8.0935C88.254 8.4795 88.2988 7.94175 87.9116 7.95061C87.8973 7.54472 89.0069 7.64822 88.942 8.0943L88.9363 8.0935Z" fill="#00AB55"/>
<path d="M83.2336 1.0251L58.0585 7.16849C58.2864 7.74179 58.1128 7.90488 58.2261 8.36016L57.9957 8.41639C57.9586 8.30032 57.9222 8.19176 57.8325 8.25208C57.7057 7.87691 57.8952 7.82848 57.9219 7.60903C57.888 7.43401 57.8615 7.26265 57.9376 7.1958L57.0647 7.40881C57.0956 7.47218 57.1337 7.53175 57.1784 7.58631L56.949 7.64229C56.8755 7.63828 56.82 7.56402 56.7751 7.47947L52.8652 8.43359L53.3645 10.4795L83.7271 3.07018L83.2336 1.0251ZM56.8431 8.69986C56.7856 8.35168 56.4892 7.75449 56.8855 7.86413C57.0248 8.2999 57.0367 8.60542 56.8431 8.69986ZM70.7611 5.91813C70.6133 5.47896 70.5967 5.17237 70.6407 4.92456C70.8357 4.86271 70.9716 5.00077 71.0814 5.22532C70.877 5.36083 71.1734 5.99863 70.7611 5.91813ZM80.782 3.26861C80.9112 3.20746 80.9586 2.86112 81.1277 3.18426C81.0016 3.24465 80.9529 3.59461 80.7841 3.2681L80.782 3.26861Z" fill="#00AB55"/>
<path d="M2.957 32.1753C2.79474 32.3126 3.08524 32.6017 2.76438 32.6613L3.39128 35.2303L5.36335 34.7491L4.49681 31.1981C4.23337 31.2722 3.99964 31.3194 4.06863 31.0523C4.18906 31.0107 4.31312 30.9804 4.43917 30.9619L4.34463 30.5745C3.8607 30.6058 3.35475 30.5965 3.20193 31.1826C2.86924 30.9729 2.36353 31.1764 2.26729 30.4305C2.25394 30.4392 2.24004 30.447 2.22569 30.4538L2.55052 31.785C3.20279 31.6368 3.08251 32.0722 2.957 32.1753ZM3.93935 33.7718C4.26375 33.6861 4.44087 33.7449 4.55491 33.8653C4.26277 33.93 3.91438 34.0435 3.94037 33.776L3.93935 33.7718Z" fill="#00AB55"/>
</g>
<path d="M28.592 29.3059L28.78 29.5487C29.3059 30.219 29.7319 30.6734 30.058 30.9117C30.3909 31.1389 30.748 31.2066 31.1291 31.115L31.3605 31.0594L31.6151 31.8189L31.7139 32.5295L31.4825 32.5852C31.0832 32.6811 30.704 32.6811 30.345 32.585C29.9859 32.4889 29.6299 32.3057 29.2769 32.0354C28.9324 32.8382 28.2519 33.3617 27.2355 33.606L26.5413 33.7729C25.6701 33.9823 24.8218 33.9078 23.9966 33.5494L24.3451 32.1842C24.3655 32.1889 24.4693 32.2215 24.6566 32.2821C24.8531 32.3404 25.087 32.3754 25.3586 32.3869C25.6392 32.3963 25.9156 32.3682 26.1879 32.3028L26.8821 32.1359C27.1997 32.0595 27.4507 31.9656 27.6351 31.8541C27.8286 31.7404 27.9646 31.5877 28.0433 31.396C28.0919 31.2787 28.101 31.1566 28.0704 31.0295C28.0225 30.8299 27.8563 30.5578 27.5719 30.2134L25.3764 27.4294L26.3966 26.5219L28.592 29.3059ZM31.2197 31.0932L32.1045 30.8806C32.5038 30.7846 32.7655 30.6353 32.8896 30.4327C33.0206 30.2188 33.0403 29.9213 32.9486 29.5402L32.5233 27.7706L33.8165 27.4597L34.2713 29.3518C34.352 29.6876 34.4915 29.9085 34.6897 30.0144C34.8879 30.1203 35.1606 30.1364 35.5076 30.0626C35.8956 29.9597 36.1552 29.8013 36.2861 29.5875C36.4171 29.3736 36.4379 29.0806 36.3484 28.7085L35.9264 26.9526L37.2059 26.645L37.6607 28.5371C37.7414 28.8729 37.8809 29.0937 38.0792 29.1997C38.2774 29.3056 38.5455 29.3227 38.8835 29.2511C39.2443 29.1548 39.4902 28.9997 39.6211 28.7858C39.7612 28.5698 39.7827 28.3198 39.6857 28.036C39.5269 27.575 39.1988 26.8091 38.7014 25.7384L39.8513 25.1308C40.0827 25.5743 40.3103 26.062 40.5341 26.5937C40.7648 27.1142 40.9183 27.5333 40.9947 27.8509C41.0885 28.2411 41.0917 28.6339 41.0043 29.0293C40.917 29.4246 40.7236 29.7783 40.4242 30.0902C40.1318 30.3909 39.7359 30.6013 39.2368 30.7212C38.9283 30.7954 38.6079 30.8004 38.2757 30.7363C37.9414 30.6631 37.636 30.5109 37.3597 30.2797C37.0502 30.9493 36.5416 31.3691 35.8338 31.5392C35.5252 31.6134 35.1936 31.6115 34.8389 31.5336C34.482 31.4466 34.1834 31.3024 33.943 31.101C33.8088 31.4212 33.6094 31.6899 33.3448 31.9071C33.0893 32.1221 32.7846 32.2722 32.4307 32.3572L31.5731 32.5634L31.2197 31.0932ZM33.8539 24.0814L35.2968 23.7346L35.6437 25.1775L34.2008 25.5243L33.8539 24.0814ZM34.7223 21.9432L36.0971 21.6128L36.4276 22.9876L35.0527 23.3181L34.7223 21.9432ZM36.3858 23.4728L37.8287 23.126L38.1755 24.5689L36.7326 24.9157L36.3858 23.4728ZM50.4594 24.0496L50.6474 24.2924C51.1733 24.9627 51.5993 25.4171 51.9253 25.6554C52.2583 25.8826 52.6154 25.9503 52.9965 25.8587L53.2279 25.8031L53.4825 26.5626L53.5813 27.2732L53.3499 27.3289C52.9506 27.4248 52.5714 27.4248 52.2123 27.3287C51.8533 27.2326 51.4973 27.0494 51.1443 26.7791C50.7997 27.5819 50.1192 28.1054 49.1029 28.3497L48.4086 28.5166C47.5374 28.726 46.6892 28.6515 45.8639 28.2931L46.2125 26.9279C46.2328 26.9326 46.3367 26.9652 46.524 27.0258C46.7204 27.0841 46.9544 27.1191 47.226 27.1306C47.5066 27.14 47.783 27.1119 48.0553 27.0465L48.7495 26.8796C49.0671 26.8032 49.3181 26.7093 49.5025 26.5978C49.6959 26.4841 49.832 26.3314 49.9107 26.1397C49.9593 26.0224 49.9684 25.9003 49.9378 25.7732C49.8898 25.5736 49.7236 25.3015 49.4393 24.9571L47.2438 22.1731L48.264 21.2656L50.4594 24.0496ZM56.4325 22.0235L56.9004 23.97C56.9789 24.2967 57.1162 24.5085 57.3123 24.6054C57.5084 24.7022 57.7788 24.7092 58.1237 24.6263L58.8315 24.4562L59.0997 25.2124L59.1849 25.9263L58.477 26.0964C58.1866 26.1662 57.8674 26.1758 57.5192 26.1251C57.1779 26.0631 56.8622 25.9278 56.5721 25.7192C56.4176 26.0347 56.1888 26.3009 55.8857 26.5177C55.5896 26.7233 55.2691 26.8675 54.9242 26.9504L53.4405 27.3071L53.0871 25.8369L54.5709 25.4803C55.0064 25.3756 55.3044 25.2176 55.4648 25.0062C55.6252 24.7949 55.6618 24.5077 55.5745 24.1447L55.1393 22.3343L56.4325 22.0235ZM53.3095 29.3976L54.7524 29.0508L55.0992 30.4937L53.6563 30.8405L53.3095 29.3976ZM55.7869 28.8021L57.2298 28.4553L57.5766 29.8982L56.1337 30.245L55.7869 28.8021ZM58.6969 24.4885L60.4256 24.073C61.2877 23.8657 61.649 23.4717 61.5094 22.891C61.4527 22.655 61.3246 22.3018 61.1251 21.8314C60.9235 21.3519 60.7204 20.9064 60.5158 20.4948L61.6793 19.884C61.8973 20.3115 62.1182 20.7912 62.342 21.3229C62.5749 21.8525 62.7295 22.2761 62.8058 22.5937C62.9018 22.993 62.8981 23.3971 62.7948 23.8059C62.6893 24.2056 62.4722 24.5602 62.1434 24.8696C61.8146 25.179 61.3734 25.4002 60.8198 25.5333L59.0502 25.9586L58.6969 24.4885ZM58.9056 28.0524L60.3485 27.7056L60.6953 29.1485L59.2524 29.4953L58.9056 28.0524ZM61.383 27.4569L62.8259 27.1101L63.1728 28.553L61.7299 28.8998L61.383 27.4569ZM67.6846 23.8832C66.768 24.1035 66.0581 24.0054 65.5548 23.5888C65.0606 23.1701 64.7 22.4888 64.4732 21.545L63.0231 15.5725L64.3027 15.2649L65.7527 21.2374C65.8574 21.673 65.961 21.9841 66.0634 22.1707C66.1637 22.3481 66.3053 22.4581 66.4883 22.5005C66.6691 22.5338 66.95 22.5047 67.3312 22.4131L67.6307 22.3411L67.8923 23.0701L67.984 23.8112L67.6846 23.8832ZM67.497 22.3732L69.2257 21.9577C70.0879 21.7504 70.4491 21.3564 70.3095 20.7756C70.2528 20.5397 70.1247 20.1865 69.9252 19.7161C69.7236 19.2366 69.5205 18.7911 69.316 18.3795L70.4794 17.7687C70.6974 18.1962 70.9183 18.6759 71.1421 19.2076C71.375 19.7372 71.5296 20.1608 71.6059 20.4784C71.7019 20.8777 71.6982 21.2818 71.5949 21.6906C71.4894 22.0903 71.2723 22.4449 70.9435 22.7543C70.6147 23.0637 70.1735 23.2849 69.62 23.418L67.8504 23.8433L67.497 22.3732ZM66.418 15.5484L67.8609 15.2015L68.2078 16.6444L66.7649 16.9913L66.418 15.5484ZM68.8955 14.9529L70.3384 14.606L70.6852 16.0489L69.2423 16.3958L68.8955 14.9529Z" fill="#00AB55"/>
<defs>
<clipPath id="clip0_6093_26414">
<rect width="90" height="30" fill="white" transform="translate(0 21.3359) rotate(-13.7137)"/>
</clipPath>
</defs>
</svg>
