<svg width="22" height="22" viewBox="0 0 22 22" fill="none" xmlns="http://www.w3.org/2000/svg">
<path d="M12.8333 1.83325C12.8333 1.83325 14.8499 2.01659 17.4166 4.58325C19.9833 7.14992 20.1666 9.16659 20.1666 9.16659" stroke="#888EA8" stroke-width="1.5" stroke-linecap="round"/>
<path d="M13.0232 5.07422C13.0232 5.07422 13.9306 5.33349 15.2918 6.69467C16.653 8.05585 16.9123 8.96331 16.9123 8.96331" stroke="#888EA8" stroke-width="1.5" stroke-linecap="round"/>
<path d="M9.20121 4.87324L9.79613 5.93926C10.333 6.90128 10.1175 8.1633 9.2719 9.0089C9.2719 9.0089 8.24621 10.0346 10.1059 11.8943C11.9655 13.7539 12.9913 12.7283 12.9913 12.7283C13.8369 11.8827 15.0989 11.6671 16.0609 12.204L17.1269 12.799C18.5796 13.6097 18.7512 15.6469 17.4743 16.9238C16.707 17.691 15.7671 18.288 14.7281 18.3274C12.979 18.3937 10.0085 17.951 7.02881 14.9714C4.04912 11.9917 3.60644 9.0212 3.67275 7.27208C3.71214 6.23305 4.30915 5.29313 5.0764 4.52588C6.35327 3.24901 8.39049 3.42057 9.20121 4.87324Z" stroke="#888EA8" stroke-width="1.5" stroke-linecap="round"/>
</svg>
