<svg width="18" height="18" viewBox="0 0 18 18" fill="none" xmlns="http://www.w3.org/2000/svg">
<path d="M6.75 1.5H11.25C15 1.5 16.5 3 16.5 6.75V11.25C16.5 15 15 16.5 11.25 16.5H6.75C3 16.5 1.5 15 1.5 11.25V6.75C1.5 3 3 1.5 6.75 1.5Z" stroke="#888EA8" stroke-linecap="round" stroke-linejoin="round"/>
<path d="M9 11.5V10.25" stroke="#888EA8" stroke-linecap="round" stroke-linejoin="round"/>
<path d="M8.19586 5.17526L5.30836 7.48776C4.98336 7.7461 4.77503 8.29193 4.84586 8.70026L5.40003 12.0169C5.50003 12.6086 6.0667 13.0878 6.6667 13.0878H11.3334C11.9292 13.0878 12.5 12.6044 12.6 12.0169L13.1542 8.70026C13.2209 8.29193 13.0125 7.7461 12.6917 7.48776L9.8042 5.17943C9.35836 4.8211 8.63753 4.8211 8.19586 5.17526Z" stroke="#888EA8" stroke-linecap="round" stroke-linejoin="round"/>
</svg>
