<svg width="22" height="22" viewBox="0 0 22 22" fill="none" xmlns="http://www.w3.org/2000/svg">
<path d="M8.26825 2.60328L3.32742 6.45328C2.50242 7.09495 1.83325 8.46078 1.83325 9.49661V16.2891C1.83325 18.4158 3.56575 20.1574 5.69242 20.1574H16.3074C18.4341 20.1574 20.1666 18.4158 20.1666 16.2983V9.62494C20.1666 8.51578 19.4241 7.09495 18.5166 6.46245L12.8516 2.49328C11.5683 1.59495 9.50575 1.64078 8.26825 2.60328Z" stroke="#888EA8" stroke-width="1.5" stroke-linecap="round" stroke-linejoin="round"/>
<path d="M9.625 16.5H12.375C13.8875 16.5 15.125 15.2625 15.125 13.75V11C15.125 9.4875 13.8875 8.25 12.375 8.25H9.625C8.1125 8.25 6.875 9.4875 6.875 11V13.75C6.875 15.2625 8.1125 16.5 9.625 16.5Z" stroke="#888EA8" stroke-width="1.5" stroke-linecap="round" stroke-linejoin="round"/>
<path d="M11 8.25V16.5" stroke="#888EA8" stroke-width="1.5" stroke-linecap="round" stroke-linejoin="round"/>
<path d="M6.875 12.375H15.125" stroke="#888EA8" stroke-width="1.5" stroke-linecap="round" stroke-linejoin="round"/>
</svg>
