<svg width="22" height="22" viewBox="0 0 22 22" fill="none" xmlns="http://www.w3.org/2000/svg">
<path d="M1.83325 10.9999C1.83325 6.67871 1.83325 4.51811 3.17568 3.17568C4.51811 1.83325 6.67871 1.83325 10.9999 1.83325C15.3211 1.83325 17.4817 1.83325 18.8242 3.17568C20.1666 4.51811 20.1666 6.67871 20.1666 10.9999C20.1666 15.3211 20.1666 17.4817 18.8242 18.8242C17.4817 20.1666 15.3211 20.1666 10.9999 20.1666C6.67871 20.1666 4.51811 20.1666 3.17568 18.8242C1.83325 17.4817 1.83325 15.3211 1.83325 10.9999Z" stroke="#1A548E" stroke-width="1.5"/>
<path d="M5.5 14.4833L6.54762 15.5833L9.16667 12.8333" stroke="#1A548E" stroke-width="1.5" stroke-linecap="round" stroke-linejoin="round"/>
<path d="M5.5 8.06675L6.54762 9.16675L9.16667 6.41675" stroke="#1A548E" stroke-width="1.5" stroke-linecap="round" stroke-linejoin="round"/>
<path d="M11.9167 8.25L16.5001 8.25" stroke="#1A548E" stroke-width="1.5" stroke-linecap="round"/>
<path d="M11.9167 14.6667L16.5001 14.6667" stroke="#1A548E" stroke-width="1.5" stroke-linecap="round"/>
</svg>
