<svg width="32" height="32" viewBox="0 0 32 32" fill="none" xmlns="http://www.w3.org/2000/svg">
<path d="M2.26701 26.9865C2.28034 26.9732 2.28035 26.9598 2.28035 26.9598L9.61369 19.6265C9.62702 19.6131 9.64031 19.6132 9.65365 19.5999C8.80031 19.0132 7.76031 18.6665 6.65365 18.6665C3.70698 18.6665 1.32031 21.0532 1.32031 23.9998C1.32031 24.9998 1.60034 25.9465 2.09367 26.7465C2.16034 26.8265 2.21368 26.9065 2.26701 26.9865Z" fill="#2196F3"/>
<path d="M11.068 21C11.0546 21.0133 11.0547 21.0267 11.0413 21.04L3.70801 28.3734C3.69467 28.3867 3.6813 28.3867 3.66797 28.4C4.5213 28.9867 5.54797 29.3333 6.66797 29.3333C8.61463 29.3333 10.3079 28.2933 11.2279 26.7467C11.7213 25.9467 12.0013 25 12.0013 24C12.0013 22.88 11.6546 21.8533 11.068 21Z" fill="#2196F3"/>
<path opacity="0.4" d="M29.3346 12.0002V20.0002C29.3346 24.6668 26.668 26.6668 22.668 26.6668H11.268C11.7347 25.8802 12.0013 24.9735 12.0013 24.0002C12.0013 21.0535 9.61464 18.6668 6.66797 18.6668C5.06797 18.6668 3.6413 19.3735 2.66797 20.4801V12.0002C2.66797 7.3335 5.33464 5.3335 9.33464 5.3335H22.668C26.668 5.3335 29.3346 7.3335 29.3346 12.0002Z" fill="#2196F3"/>
<path d="M16.0013 19.3332C17.8423 19.3332 19.3346 17.8408 19.3346 15.9998C19.3346 14.1589 17.8423 12.6665 16.0013 12.6665C14.1604 12.6665 12.668 14.1589 12.668 15.9998C12.668 17.8408 14.1604 19.3332 16.0013 19.3332Z" fill="#2196F3"/>
<path d="M24.668 19.6668C24.1213 19.6668 23.668 19.2135 23.668 18.6668V13.3335C23.668 12.7868 24.1213 12.3335 24.668 12.3335C25.2146 12.3335 25.668 12.7868 25.668 13.3335V18.6668C25.668 19.2135 25.2146 19.6668 24.668 19.6668Z" fill="#2196F3"/>
<path d="M7.66797 19.3333C7.1213 19.3333 6.66797 18.88 6.66797 18.3333V13C6.66797 12.4533 7.1213 12 7.66797 12C8.21464 12 8.66797 12.4533 8.66797 13V18.3333C8.66797 18.88 8.21464 19.3333 7.66797 19.3333Z" fill="#2196F3"/>
</svg>
