<svg width="58" height="53" viewBox="0 0 58 53" fill="none" xmlns="http://www.w3.org/2000/svg">
<g clip-path="url(#clip0_4603_27127)">
<path d="M37.4664 37.5077L37.0455 37.5917C37.0455 37.5917 35.253 34.0209 32.3026 34.3217C29.3154 34.6263 24.5816 36.9781 20.2579 35.5964C16.1376 34.2793 13.1549 30.5823 11.7705 26.5398C10.3864 22.4976 10.3879 18.1195 10.6608 13.8498C12.1341 15.7809 14.4656 16.9117 16.8373 17.5437C19.2091 18.176 21.6784 18.3745 24.0926 18.8309C26.507 19.2871 28.9394 20.0402 30.8126 21.5986C32.3897 22.911 33.4752 24.7226 34.1969 26.6307C34.9186 28.5388 35.2868 30.8683 35.2335 33.0136C34.2979 31.7959 32.714 30.8826 30.6129 30.3601C18.8419 27.4343 15.5897 22.525 15.4669 22.3341C18.2382 26.85 21.6485 28.2624 24.8934 29.5264C27.2552 30.4467 29.0885 31.0863 31.4279 32.0604C36.0683 33.9928 37.4664 37.5077 37.4664 37.5077Z" fill="#ADADAD"/>
</g>
<g clip-path="url(#clip1_4603_27127)">
<path d="M36.7064 34.277L36.9344 34.239C36.9344 34.239 37.1587 32.1339 38.7019 31.7251C40.2643 31.3113 43.0955 31.5802 45.0107 30.0796C46.8357 28.6494 47.6355 26.2569 47.5646 23.9956C47.4936 21.7344 46.6609 19.5689 45.7121 17.5083C45.337 18.742 44.3776 19.742 43.3031 20.5028C42.2287 21.2638 41.0227 21.8286 39.8934 22.5106C38.7641 23.1926 37.682 24.0247 37.0346 25.1496C36.4897 26.0969 36.2872 27.1982 36.2863 28.2785C36.2854 29.3588 36.5426 30.5807 36.9771 31.6319C37.217 30.8527 37.8411 30.1016 38.8001 29.4461C44.1729 25.7744 44.8781 22.7312 44.9037 22.6136C44.366 25.3712 42.9166 26.7144 41.5225 27.9528C40.5078 28.8544 39.7059 29.5172 38.7127 30.4412C36.7427 32.274 36.7064 34.277 36.7064 34.277Z" fill="#ADADAD"/>
</g>
<defs>
<clipPath id="clip0_4603_27127">
<rect width="22.4397" height="29.3442" fill="white" transform="translate(8.70312 14.3281) rotate(-13.7303)"/>
</clipPath>
<clipPath id="clip1_4603_27127">
<rect width="12.0829" height="15.5352" fill="white" transform="matrix(-0.992424 0.122862 0.122862 0.992424 46.7891 17.375)"/>
</clipPath>
</defs>
</svg>
