<svg width="22" height="22" viewBox="0 0 22 22" fill="none" xmlns="http://www.w3.org/2000/svg">
<path d="M1.83325 10.9999C1.83325 6.67871 1.83325 4.51811 3.17568 3.17568C4.51811 1.83325 6.67871 1.83325 10.9999 1.83325C15.3211 1.83325 17.4817 1.83325 18.8242 3.17568C20.1666 4.51811 20.1666 6.67871 20.1666 10.9999C20.1666 15.3211 20.1666 17.4817 18.8242 18.8242C17.4817 20.1666 15.3211 20.1666 10.9999 20.1666C6.67871 20.1666 4.51811 20.1666 3.17568 18.8242C1.83325 17.4817 1.83325 15.3211 1.83325 10.9999Z" stroke="#888EA8" stroke-width="1.5"/>
<path d="M9.28125 8.1355C9.28125 7.18626 10.0508 6.41675 11 6.41675C11.9492 6.41675 12.7188 7.18626 12.7188 8.1355C12.7188 8.76566 12.3796 9.31661 11.8739 9.6158C11.4382 9.87359 11 10.2647 11 10.7709V11.9167" stroke="#888EA8" stroke-width="1.5" stroke-linecap="round"/>
<ellipse cx="10.9999" cy="14.6667" rx="0.916667" ry="0.916667" fill="#888EA8"/>
</svg>
