<svg width="18" height="18" viewBox="0 0 18 18" fill="none" xmlns="http://www.w3.org/2000/svg">
<path d="M6.75 16.5H11.25C15 16.5 16.5 15 16.5 11.25V6.75C16.5 3 15 1.5 11.25 1.5H6.75C3 1.5 1.5 3 1.5 6.75V11.25C1.5 15 3 16.5 6.75 16.5Z" stroke="#888EA8" stroke-linecap="round" stroke-linejoin="round"/>
<path d="M8.99893 13.9119C11.7102 13.9119 13.908 11.7141 13.908 9.00284C13.908 6.29162 11.7102 4.09375 8.99893 4.09375C6.28772 4.09375 4.08984 6.29162 4.08984 9.00284C4.08984 11.7141 6.28772 13.9119 8.99893 13.9119Z" stroke="#888EA8"/>
<path d="M8.99947 11.456C10.3551 11.456 11.454 10.357 11.454 9.00142C11.454 7.64581 10.3551 6.54688 8.99947 6.54688C7.64386 6.54688 6.54492 7.64581 6.54492 9.00142C6.54492 10.357 7.64386 11.456 8.99947 11.456Z" stroke="#888EA8"/>
<path d="M10.6348 7.36683L12.2711 5.73047" stroke="#888EA8"/>
<path d="M5.72656 12.277L7.36293 10.6406" stroke="#888EA8"/>
<path d="M7.36293 7.36683L5.72656 5.73047" stroke="#888EA8"/>
<path d="M12.2711 12.277L10.6348 10.6406" stroke="#888EA8"/>
</svg>
