<svg width="50" height="50" viewBox="0 0 50 50" fill="none" xmlns="http://www.w3.org/2000/svg">
<path d="M22.1978 19.807C18.8187 23.8491 20.7899 26.731 22.1978 27.6667H28.1112C30.364 26.8246 30.6456 25.1404 30.0824 23.4561C29.7046 22.3263 29.5192 20.9298 29.5192 20.6491C28.3928 20.9298 27.3603 21.8655 26.9848 22.614C27.4353 19.9193 25.7645 17.8421 24.732 17C25.4078 19.0211 24.0749 21.5848 23.324 22.614C23.324 21.4912 22.5732 20.2749 22.1978 19.807Z" stroke="#DFDFDF" stroke-width="1.5" stroke-linecap="round" stroke-linejoin="round"/>
<path d="M25.0958 24.3335C23.3546 25.0002 23.5641 26.8335 23.8866 27.6668H26.3045C26.3851 27.1807 26.3529 26.1668 25.579 26.0002C24.8051 25.8335 24.9344 24.8196 25.0958 24.3335Z" stroke="#DFDFDF" stroke-width="1.5" stroke-linecap="round" stroke-linejoin="round"/>
<path d="M36.3359 40.3333V37H32.3359L34.6022 40.6827C34.7236 40.8799 34.9385 41 35.17 41H35.6693C36.0375 41 36.3359 40.7015 36.3359 40.3333Z" stroke="#D1D1D1" stroke-width="1.5" stroke-linecap="round" stroke-linejoin="round"/>
<path d="M13.668 40.3333V37H17.668L15.4017 40.6827C15.2803 40.8799 15.0654 41 14.8339 41H14.3346C13.9664 41 13.668 40.7015 13.668 40.3333Z" stroke="#D1D1D1" stroke-width="1.5" stroke-linecap="round" stroke-linejoin="round"/>
<rect x="9" y="9" width="32" height="28" rx="3" stroke="#DFDFDF" stroke-width="1.5"/>
<rect x="12.332" y="12.3335" width="25.3333" height="15.3333" rx="2.66667" stroke="#D1D1D1" stroke-width="1.5"/>
<circle cx="25" cy="32.3306" r="2" stroke="#DFDFDF" stroke-width="1.5"/>
</svg>
