<svg width="39" height="32" viewBox="0 0 39 32" fill="none" xmlns="http://www.w3.org/2000/svg">
<path d="M35.4033 19.9967C34.7144 22.6776 33.3183 25.2168 31.2171 27.315C25.7707 32.7537 17.3822 33.4578 11.1719 29.4314L28.8262 22.5562C29.6266 22.2446 30.2081 21.5587 30.3844 20.719C30.5606 19.8793 30.3033 19.0174 29.6975 18.4104L25.0372 13.7568L33.448 7.48047C34.3436 8.8988 34.996 10.4284 35.4012 12.0086C35.227 12.043 35.0041 12.1483 34.8055 12.4335L32.0499 16.6299L32.0276 16.6663C31.9263 16.8484 31.8736 16.99 31.8594 17.1256C31.8412 17.2854 31.8635 17.595 32.2221 17.852L32.2566 17.8742C32.7084 18.1534 33.1299 18.459 33.5067 18.7807C33.8958 19.1145 34.301 19.4504 34.7123 19.7822C34.8602 19.9299 35.0588 20.0068 35.2756 20.0068C35.3182 20.0068 35.3607 20.0048 35.4033 19.9967Z" fill="#ADADAD"/>
<path d="M9.6975 13.8606L14.4388 18.5931L6.3806 24.6105C5.67346 23.5078 5.11625 22.3383 4.70898 21.1283C4.81841 21.009 4.92782 20.8876 5.03116 20.7641C5.22365 20.5335 5.41006 20.2725 5.58431 19.9892C5.88014 19.5502 6.08681 19.1172 6.20028 18.7024C6.32591 18.2451 6.32995 17.7939 6.21244 17.3589C6.12733 17.0089 5.98752 16.6851 5.79504 16.3938C5.65523 16.1834 5.49515 15.981 5.3209 15.7929C5.41006 15.6674 5.49921 15.5339 5.58431 15.3943C5.88014 14.9552 6.08681 14.5222 6.20028 14.1074C6.32591 13.6522 6.32995 13.199 6.21244 12.766C6.12733 12.4159 5.98752 12.0902 5.79504 11.8009C5.61673 11.5297 5.406 11.2748 5.16894 11.0462C5.04129 10.9207 4.90756 10.8013 4.76775 10.688C5.53771 8.49679 6.80003 6.43706 8.55473 4.68487C14.066 -0.818544 22.5923 -1.47208 28.8249 2.7182L10.5445 9.83622C9.76843 10.1397 9.20109 10.8054 9.03089 11.6188C8.86069 12.4342 9.10991 13.2718 9.6975 13.8606Z" fill="#ADADAD"/>
<path d="M23.0933 13.0602L36.2977 3.20402C36.9842 2.69163 36.3882 1.61966 35.5897 1.93058L11.1685 11.4397C10.6737 11.6324 10.5399 12.2691 10.9155 12.6441L16.4009 18.1217C16.7501 18.4704 16.7086 19.0472 16.3131 19.3425L3.6165 28.8197C2.86047 29.3841 3.51694 30.5647 4.39634 30.2222L28.2005 20.9529C28.7455 20.7407 28.8928 20.0394 28.4792 19.6264L23.0135 14.1685C22.6965 13.8519 22.7342 13.3282 23.0933 13.0602Z" fill="#6D6D6D"/>
<path d="M38.0862 15.1558C38.178 15.4881 38.1751 15.832 38.0777 16.1875C37.9799 16.5427 37.7991 16.9154 37.5352 17.3054C37.3743 17.5689 37.205 17.8067 37.0271 18.019C36.849 18.231 36.6625 18.4343 36.4674 18.6295C36.4098 18.6983 36.318 18.7843 36.1918 18.8874C36.0654 18.9906 35.9335 19.0879 35.7958 19.1797C35.658 19.2714 35.5259 19.3373 35.3997 19.3775C35.2732 19.4175 35.1814 19.4033 35.1242 19.3345C34.7109 19.0018 34.3033 18.6639 33.9015 18.3199C33.4994 17.976 33.0576 17.6549 32.5754 17.3569C32.4949 17.2994 32.4576 17.2451 32.4635 17.1936C32.4691 17.1419 32.5006 17.0646 32.5581 16.9614L35.3137 12.7654C35.3938 12.6506 35.4743 12.5961 35.5547 12.602C35.6349 12.6076 35.7209 12.6391 35.813 12.6966C36.0541 12.8342 36.2953 12.9889 36.5363 13.1609C36.7774 13.3329 37.0013 13.5191 37.208 13.7199C37.4146 13.9203 37.5954 14.1382 37.7504 14.3732C37.9054 14.6082 38.0173 14.869 38.0862 15.1558Z" fill="#6D6D6D"/>
<path d="M5.28751 16.7295C5.1325 16.4945 4.95171 16.2766 4.74512 16.0761C4.66637 15.9997 4.58278 15.9272 4.49904 15.855C4.52049 15.8299 4.54298 15.806 4.56419 15.7807C4.74212 15.5684 4.91139 15.3306 5.07228 15.0671C5.33621 14.6771 5.517 14.3044 5.61479 13.9492C5.71221 13.5938 5.71507 13.2498 5.6233 12.9175C5.55444 12.6307 5.44251 12.3699 5.28751 12.135C5.1325 11.8999 4.95171 11.682 4.74512 11.4816C4.53841 11.2808 4.31454 11.0946 4.07339 10.9226C3.83237 10.7507 3.59123 10.5959 3.35009 10.4584C3.25806 10.4008 3.17204 10.3693 3.09179 10.3637C3.01141 10.3578 2.9309 10.4124 2.85077 10.5271L0.0952584 14.7231C0.0376653 14.8263 0.00624099 14.9037 0.000601648 14.9553C-0.00528503 15.0068 0.0320259 15.0611 0.112535 15.1186C0.594699 15.4166 1.03655 15.7377 1.43858 16.0817C1.60486 16.224 1.77635 16.3612 1.94463 16.5016L0.0952584 19.3177C0.0376653 19.4209 0.00624099 19.4982 0.000601648 19.5499C-0.00528503 19.6014 0.0320259 19.6557 0.112535 19.7132C0.594699 20.0112 1.03655 20.3323 1.43858 20.6762C1.84036 21.0202 2.24803 21.3581 2.66133 21.6908C2.71855 21.7596 2.81033 21.7738 2.93678 21.7338C3.06299 21.6936 3.19508 21.6277 3.33293 21.536C3.47065 21.4442 3.6025 21.3469 3.72895 21.2437C3.85517 21.1406 3.94693 21.0546 4.00454 20.9858C4.1996 20.7906 4.38616 20.5873 4.56419 20.3753C4.74212 20.163 4.91139 19.9252 5.07228 19.6617C5.33621 19.2717 5.517 18.899 5.61479 18.5438C5.71221 18.1883 5.71507 17.8444 5.6233 17.5121C5.55444 17.2253 5.44251 16.9645 5.28751 16.7295Z" fill="#6D6D6D"/>
</svg>
