<svg width="32" height="32" viewBox="0 0 32 32" fill="none" xmlns="http://www.w3.org/2000/svg">
<path d="M16 20.0013C20.9706 20.0013 25 16.1211 25 11.3346C25 6.54817 20.9706 2.66797 16 2.66797C11.0294 2.66797 7 6.54817 7 11.3346C7 16.1211 11.0294 20.0013 16 20.0013Z" stroke="#2196F3" stroke-width="1.5" stroke-linecap="round" stroke-linejoin="round"/>
<path d="M16.6718 7.24528L17.3795 8.6645C17.4755 8.85693 17.7274 9.04938 17.9554 9.08546L19.2389 9.30194C20.0547 9.43424 20.2466 10.0356 19.6588 10.625L18.6631 11.6232C18.4952 11.7916 18.3992 12.1163 18.4592 12.3569L18.7471 13.5957C18.975 14.5699 18.4592 14.9548 17.5955 14.4376L16.3959 13.728C16.1799 13.5957 15.8201 13.5957 15.6041 13.728L14.4045 14.4376C13.5408 14.9427 13.025 14.5699 13.2529 13.5957L13.5408 12.3569C13.5888 12.1284 13.5048 11.7916 13.3369 11.6232L12.3412 10.625C11.7534 10.0356 11.9453 9.44627 12.7611 9.30194L14.0446 9.08546C14.2606 9.04938 14.5125 8.85693 14.6085 8.6645L15.3162 7.24528C15.6641 6.47553 16.2879 6.47553 16.6718 7.24528Z" stroke="#2196F3" stroke-width="1.5" stroke-linecap="round" stroke-linejoin="round"/>
<path d="M10.0267 18.0251L10.0134 27.8652C10.0134 29.0652 10.8534 29.6518 11.8934 29.1585L15.4668 27.4652C15.7601 27.3185 16.2534 27.3185 16.5468 27.4652L20.1334 29.1585C21.1601 29.6385 22.0134 29.0652 22.0134 27.8652V17.7852" stroke="#2196F3" stroke-width="1.5" stroke-linecap="round" stroke-linejoin="round"/>
</svg>
