<svg width="32" height="32" viewBox="0 0 32 32" fill="none" xmlns="http://www.w3.org/2000/svg">
<path d="M29.3307 8.33464V15.1346C29.3307 16.8279 28.7707 18.2546 27.7707 19.2413C26.7841 20.2413 25.3574 20.8013 23.6641 20.8013V23.2146C23.6641 24.1213 22.6507 24.668 21.9041 24.1613L20.6107 23.3079C20.7307 22.8946 20.7841 22.4413 20.7841 21.9613V16.5347C20.7841 13.8147 18.9707 12.0013 16.2507 12.0013H7.19739C7.01072 12.0013 6.8374 12.0147 6.66406 12.028V8.33464C6.66406 4.93464 8.93073 2.66797 12.3307 2.66797H23.6641C27.0641 2.66797 29.3307 4.93464 29.3307 8.33464Z" stroke="#111A63" stroke-width="2" stroke-miterlimit="10" stroke-linecap="round" stroke-linejoin="round"/>
<path d="M20.7841 16.5334V21.96C20.7841 22.44 20.7307 22.8933 20.6107 23.3066C20.1174 25.2666 18.4907 26.4933 16.2507 26.4933H12.6241L8.59739 29.1733C7.99739 29.5867 7.19739 29.1467 7.19739 28.4267V26.4933C5.83739 26.4933 4.70407 26.04 3.9174 25.2533C3.1174 24.4533 2.66406 23.32 2.66406 21.96V16.5334C2.66406 14 4.2374 12.2534 6.66406 12.0267C6.8374 12.0134 7.01072 12 7.19739 12H16.2507C18.9707 12 20.7841 13.8134 20.7841 16.5334Z" stroke="#111A63" stroke-width="2" stroke-miterlimit="10" stroke-linecap="round" stroke-linejoin="round"/>
</svg>
