<svg width="15" height="18" viewBox="0 0 15 18" fill="none" xmlns="http://www.w3.org/2000/svg">
<path d="M13.9992 5V13C13.9992 16.2 13.1992 17 9.99922 17H5.19922C1.99922 17 1.19922 16.2 1.19922 13V5C1.19922 1.8 1.99922 1 5.19922 1H9.99922C13.1992 1 13.9992 1.8 13.9992 5Z" stroke="#2196F3" stroke-width="1.5" stroke-linecap="round" stroke-linejoin="round"/>
<path d="M9.2 3.80078H6" stroke="#2196F3" stroke-width="1.5" stroke-linecap="round" stroke-linejoin="round"/>
<path d="M7.59938 14.6792C8.28421 14.6792 8.83938 14.1241 8.83938 13.4392C8.83938 12.7544 8.28421 12.1992 7.59938 12.1992C6.91454 12.1992 6.35938 12.7544 6.35938 13.4392C6.35938 14.1241 6.91454 14.6792 7.59938 14.6792Z" stroke="#2196F3" stroke-width="1.5" stroke-linecap="round" stroke-linejoin="round"/>
</svg>
