<svg width="32" height="32" viewBox="0 0 32 32" fill="none" xmlns="http://www.w3.org/2000/svg">
<path d="M20.1229 16.4571C20.4385 16.8717 20.8495 17.204 21.3209 17.4259C21.7923 17.6478 22.3103 17.7527 22.8309 17.7318C24.4896 17.7318 25.8362 16.7224 25.8362 15.4771C25.8362 14.2318 24.4896 13.2238 22.8309 13.2238C21.1722 13.2238 19.8242 12.2131 19.8242 10.9678C19.8242 9.72245 21.1709 8.71312 22.8309 8.71312M22.8309 8.71312C23.3515 8.69219 23.8695 8.79712 24.3409 9.01902C24.8123 9.24092 25.2233 9.57323 25.5389 9.98778M22.8309 8.71312V7.21045M22.8309 17.7331V19.2344" stroke="#2196F3" stroke-width="1.5" stroke-linecap="round" stroke-linejoin="round"/>
<path d="M15.9987 24.3333V29M9.33203 29H22.6654M6.16136 8.91867H14.1774M6.16136 14.02H14.1774M6.16136 19.1213H10.1694M27.1374 3H4.86003C3.92435 3 3.02699 3.3717 2.36536 4.03333C1.70373 4.69496 1.33203 5.59232 1.33203 6.528V20.8053C1.33203 21.741 1.70373 22.6384 2.36536 23.3C3.02699 23.9616 3.92435 24.3333 4.86003 24.3333H27.1374C27.6007 24.3333 28.0594 24.2421 28.4875 24.0648C28.9155 23.8875 29.3044 23.6276 29.632 23.3C29.9596 22.9724 30.2195 22.5835 30.3968 22.1554C30.5741 21.7274 30.6654 21.2686 30.6654 20.8053V6.528C30.6654 6.0647 30.5741 5.60593 30.3968 5.17789C30.2195 4.74986 29.9596 4.36093 29.632 4.03333C29.3044 3.70572 28.9155 3.44585 28.4875 3.26855C28.0594 3.09125 27.6007 3 27.1374 3Z" stroke="#82C4F8" stroke-width="1.5" stroke-linecap="round" stroke-linejoin="round"/>
</svg>
