<svg width="32" height="32" viewBox="0 0 32 32" fill="none" xmlns="http://www.w3.org/2000/svg">
<path d="M29.3333 8.0013V11.228C29.3333 13.3346 27.9999 14.668 25.8933 14.668H21.3333V5.34797C21.3333 3.86797 22.5466 2.66797 24.0266 2.66797C25.4799 2.6813 26.8133 3.26797 27.7733 4.22797C28.7333 5.2013 29.3333 6.53464 29.3333 8.0013Z" stroke="#2196F3" stroke-width="1.5" stroke-miterlimit="10" stroke-linecap="round" stroke-linejoin="round"/>
<path d="M2.66675 9.33464V28.0013C2.66675 29.108 3.92008 29.7346 4.80008 29.068L7.08008 27.3613C7.61341 26.9613 8.36008 27.0146 8.84008 27.4946L11.0534 29.7213C11.5734 30.2413 12.4267 30.2413 12.9467 29.7213L15.1867 27.4813C15.6534 27.0146 16.4001 26.9613 16.9201 27.3613L19.2001 29.068C20.0801 29.7213 21.3334 29.0946 21.3334 28.0013V5.33464C21.3334 3.86797 22.5334 2.66797 24.0001 2.66797H9.33341H8.00008C4.00008 2.66797 2.66675 5.05464 2.66675 8.0013V9.33464Z" stroke="#2196F3" stroke-width="1.5" stroke-miterlimit="10" stroke-linecap="round" stroke-linejoin="round"/>
<path d="M12 17.3477H16" stroke="#1A548E" stroke-width="1.5" stroke-linecap="round" stroke-linejoin="round"/>
<path d="M12 12.0117H16" stroke="#1A548E" stroke-width="1.5" stroke-linecap="round" stroke-linejoin="round"/>
<path d="M7.99414 17.332H8.00612" stroke="#1A548E" stroke-width="1.5" stroke-linecap="round" stroke-linejoin="round"/>
<path d="M7.99414 12H8.00612" stroke="#1A548E" stroke-width="1.5" stroke-linecap="round" stroke-linejoin="round"/>
</svg>
