<svg width="20" height="20" viewBox="0 0 20 20" fill="none" xmlns="http://www.w3.org/2000/svg">
<path d="M8.60801 6.25911C9.02468 6.13411 9.48301 6.05078 9.99967 6.05078C12.2997 6.05078 14.1663 7.91745 14.1663 10.2174C14.1663 12.5174 12.2997 14.3841 9.99967 14.3841C7.69967 14.3841 5.83301 12.5174 5.83301 10.2174C5.83301 9.35911 6.09134 8.56745 6.533 7.90078" stroke="#2196F3" stroke-width="1.5" stroke-linecap="round" stroke-linejoin="round"/>
<path d="M8.0166 6.37683L9.39994 4.78516" stroke="#2196F3" stroke-width="1.5" stroke-linecap="round" stroke-linejoin="round"/>
<path d="M8.0166 6.375L9.63327 7.55833" stroke="#2196F3" stroke-width="1.5" stroke-linecap="round" stroke-linejoin="round"/>
<path d="M7.50033 18.3346H12.5003C16.667 18.3346 18.3337 16.668 18.3337 12.5013V7.5013C18.3337 3.33464 16.667 1.66797 12.5003 1.66797H7.50033C3.33366 1.66797 1.66699 3.33464 1.66699 7.5013V12.5013C1.66699 16.668 3.33366 18.3346 7.50033 18.3346Z" stroke="#82C4F8" stroke-width="1.5" stroke-linecap="round" stroke-linejoin="round"/>
</svg>
