<svg width="22" height="22" viewBox="0 0 22 22" fill="none" xmlns="http://www.w3.org/2000/svg">
<path d="M8.24992 20.1666H13.7499C18.3333 20.1666 20.1666 18.3333 20.1666 13.7499V8.24992C20.1666 3.66659 18.3333 1.83325 13.7499 1.83325H8.24992C3.66659 1.83325 1.83325 3.66659 1.83325 8.24992V13.7499C1.83325 18.3333 3.66659 20.1666 8.24992 20.1666Z" stroke="#1A548E" stroke-width="1.5" stroke-linecap="round" stroke-linejoin="round"/>
<path d="M8.25 13.75H6.75V15.25" stroke="#1A548E" stroke-width="1.2" stroke-linecap="round" stroke-linejoin="round"/>
<path d="M15.25 15.25H13.75V13.75" stroke="#1A548E" stroke-width="1.2" stroke-linecap="round" stroke-linejoin="round"/>
<path d="M13.75 8.25H15.25V6.75" stroke="#1A548E" stroke-width="1.2" stroke-linecap="round" stroke-linejoin="round"/>
<path d="M6.75 6.75H8.25V8.25" stroke="#1A548E" stroke-width="1.2" stroke-linecap="round" stroke-linejoin="round"/>
<path d="M8.25 6.82349C6.89444 7.71785 6 9.25445 6 11C6 11.2549 6.01907 11.5053 6.05587 11.75" stroke="#1A548E" stroke-width="1.2" stroke-linecap="round" stroke-linejoin="round"/>
<path d="M11.75 15.9441C11.5053 15.9809 11.2549 16 11 16C9.25445 16 7.71785 15.1056 6.82349 13.75" stroke="#1A548E" stroke-width="1.2" stroke-linecap="round" stroke-linejoin="round"/>
<path d="M15.9441 10.25C15.9809 10.4947 16 10.7451 16 11C16 12.7455 15.1056 14.2821 13.75 15.1765" stroke="#1A548E" stroke-width="1.2" stroke-linecap="round" stroke-linejoin="round"/>
<path d="M10.25 6.05587C10.4947 6.01907 10.7451 6 11 6C12.7455 6 14.2821 6.89444 15.1765 8.25" stroke="#1A548E" stroke-width="1.2" stroke-linecap="round" stroke-linejoin="round"/>
</svg>
