<svg width="22" height="22" viewBox="0 0 22 22" fill="none" xmlns="http://www.w3.org/2000/svg">
<path d="M8.24992 20.1666H13.7499C18.3333 20.1666 20.1666 18.3333 20.1666 13.7499V8.24992C20.1666 3.66659 18.3333 1.83325 13.7499 1.83325H8.24992C3.66659 1.83325 1.83325 3.66659 1.83325 8.24992V13.7499C1.83325 18.3333 3.66659 20.1666 8.24992 20.1666Z" stroke="#888EA8" stroke-width="1.5" stroke-linecap="round" stroke-linejoin="round"/>
<path d="M14.2725 16.9583V13.3833" stroke="#888EA8" stroke-width="1.5" stroke-miterlimit="10" stroke-linecap="round" stroke-linejoin="round"/>
<path d="M14.2725 6.82925V5.04175" stroke="#888EA8" stroke-width="1.5" stroke-miterlimit="10" stroke-linecap="round" stroke-linejoin="round"/>
<path d="M14.2725 11.5958C15.5888 11.5958 16.6558 10.5287 16.6558 9.21244C16.6558 7.89616 15.5888 6.8291 14.2725 6.8291C12.9562 6.8291 11.8892 7.89616 11.8892 9.21244C11.8892 10.5287 12.9562 11.5958 14.2725 11.5958Z" stroke="#888EA8" stroke-width="1.5" stroke-miterlimit="10" stroke-linecap="round" stroke-linejoin="round"/>
<path d="M7.72754 16.9584V15.1709" stroke="#888EA8" stroke-width="1.5" stroke-miterlimit="10" stroke-linecap="round" stroke-linejoin="round"/>
<path d="M7.72754 8.61675V5.04175" stroke="#888EA8" stroke-width="1.5" stroke-miterlimit="10" stroke-linecap="round" stroke-linejoin="round"/>
<path d="M7.72757 15.1707C9.04385 15.1707 10.1109 14.1037 10.1109 12.7874C10.1109 11.4711 9.04385 10.4041 7.72757 10.4041C6.41129 10.4041 5.34424 11.4711 5.34424 12.7874C5.34424 14.1037 6.41129 15.1707 7.72757 15.1707Z" stroke="#888EA8" stroke-width="1.5" stroke-miterlimit="10" stroke-linecap="round" stroke-linejoin="round"/>
</svg>
