<svg width="425" height="435" viewBox="0 0 425 435" fill="none" xmlns="http://www.w3.org/2000/svg">
<g clip-path="url(#clip0_243_2148)">
<path d="M346.586 164.407C340.928 186.45 329.463 207.329 312.207 224.58C267.478 269.299 198.587 275.088 147.585 241.982L292.572 185.452C299.145 182.89 303.92 177.25 305.368 170.346C306.816 163.442 304.703 156.355 299.727 151.364L261.454 113.101L330.528 61.4951C337.883 73.157 343.242 85.7342 346.57 98.7271C345.138 99.0099 343.308 99.875 341.677 102.221L319.046 136.724L318.863 137.024C318.031 138.521 317.599 139.686 317.482 140.8C317.333 142.114 317.516 144.66 320.461 146.772L320.744 146.956C324.455 149.251 327.916 151.763 331.011 154.409C334.206 157.154 337.534 159.915 340.912 162.644C342.127 163.858 343.757 164.49 345.538 164.49C345.887 164.49 346.237 164.473 346.586 164.407Z" fill="#F3A03E"/>
<path d="M135.47 113.966L174.409 152.878L108.23 202.354C102.423 193.287 97.8467 183.672 94.502 173.723C95.4006 172.742 96.2991 171.743 97.1478 170.729C98.7287 168.832 100.26 166.686 101.691 164.357C104.12 160.747 105.817 157.187 106.749 153.776C107.781 150.016 107.814 146.307 106.849 142.73C106.15 139.852 105.002 137.19 103.421 134.794C102.273 133.064 100.958 131.4 99.5274 129.853C100.26 128.822 100.992 127.724 101.691 126.576C104.12 122.966 105.817 119.406 106.749 115.995C107.781 112.252 107.814 108.526 106.849 104.966C106.15 102.087 105.002 99.409 103.421 97.03C101.957 94.8007 100.226 92.7045 98.2793 90.8247C97.231 89.7932 96.1328 88.8117 94.9846 87.8801C101.308 69.863 111.675 52.9273 126.085 38.5203C171.347 -6.7303 241.369 -12.1039 292.555 22.3498L142.426 80.8762C136.053 83.3716 131.394 88.845 129.996 95.5327C128.598 102.237 130.645 109.125 135.47 113.966Z" fill="#F3A03E"/>
<path d="M368.622 124.607C369.376 127.34 369.352 130.168 368.552 133.09C367.749 136.011 366.264 139.076 364.097 142.282C362.775 144.449 361.385 146.404 359.924 148.15C358.462 149.893 356.93 151.565 355.328 153.169C354.855 153.735 354.101 154.442 353.065 155.29C352.026 156.138 350.943 156.938 349.812 157.694C348.68 158.447 347.595 158.989 346.559 159.32C345.52 159.649 344.767 159.532 344.297 158.966C340.902 156.231 337.554 153.452 334.255 150.624C330.953 147.796 327.324 145.156 323.365 142.705C322.703 142.232 322.397 141.786 322.445 141.363C322.492 140.938 322.75 140.302 323.223 139.454L345.852 104.953C346.511 104.009 347.172 103.561 347.832 103.609C348.491 103.656 349.197 103.915 349.953 104.388C351.934 105.518 353.914 106.791 355.893 108.205C357.874 109.619 359.712 111.15 361.41 112.801C363.106 114.449 364.591 116.241 365.864 118.173C367.137 120.105 368.056 122.249 368.622 124.607Z" fill="#111A63"/>
<path d="M99.2539 137.546C97.9809 135.614 96.4962 133.822 94.7995 132.174C94.1528 131.545 93.4663 130.95 92.7786 130.355C92.9547 130.15 93.1395 129.953 93.3136 129.745C94.7749 127.999 96.1651 126.044 97.4863 123.877C99.6539 120.671 101.139 117.606 101.942 114.686C102.742 111.763 102.765 108.935 102.012 106.203C101.446 103.844 100.527 101.7 99.2539 99.7684C97.9809 97.8358 96.4962 96.0439 94.7995 94.3961C93.1019 92.7451 91.2634 91.2144 89.283 89.7999C87.3036 88.3864 85.3232 87.1137 83.3428 85.9829C82.587 85.51 81.8806 85.251 81.2215 85.2047C80.5613 85.1565 79.9002 85.6047 79.2421 86.5484L56.6124 121.049C56.1394 121.897 55.8813 122.534 55.835 122.958C55.7867 123.382 56.0931 123.828 56.7543 124.301C60.7141 126.751 64.3428 129.391 67.6445 132.219C69.01 133.39 70.4184 134.518 71.8004 135.672L56.6124 158.827C56.1394 159.675 55.8813 160.311 55.835 160.736C55.7867 161.159 56.0931 161.606 56.7543 162.079C60.7141 164.529 64.3428 167.169 67.6445 169.997C70.9441 172.825 74.2921 175.604 77.6864 178.339C78.1563 178.905 78.91 179.022 79.9485 178.693C80.985 178.362 82.0698 177.82 83.2019 177.067C84.3329 176.311 85.4157 175.511 86.4542 174.663C87.4908 173.815 88.2444 173.108 88.7175 172.543C90.3194 170.938 91.8515 169.266 93.3136 167.523C94.7749 165.777 96.1651 163.822 97.4863 161.655C99.6539 158.449 101.139 155.384 101.942 152.464C102.742 149.541 102.765 146.713 102.012 143.981C101.446 141.622 100.527 139.478 99.2539 137.546Z" fill="#111A63"/>
<path d="M245.492 107.378L353.933 26.3384C359.571 22.1254 354.676 13.3114 348.118 15.8679L147.559 94.0544C143.495 95.6387 142.396 100.874 145.481 103.958L190.53 148.996C193.398 151.863 193.057 156.606 189.809 159.033L85.5376 236.958C79.3287 241.598 84.7199 251.305 91.9421 248.49L287.434 172.275C291.91 170.53 293.12 164.764 289.723 161.367L244.837 116.492C242.233 113.889 242.542 109.582 245.492 107.378Z" fill="#111A63"/>
<path d="M289.328 338.555H376.563C377.574 338.555 378.393 337.736 378.393 336.726V326.088C378.393 325.078 377.574 324.259 376.563 324.259H289.328C288.318 324.259 287.499 325.078 287.499 326.088V336.726C287.499 337.736 288.318 338.555 289.328 338.555Z" fill="#F3A03E"/>
<path d="M335.935 368.797H423.171C424.181 368.797 425 367.978 425 366.968V356.33C425 355.32 424.181 354.501 423.171 354.501H335.935C334.925 354.501 334.106 355.32 334.106 356.33V366.968C334.106 367.978 334.925 368.797 335.935 368.797Z" fill="#F3A03E"/>
<path d="M135.672 324.259H48.4366C47.4264 324.259 46.6074 325.078 46.6074 326.088V336.726C46.6074 337.736 47.4264 338.555 48.4366 338.555H135.672C136.682 338.555 137.501 337.736 137.501 336.726V326.088C137.501 325.078 136.682 324.259 135.672 324.259Z" fill="#F3A03E"/>
<path d="M89.0647 354.501H1.82916C0.818942 354.501 0 355.32 0 356.33V366.968C0 367.978 0.818942 368.797 1.82916 368.797H89.0647C90.0749 368.797 90.8939 367.978 90.8939 366.968V356.33C90.8939 355.32 90.0749 354.501 89.0647 354.501Z" fill="#F3A03E"/>
<path d="M196.475 379.904V354.501H176.235V378.585C176.235 379.244 176.015 379.794 175.576 380.234C175.135 380.674 174.622 380.894 174.035 380.894H158.746V377.925C158.746 373.234 157.701 368.907 155.611 364.948C153.521 360.989 150.623 357.855 146.921 355.545C143.217 353.236 139.056 352.082 134.436 352.082C129.742 352.082 125.434 353.236 121.512 355.545C117.588 357.855 114.453 360.989 112.107 364.948C109.759 368.907 108.587 373.234 108.587 377.925C108.587 382.544 109.742 386.705 112.052 390.406C114.362 394.109 117.497 397.005 121.456 399.094C125.417 401.184 129.742 402.228 134.436 402.228H138.507C138.507 403.694 138.029 405.033 137.076 406.242C136.123 407.452 134.106 408.918 131.026 410.641C127.946 412.363 126.407 413.226 126.407 413.226C126.407 413.226 123.289 414.545 117.057 417.184L123.327 435C133.006 430.893 140.303 427.082 145.216 423.563C150.128 420.044 153.612 415.992 155.666 411.411C156.823 408.828 157.642 405.755 158.147 402.228H174.255C178.361 402.228 182.102 401.221 185.475 399.204C188.847 397.189 191.525 394.475 193.505 391.066C195.485 387.657 196.475 383.937 196.475 379.904ZM138.507 382.214H134.436C133.116 382.214 132.034 381.829 131.191 381.059C130.347 380.289 129.927 379.244 129.927 377.925C129.927 376.533 130.347 375.433 131.191 374.625C132.034 373.82 133.116 373.416 134.436 373.416C135.682 373.416 136.672 373.82 137.406 374.625C138.138 375.433 138.507 376.533 138.507 377.925V382.214Z" fill="#111A63"/>
<path d="M196.475 345.703V328.658H179.425H162.375V345.703H179.425H196.475Z" fill="#111A63"/>
<path d="M250.857 391.067C252.836 387.657 253.827 383.937 253.827 379.905V355.821C253.827 351.276 252.854 347.152 250.912 343.449C248.967 339.748 246.292 336.814 242.882 334.651C239.472 332.49 235.639 331.407 231.387 331.407C227.133 331.407 223.154 332.49 219.452 334.651C215.748 336.814 212.797 339.765 210.597 343.504C208.397 347.243 207.297 351.35 207.297 355.821C207.297 360 208.378 363.794 210.542 367.203C212.704 370.612 215.619 373.306 219.287 375.286C222.953 377.265 226.987 378.255 231.387 378.255H233.587V378.585C233.587 380.125 232.853 380.894 231.387 380.894H204.107C204.105 380.894 204.103 380.895 204.101 380.895H200.007V382.442C200.007 386.874 198.918 390.967 196.742 394.715C195.239 397.3 193.377 399.522 191.146 401.378C191.225 401.942 191.585 402.227 192.229 402.227H203.007V402.229H231.607C235.713 402.229 239.453 401.222 242.827 399.204C246.199 397.189 248.876 394.476 250.857 391.067ZM234.907 359.56H230.617C229.297 359.56 228.233 359.139 227.427 358.295C226.619 357.453 226.217 356.37 226.217 355.051C226.217 353.805 226.619 352.779 227.427 351.972C228.233 351.166 229.297 350.762 230.617 350.762C231.789 350.762 232.798 351.184 233.642 352.027C234.484 352.87 234.907 353.879 234.907 355.051V359.56Z" fill="#111A63"/>
<path d="M248.438 322.609V305.563H231.388H214.338V322.609H231.388H248.438Z" fill="#111A63"/>
<path d="M296.174 354.501V378.585C296.174 379.245 295.954 379.794 295.514 380.234C295.074 380.674 294.56 380.894 293.974 380.894H283.085C282.351 380.894 281.782 380.674 281.38 380.234C280.976 379.794 280.775 379.209 280.775 378.475V357.58H260.536V396.07C260.536 400.177 260.297 403.144 259.82 404.978C259.343 406.81 258.078 408.679 256.026 410.587C253.972 412.492 250.38 414.985 245.246 418.064L252.836 435C260.536 431.187 266.365 427.539 270.326 424.058C274.285 420.575 277.016 416.707 278.52 412.456C279.543 409.561 280.209 406.092 280.536 402.076C281.351 402.168 282.192 402.229 283.085 402.229H294.194C298.3 402.229 302.04 401.222 305.414 399.204C308.786 397.189 311.464 394.475 313.444 391.067C315.424 387.657 316.414 383.937 316.414 379.905V354.501H296.174Z" fill="#111A63"/>
<path d="M304.424 411.026H287.374V428.072H304.424V411.026Z" fill="#111A63"/>
</g>
<defs>
<clipPath id="clip0_243_2148">
<rect width="425" height="435" fill="white"/>
</clipPath>
</defs>
</svg>
