<svg width="22" height="22" viewBox="0 0 22 22" fill="none" xmlns="http://www.w3.org/2000/svg">
<path d="M16.5 17.2883H15.8033C15.07 17.2883 14.3733 17.5725 13.86 18.0858L12.2925 19.6351C11.5775 20.3409 10.4133 20.3409 9.69834 19.6351L8.13083 18.0858C7.6175 17.5725 6.91167 17.2883 6.1875 17.2883H5.5C3.97833 17.2883 2.75 16.0692 2.75 14.5659V4.565C2.75 3.06167 3.97833 1.84253 5.5 1.84253H16.5C18.0217 1.84253 19.25 3.06167 19.25 4.565V14.5659C19.25 16.06 18.0217 17.2883 16.5 17.2883Z" stroke="#1A548E" stroke-width="1.5" stroke-miterlimit="10" stroke-linecap="round" stroke-linejoin="round"/>
<path d="M6.41675 8.39688C6.41675 7.54438 7.11342 6.84766 7.96592 6.84766C8.81842 6.84766 9.51509 7.54438 9.51509 8.39688C9.51509 10.1202 7.06758 10.3035 6.52674 11.9444C6.41674 12.2835 6.70091 12.6227 7.05841 12.6227H9.51509" stroke="#1A548E" stroke-width="1.5" stroke-linecap="round" stroke-linejoin="round"/>
<path d="M14.7034 12.6132V7.37908C14.7034 7.14075 14.5475 6.92986 14.3184 6.86569C14.0892 6.80153 13.8417 6.89319 13.7134 7.09486C13.0534 8.15819 12.3384 9.36821 11.715 10.4315C11.6142 10.6057 11.6142 10.8349 11.715 11.009C11.8159 11.1832 12.0084 11.2932 12.2192 11.2932H15.5834" stroke="#1A548E" stroke-width="1.5" stroke-linecap="round" stroke-linejoin="round"/>
</svg>
