<svg width="40" height="40" viewBox="0 0 40 40" fill="none" xmlns="http://www.w3.org/2000/svg">
<rect width="40" height="40" rx="20" fill="white"/>
<path d="M36.4298 39.9992H3.56835C3.48109 39.9995 3.39495 39.9798 3.31664 39.9417C3.23834 39.9035 3.16997 39.848 3.11689 39.7795C3.06381 39.711 3.02745 39.6313 3.01063 39.5465C2.99381 39.4618 2.99699 39.3744 3.01992 39.2911C3.16826 38.7666 3.34382 38.2499 3.54593 37.7433C6.02798 31.5791 12.4557 27.1836 19.9995 27.1836C27.5433 27.1836 33.9726 31.5791 36.453 37.7433C36.6554 38.2511 36.8307 38.7691 36.9783 39.2951C37.0005 39.3781 37.0031 39.4651 36.9859 39.5493C36.9687 39.6335 36.9323 39.7127 36.8793 39.7807C36.8263 39.8488 36.7582 39.9039 36.6803 39.9417C36.6023 39.9796 36.5166 39.9993 36.4298 39.9992Z" fill="#B0B9C9"/>
<path d="M29.2863 16.3486C29.284 17.578 29.0361 18.7949 28.5569 19.9292C28.0776 21.0635 27.3765 22.0929 26.4937 22.9582C25.6109 23.8235 24.564 24.5077 23.4131 24.9713C22.2622 25.435 21.0299 25.669 19.7873 25.6599C14.6078 25.637 10.3891 21.4102 10.43 16.2797C10.4438 13.8084 11.4479 11.4434 13.2222 9.70365C14.9964 7.96394 17.3958 6.99163 19.8938 7.00005C25.0821 7.01352 29.2975 11.207 29.2863 16.3486Z" fill="#B0B9C9"/>
</svg>
