<svg width="37" height="31" viewBox="0 0 37 31" fill="none" xmlns="http://www.w3.org/2000/svg">
<path d="M34.3345 19.3712C33.6665 21.9683 32.3126 24.4282 30.275 26.4608C24.9933 31.7295 16.8585 32.4116 10.8359 28.5111L27.9564 21.8507C28.7325 21.5488 29.2965 20.8844 29.4674 20.0709C29.6383 19.2575 29.3888 18.4225 28.8013 17.8345L24.2819 13.3263L32.4384 7.24609C33.3069 8.6201 33.9396 10.1019 34.3326 11.6328C34.1636 11.6661 33.9474 11.768 33.7549 12.0444L31.0826 16.1096L31.061 16.1449C30.9627 16.3213 30.9116 16.4585 30.8979 16.5898C30.8802 16.7447 30.9018 17.0446 31.2496 17.2935L31.283 17.3151C31.7212 17.5855 32.1299 17.8815 32.4954 18.1932C32.8726 18.5166 33.2656 18.842 33.6645 19.1634C33.8079 19.3065 34.0005 19.381 34.2107 19.381C34.252 19.381 34.2933 19.379 34.3345 19.3712Z" fill="#F3A03E"/>
<path d="M9.40797 13.4275L14.0059 18.0121L6.19138 23.8414C5.50562 22.7731 4.96527 21.6402 4.57031 20.4681C4.67643 20.3524 4.78253 20.2348 4.88274 20.1153C5.06941 19.8918 5.25018 19.639 5.41916 19.3645C5.70605 18.9392 5.90647 18.5197 6.01651 18.1179C6.13833 17.675 6.14226 17.2379 6.0283 16.8164C5.94576 16.4773 5.81018 16.1637 5.62352 15.8815C5.48794 15.6776 5.33271 15.4816 5.16373 15.2993C5.25018 15.1778 5.33664 15.0484 5.41916 14.9132C5.70605 14.4879 5.90647 14.0684 6.01651 13.6666C6.13833 13.2256 6.14226 12.7865 6.0283 12.3671C5.94576 12.0279 5.81018 11.7124 5.62352 11.4321C5.45061 11.1694 5.24625 10.9225 5.01636 10.701C4.89256 10.5794 4.76288 10.4638 4.6273 10.354C5.37397 8.23126 6.59812 6.2359 8.29976 4.53847C13.6444 -0.792965 21.9128 -1.42608 27.9569 2.63326L10.2293 9.52884C9.47675 9.82285 8.92657 10.4677 8.76151 11.2557C8.59646 12.0456 8.83815 12.8571 9.40797 13.4275Z" fill="#F3A03E"/>
<path d="M22.3966 12.652L35.2017 3.10389C35.8674 2.60751 35.2894 1.56905 34.5151 1.87025L10.8325 11.0822C10.3526 11.2689 10.2229 11.8857 10.5871 12.249L15.9066 17.5554C16.2453 17.8932 16.205 18.452 15.8214 18.738L3.50882 27.9191C2.77566 28.4658 3.41227 29.6095 4.26508 29.2778L27.3493 20.2981C27.8779 20.0925 28.0207 19.4132 27.6196 19.013L22.3193 13.7258C22.0118 13.4191 22.0484 12.9117 22.3966 12.652Z" fill="#111A63"/>
<path d="M36.9376 14.6814C37.0266 15.0034 37.0238 15.3366 36.9294 15.6809C36.8345 16.025 36.6592 16.3861 36.4033 16.7638C36.2472 17.0191 36.0831 17.2495 35.9105 17.4552C35.7379 17.6606 35.557 17.8575 35.3678 18.0466C35.3119 18.1132 35.2229 18.1965 35.1006 18.2965C34.9779 18.3964 34.8501 18.4906 34.7165 18.5796C34.5828 18.6684 34.4547 18.7323 34.3323 18.7713C34.2097 18.81 34.1207 18.7962 34.0652 18.7296C33.6644 18.4073 33.2691 18.0799 32.8794 17.7467C32.4896 17.4135 32.0611 17.1025 31.5935 16.8137C31.5154 16.758 31.4793 16.7054 31.485 16.6555C31.4904 16.6055 31.5209 16.5306 31.5768 16.4306L34.2489 12.3657C34.3266 12.2546 34.4047 12.2018 34.4827 12.2074C34.5605 12.2129 34.6439 12.2434 34.7331 12.2991C34.967 12.4324 35.2008 12.5823 35.4346 12.7488C35.6684 12.9155 35.8855 13.0959 36.086 13.2904C36.2863 13.4845 36.4617 13.6956 36.612 13.9233C36.7623 14.1509 36.8708 14.4036 36.9376 14.6814Z" fill="#111A63"/>
<path d="M5.12761 16.2064C4.97729 15.9787 4.80196 15.7676 4.60162 15.5734C4.52525 15.4993 4.44419 15.4291 4.36298 15.3591C4.38378 15.3349 4.40559 15.3117 4.42616 15.2872C4.5987 15.0816 4.76286 14.8512 4.91888 14.5959C5.17483 14.2181 5.35016 13.857 5.44499 13.5129C5.53946 13.1686 5.54224 12.8354 5.45324 12.5135C5.38646 12.2356 5.27791 11.983 5.12761 11.7554C4.97729 11.5277 4.80196 11.3166 4.60162 11.1224C4.40115 10.9279 4.18406 10.7475 3.95021 10.5809C3.71648 10.4144 3.48263 10.2644 3.24877 10.1312C3.15953 10.0754 3.07611 10.0449 2.99829 10.0395C2.92033 10.0338 2.84226 10.0866 2.76456 10.1978L0.0923776 14.2627C0.0365263 14.3626 0.00605225 14.4376 0.000583453 14.4876C-0.0051252 14.5375 0.0310574 14.59 0.109132 14.6458C0.576714 14.9345 1.0052 15.2455 1.39508 15.5787C1.55632 15.7166 1.72263 15.8496 1.88582 15.9855L0.0923776 18.7137C0.0365263 18.8136 0.00605225 18.8886 0.000583453 18.9386C-0.0051252 18.9885 0.0310574 19.041 0.109132 19.0968C0.576714 19.3855 1.0052 19.6965 1.39508 20.0297C1.78471 20.3629 2.18004 20.6903 2.58085 21.0126C2.63634 21.0792 2.72534 21.093 2.84797 21.0543C2.97036 21.0153 3.09845 20.9515 3.23214 20.8627C3.36569 20.7737 3.49355 20.6794 3.61618 20.5795C3.73858 20.4796 3.82757 20.3962 3.88343 20.3296C4.0726 20.1406 4.25351 19.9436 4.42616 19.7382C4.5987 19.5326 4.76286 19.3022 4.91888 19.0469C5.17483 18.6691 5.35016 18.308 5.44499 17.9639C5.53946 17.6196 5.54224 17.2864 5.45324 16.9645C5.38646 16.6866 5.27791 16.434 5.12761 16.2064Z" fill="#111A63"/>
</svg>
