<svg width="18" height="18" viewBox="0 0 18 18" fill="none" xmlns="http://www.w3.org/2000/svg">
<path d="M6.75 1.5H11.25C15 1.5 16.5 3 16.5 6.75V11.25C16.5 15 15 16.5 11.25 16.5H6.75C3 16.5 1.5 15 1.5 11.25V6.75C1.5 3 3 1.5 6.75 1.5Z" stroke="#888EA8" stroke-linecap="round" stroke-linejoin="round"/>
<path d="M11.454 1.63672V7.02061C11.454 7.322 11.0893 7.47269 10.8649 7.27405L9.23793 5.80823C9.10468 5.68494 8.89425 5.68494 8.76101 5.80823L7.13403 7.27405C6.90962 7.47269 6.54492 7.322 6.54492 7.02061V1.63672H11.454Z" stroke="#888EA8" stroke-miterlimit="10" stroke-linecap="round" stroke-linejoin="round"/>
<path d="M9.61328 11.4531H13.0906" stroke="#888EA8" stroke-miterlimit="10" stroke-linecap="round" stroke-linejoin="round"/>
<path d="M6.13672 13.9102H13.0913" stroke="#888EA8" stroke-miterlimit="10" stroke-linecap="round" stroke-linejoin="round"/>
</svg>
