<svg width="18" height="18" viewBox="0 0 18 18" fill="none" xmlns="http://www.w3.org/2000/svg">
<path d="M6.75 16.5H11.25C15 16.5 16.5 15 16.5 11.25V6.75C16.5 3 15 1.5 11.25 1.5H6.75C3 1.5 1.5 3 1.5 6.75V11.25C1.5 15 3 16.5 6.75 16.5Z" stroke="#888EA8" stroke-linecap="round" stroke-linejoin="round"/>
<path d="M7.43334 4.08984L5.65625 5.87184" stroke="#888EA8" stroke-miterlimit="10" stroke-linecap="round" stroke-linejoin="round"/>
<path d="M10.5664 4.08984L12.3435 5.87184" stroke="#888EA8" stroke-miterlimit="10" stroke-linecap="round" stroke-linejoin="round"/>
<path d="M4.0918 6.96229C4.0918 6.05411 4.5778 5.98047 5.18161 5.98047H12.8202C13.424 5.98047 13.91 6.05411 13.91 6.96229C13.91 8.01774 13.424 7.94411 12.8202 7.94411H5.18161C4.5778 7.94411 4.0918 8.01774 4.0918 6.96229Z" stroke="#888EA8"/>
<path d="M4.82812 8.01953L5.52031 12.261C5.6774 13.2133 6.0554 13.9104 7.4594 13.9104H10.4196C11.9463 13.9104 12.1721 13.2428 12.3489 12.3199L13.1736 8.01953" stroke="#888EA8" stroke-linecap="round"/>
</svg>
