<svg width="14" height="14" viewBox="0 0 14 14" fill="none" xmlns="http://www.w3.org/2000/svg">
<path d="M7.00006 8.16797H6.41673C5.77506 8.16797 5.25006 7.64297 5.25006 7.0013V1.16797H10.5001C11.3751 1.16797 12.1392 1.65213 12.5359 2.3638" stroke="white" stroke-linecap="round" stroke-linejoin="round"/>
<path d="M12.8333 9.91797C12.8333 10.8863 12.0516 11.668 11.0833 11.668H10.4999C10.4999 11.0263 9.97492 10.5013 9.33325 10.5013C8.69159 10.5013 8.16659 11.0263 8.16659 11.668H5.83325C5.83325 11.0263 5.30825 10.5013 4.66659 10.5013C4.02492 10.5013 3.49992 11.0263 3.49992 11.668H2.91659C1.94825 11.668 1.16659 10.8863 1.16659 9.91797V8.16797H2.91659C3.23742 8.16797 3.49992 7.90547 3.49992 7.58464V5.83464C3.49992 5.5138 3.23742 5.2513 2.91659 5.2513H2.1641L3.16158 3.50714C3.37158 3.14547 3.75657 2.91797 4.17657 2.91797H5.24992V7.0013C5.24992 7.64297 5.77492 8.16797 6.41659 8.16797H6.99992" stroke="white" stroke-linecap="round" stroke-linejoin="round"/>
<path d="M9.33333 12.8333C8.689 12.8333 8.16667 12.311 8.16667 11.6667C8.16667 11.0223 8.689 10.5 9.33333 10.5C9.97767 10.5 10.5 11.0223 10.5 11.6667C10.5 12.311 9.97767 12.8333 9.33333 12.8333Z" stroke="white" stroke-linecap="round" stroke-linejoin="round"/>
<path d="M4.66659 12.8333C4.02225 12.8333 3.49992 12.311 3.49992 11.6667C3.49992 11.0223 4.02225 10.5 4.66659 10.5C5.31092 10.5 5.83325 11.0223 5.83325 11.6667C5.83325 12.311 5.31092 12.8333 4.66659 12.8333Z" stroke="white" stroke-linecap="round" stroke-linejoin="round"/>
<path d="M1.16667 7V8.16667H2.91667C3.2375 8.16667 3.5 7.90417 3.5 7.58333V5.83333C3.5 5.5125 3.2375 5.25 2.91667 5.25H2.16418L1.16667 7Z" stroke="white" stroke-linecap="round" stroke-linejoin="round"/>
<path d="M12.8333 4.66797H9.33325" stroke="white" stroke-linecap="round" stroke-linejoin="round"/>
<path d="M12.8333 6.41797H10.4999" stroke="white" stroke-linecap="round" stroke-linejoin="round"/>
<path d="M12.8333 8.16797H11.6666" stroke="white" stroke-linecap="round" stroke-linejoin="round"/>
</svg>
