<svg width="115" height="45" viewBox="0 0 115 45" fill="none" xmlns="http://www.w3.org/2000/svg">
<path d="M22.181 25.1154V19.1751H17.3585V24.8067C17.3585 24.9611 17.3061 25.0896 17.2014 25.1924C17.0965 25.2953 16.9741 25.3467 16.8344 25.3467H13.1914V24.6524C13.1914 23.5555 12.9425 22.5438 12.4445 21.618C11.9466 20.6923 11.2561 19.9594 10.374 19.4194C9.49151 18.8794 8.5001 18.6094 7.39924 18.6094C6.28086 18.6094 5.25424 18.8794 4.31974 19.4194C3.38489 19.9594 2.63786 20.6923 2.07892 21.618C1.51948 22.5438 1.24023 23.5555 1.24023 24.6524C1.24023 25.7325 1.51542 26.7056 2.06577 27.5711C2.61615 28.437 3.36318 29.1141 4.30662 29.6027C5.25019 30.0913 6.28086 30.3355 7.39924 30.3355H8.36908C8.36908 30.6782 8.25523 30.9913 8.02826 31.2741C7.80105 31.557 7.32062 31.8998 6.58682 32.3028C5.85294 32.7053 5.48609 32.9071 5.48609 32.9071C5.48609 32.9071 4.74315 33.2156 3.25827 33.8328L4.75221 37.9987C7.05855 37.0383 8.79699 36.1472 9.96778 35.3243C11.1382 34.5014 11.9683 33.554 12.4576 32.4828C12.7333 31.8786 12.9285 31.1602 13.0488 30.3355H16.8868C17.8651 30.3355 18.7563 30.1 19.5601 29.6283C20.3636 29.1571 21.0017 28.5226 21.4734 27.7254C21.9451 26.9282 22.181 26.0584 22.181 25.1154ZM8.36908 25.6554H7.39924C7.08479 25.6554 6.82681 25.5653 6.6261 25.3854C6.42503 25.2053 6.32478 24.9611 6.32478 24.6524C6.32478 24.327 6.42503 24.0698 6.6261 23.8809C6.82681 23.6925 7.08479 23.5982 7.39924 23.5982C7.69616 23.5982 7.93207 23.6925 8.1069 23.8809C8.28137 24.0698 8.36908 24.327 8.36908 24.6524V25.6554Z" fill="#111A63"/>
<path d="M22.1814 17.1186V13.1328H18.1191H14.0566V17.1186H18.1191H22.1814Z" fill="#111A63"/>
<path d="M35.1393 27.7279C35.611 26.9307 35.8469 26.0608 35.8469 25.1178V19.4861C35.8469 18.4233 35.615 17.459 35.1524 16.5931C34.6891 15.7276 34.0515 15.0418 33.2391 14.5359C32.4266 14.0305 31.5134 13.7773 30.5003 13.7773C29.4867 13.7773 28.5387 14.0305 27.6566 14.5359C26.7741 15.0418 26.071 15.7316 25.5468 16.606C25.0226 17.4803 24.7605 18.4406 24.7605 19.4861C24.7605 20.4633 25.0181 21.3504 25.5337 22.1477C26.0488 22.9448 26.7434 23.5748 27.6173 24.0377C28.4907 24.5005 29.452 24.732 30.5003 24.732H31.0244V24.8092C31.0244 25.1692 30.8496 25.3492 30.5003 25.3492H24.0005C23.9999 25.3492 23.9995 25.3494 23.999 25.3494H23.0234V25.7112C23.0234 26.7475 22.7641 27.7046 22.2455 28.581C21.8875 29.1856 21.4438 29.7049 20.9121 30.1391C20.9311 30.2709 21.0168 30.3375 21.1703 30.3375H23.7384V30.338H30.5527C31.531 30.338 32.4221 30.1025 33.226 29.6308C34.0295 29.1595 34.6674 28.525 35.1393 27.7279ZM31.339 20.3604H30.3168C30.0023 20.3604 29.7489 20.262 29.5567 20.0647C29.3643 19.8678 29.2684 19.6147 29.2684 19.3061C29.2684 19.0148 29.3643 18.7749 29.5567 18.5861C29.7489 18.3977 30.0023 18.3032 30.3168 18.3032C30.5961 18.3032 30.8365 18.402 31.0375 18.5989C31.2383 18.7962 31.339 19.032 31.339 19.3061V20.3604Z" fill="#111A63"/>
<path d="M34.5623 11.7203V7.73438H30.5H26.4375V11.7203H30.5H34.5623Z" fill="#111A63"/>
<path d="M45.9372 19.1758V24.8074C45.9372 24.9617 45.8847 25.0903 45.78 25.1931C45.6751 25.296 45.5526 25.3474 45.413 25.3474H42.8186C42.6436 25.3474 42.5081 25.296 42.4122 25.1931C42.3161 25.0903 42.2681 24.9532 42.2681 24.7816V19.8957H37.4457V28.8961C37.4457 29.8565 37.3888 30.5503 37.2753 30.9791C37.1615 31.4074 36.8602 31.8445 36.3711 32.2906C35.8818 32.7361 35.0259 33.3192 33.8027 34.0391L35.6111 37.9993C37.4457 37.1077 38.8348 36.2547 39.7783 35.4406C40.7218 34.6262 41.3725 33.7217 41.7309 32.7276C41.9745 32.0508 42.1333 31.2395 42.2112 30.3006C42.4053 30.3219 42.6057 30.3362 42.8186 30.3362H45.4654C46.4438 30.3362 47.3349 30.1007 48.1387 29.629C48.9422 29.1577 49.5802 28.5232 50.0519 27.7261C50.5237 26.9289 50.7596 26.059 50.7596 25.116V19.1758H45.9372Z" fill="#111A63"/>
<path d="M47.9023 32.3945H43.8398V36.3805H47.9023V32.3945Z" fill="#111A63"/>
<path d="M111.036 28.1166C110.043 31.8866 108.03 35.4574 105.001 38.4079C97.1501 46.0561 85.0579 47.0462 76.1055 41.3841L101.555 31.7158C102.708 31.2777 103.547 30.3131 103.801 29.1323C104.055 27.9515 103.684 26.7394 102.811 25.8858L96.0928 19.3417L108.217 10.5156C109.508 12.5102 110.449 14.6612 111.033 16.8834C110.782 16.9317 110.46 17.0797 110.174 17.4809L106.202 23.382L106.17 23.4332C106.024 23.6893 105.948 23.8885 105.927 24.0791C105.901 24.3039 105.933 24.7392 106.45 25.1005L106.5 25.1319C107.151 25.5245 107.759 25.9541 108.302 26.4065C108.863 26.876 109.447 27.3483 110.04 27.815C110.253 28.0227 110.539 28.1308 110.852 28.1308C110.913 28.1308 110.974 28.1279 111.036 28.1166Z" fill="#F3A03E"/>
<path d="M73.9802 19.4915L80.8149 26.1466L69.1988 34.6085C68.1794 33.0578 67.3762 31.4132 66.7891 29.7117C66.9468 29.5439 67.1045 29.3731 67.2535 29.1996C67.531 28.8752 67.7997 28.5082 68.0509 28.1098C68.4773 27.4924 68.7752 26.8835 68.9388 26.3002C69.1199 25.6572 69.1257 25.0227 68.9563 24.4109C68.8337 23.9187 68.6321 23.4635 68.3546 23.0538C68.1531 22.7578 67.9224 22.4733 67.6712 22.2087C67.7997 22.0323 67.9282 21.8445 68.0509 21.6482C68.4773 21.0308 68.7752 20.4219 68.9388 19.8386C69.1199 19.1984 69.1257 18.561 68.9563 17.9522C68.8337 17.4599 68.6321 17.0018 68.3546 16.595C68.0976 16.2137 67.7938 15.8552 67.4521 15.5337C67.2681 15.3573 67.0753 15.1894 66.8738 15.0301C67.9837 11.9486 69.8034 9.05211 72.3328 6.5881C80.2775 -1.15108 92.5684 -2.07012 101.553 3.82247L75.2011 13.8322C74.0824 14.259 73.2646 15.1951 73.0192 16.3389C72.7739 17.4855 73.1331 18.6635 73.9802 19.4915Z" fill="#F3A03E"/>
<path d="M93.2904 18.3658L112.325 4.50565C113.315 3.7851 112.455 2.27765 111.304 2.71487L76.1005 16.087C75.3871 16.358 75.1943 17.2534 75.7357 17.7808L83.6431 25.4837C84.1465 25.9741 84.0867 26.7852 83.5165 27.2003L65.214 40.5277C64.1241 41.3213 65.0704 42.9815 66.3381 42.5L100.653 29.465C101.438 29.1665 101.651 28.1804 101.054 27.5996L93.1754 19.9245C92.7184 19.4793 92.7727 18.7428 93.2904 18.3658Z" fill="#111A63"/>
<path d="M114.903 21.3106C115.035 21.7779 115.031 22.2616 114.891 22.7615C114.75 23.261 114.489 23.7851 114.109 24.3335C113.877 24.7041 113.633 25.0385 113.376 25.337C113.12 25.6352 112.851 25.9211 112.57 26.1955C112.487 26.2922 112.354 26.4132 112.172 26.5583C111.99 26.7033 111.8 26.8401 111.601 26.9693C111.403 27.0982 111.212 27.1909 111.03 27.2475C110.848 27.3037 110.716 27.2837 110.633 27.187C110.037 26.7191 109.45 26.2439 108.871 25.7602C108.291 25.2765 107.654 24.825 106.959 24.4059C106.843 24.325 106.789 24.2487 106.798 24.1763C106.806 24.1037 106.851 23.9948 106.934 23.8498L110.906 17.9491C111.022 17.7877 111.138 17.7111 111.254 17.7194C111.369 17.7273 111.493 17.7716 111.626 17.8524C111.974 18.0458 112.321 18.2635 112.669 18.5053C113.016 18.7472 113.339 19.009 113.637 19.2913C113.935 19.5732 114.196 19.8796 114.419 20.2102C114.642 20.5405 114.804 20.9073 114.903 21.3106Z" fill="#111A63"/>
<path d="M67.6221 23.5229C67.3987 23.1923 67.138 22.8859 66.8402 22.604C66.7267 22.4965 66.6062 22.3946 66.4855 22.293C66.5164 22.2578 66.5489 22.2241 66.5794 22.1886C66.8359 21.8901 67.0799 21.5557 67.3118 21.185C67.6923 20.6366 67.9529 20.1125 68.0939 19.613C68.2343 19.1132 68.2385 18.6295 68.1062 18.1622C68.0069 17.7589 67.8455 17.3921 67.6221 17.0617C67.3987 16.7312 67.138 16.4247 66.8402 16.1429C66.5423 15.8605 66.2195 15.5988 65.8719 15.3568C65.5245 15.1151 65.1769 14.8974 64.8293 14.704C64.6966 14.6231 64.5726 14.5788 64.4569 14.5709C64.341 14.5627 64.225 14.6393 64.1095 14.8007L60.1373 20.7014C60.0543 20.8464 60.009 20.9552 60.0009 21.0278C59.9924 21.1003 60.0462 21.1766 60.1622 21.2575C60.8573 21.6766 61.4942 22.1281 62.0738 22.6118C62.3135 22.812 62.5607 23.0049 62.8032 23.2023L60.1373 27.1625C60.0543 27.3075 60.009 27.4164 60.0009 27.489C59.9924 27.5614 60.0462 27.6377 60.1622 27.7186C60.8573 28.1377 61.4942 28.5892 62.0738 29.0729C62.6529 29.5566 63.2406 30.0318 63.8364 30.4997C63.9189 30.5964 64.0512 30.6164 64.2335 30.5602C64.4154 30.5036 64.6058 30.4109 64.8045 30.282C65.0031 30.1528 65.1931 30.016 65.3754 29.871C65.5573 29.7259 65.6896 29.6049 65.7727 29.5082C66.0539 29.2338 66.3228 28.9479 66.5794 28.6497C66.8359 28.3512 67.0799 28.0168 67.3118 27.6461C67.6923 27.0978 67.9529 26.5737 68.0939 26.0742C68.2343 25.5743 68.2385 25.0906 68.1062 24.6233C68.0069 24.22 67.8455 23.8532 67.6221 23.5229Z" fill="#111A63"/>
</svg>
