<svg width="32" height="32" viewBox="0 0 32 32" fill="none" xmlns="http://www.w3.org/2000/svg">
<path d="M25.3334 12.0013C25.3334 13.9346 24.7601 15.708 23.7734 17.188C22.3334 19.3213 20.0534 20.828 17.4001 21.2146C16.9467 21.2946 16.4801 21.3346 16.0001 21.3346C15.5201 21.3346 15.0534 21.2946 14.6001 21.2146C11.9467 20.828 9.66675 19.3213 8.22675 17.188C7.24008 15.708 6.66675 13.9346 6.66675 12.0013C6.66675 6.8413 10.8401 2.66797 16.0001 2.66797C21.1601 2.66797 25.3334 6.8413 25.3334 12.0013Z" stroke="#2196F3" stroke-width="1.5" stroke-linecap="round" stroke-linejoin="round"/>
<path d="M28.3333 24.6259L26.1333 25.1459C25.6399 25.2659 25.2533 25.6392 25.1466 26.1326L24.6799 28.0926C24.4266 29.1592 23.0666 29.4792 22.3599 28.6392L15.9999 21.3326L9.63994 28.6525C8.93328 29.4925 7.57328 29.1725 7.31994 28.1059L6.85328 26.1459C6.73328 25.6525 6.34661 25.2659 5.86661 25.1592L3.66661 24.6392C2.65328 24.3992 2.29328 23.1325 3.02661 22.3992L8.22661 17.1992C9.66661 19.3326 11.9466 20.8392 14.5999 21.2259C15.0533 21.3059 15.5199 21.3459 15.9999 21.3459C16.4799 21.3459 16.9466 21.3059 17.3999 21.2259C20.0533 20.8392 22.3333 19.3326 23.7733 17.1992L28.9733 22.3992C29.7066 23.1192 29.3466 24.3859 28.3333 24.6259Z" stroke="#2196F3" stroke-width="1.5" stroke-linecap="round" stroke-linejoin="round"/>
<path d="M16.7734 7.97203L17.56 9.54535C17.6667 9.75869 17.9467 9.97203 18.2 10.012L19.6267 10.252C20.5334 10.3987 20.7467 11.0654 20.0934 11.7187L18.9867 12.8253C18.8 13.012 18.6934 13.372 18.76 13.6387L19.08 15.012C19.3334 16.092 18.76 16.5187 17.8 15.9453L16.4667 15.1587C16.2267 15.012 15.8267 15.012 15.5867 15.1587L14.2534 15.9453C13.2934 16.5053 12.72 16.092 12.9734 15.012L13.2934 13.6387C13.3467 13.3854 13.2534 13.012 13.0667 12.8253L11.96 11.7187C11.3067 11.0654 11.52 10.412 12.4267 10.252L13.8534 10.012C14.0934 9.97203 14.3734 9.75869 14.48 9.54535L15.2667 7.97203C15.6534 7.1187 16.3467 7.1187 16.7734 7.97203Z" stroke="#2196F3" stroke-width="1.5" stroke-linecap="round" stroke-linejoin="round"/>
</svg>
