<svg xmlns="http://www.w3.org/2000/svg" viewBox="0 0 200 200" width="200" height="200">
  <!-- Shield Background -->
  <path d="M100 20L20 50V90C20 130 60 160 100 180C140 160 180 130 180 90V50L100 20Z" fill="#0C281F" stroke="#C7A761" stroke-width="5"/>
  
  <!-- Gold Padlock -->
  <path d="M100 80C80 80 60 90 60 110V130H140V110C140 90 120 80 100 80Z" fill="#C7A761"/>
  <path d="M100 80C80 80 60 90 60 110V130H140V110C140 90 120 80 100 80Z" fill="none" stroke="#0C281F" stroke-width="5"/>
  <rect x="90" y="60" width="20" height="20" fill="#C7A761" stroke="#0C281F" stroke-width="2"/>
  
  <!-- Keyhole -->
  <circle cx="100" cy="100" r="10" fill="#0C281F"/>
  <rect x="95" y="90" width="10" height="20" fill="#0C281F"/>
  
  <!-- Sparkles -->
  <circle cx="50" cy="50" r="3" fill="#C7A761"/>
  <circle cx="150" cy="50" r="3" fill="#C7A761"/>
  <circle cx="100" cy="20" r="3" fill="#C7A761"/>
  <circle cx="30" cy="100" r="3" fill="#C7A761"/>
  <circle cx="170" cy="100" r="3" fill="#C7A761"/>
</svg>