<svg width="18" height="18" viewBox="0 0 18 18" fill="none" xmlns="http://www.w3.org/2000/svg">
<path d="M9 10.25C9.69036 10.25 10.25 9.69036 10.25 9C10.25 8.30964 9.69036 7.75 9 7.75C8.30964 7.75 7.75 8.30964 7.75 9C7.75 9.69036 8.30964 10.25 9 10.25Z" stroke="#888EA8" stroke-miterlimit="10" stroke-linecap="round" stroke-linejoin="round"/>
<path d="M4.83398 9.36595V8.63262C4.83398 8.19928 5.18815 7.84095 5.62565 7.84095C6.37982 7.84095 6.68815 7.30762 6.30898 6.65345C6.09232 6.27845 6.22148 5.79095 6.60065 5.57428L7.32148 5.16178C7.65065 4.96595 8.07565 5.08262 8.27148 5.41178L8.31732 5.49095C8.69232 6.14512 9.30898 6.14512 9.68815 5.49095L9.73398 5.41178C9.92982 5.08262 10.3548 4.96595 10.684 5.16178L11.4048 5.57428C11.784 5.79095 11.9132 6.27845 11.6965 6.65345C11.3173 7.30762 11.6257 7.84095 12.3798 7.84095C12.8132 7.84095 13.1715 8.19512 13.1715 8.63262V9.36595C13.1715 9.79928 12.8173 10.1576 12.3798 10.1576C11.6257 10.1576 11.3173 10.6909 11.6965 11.3451C11.9132 11.7243 11.784 12.2076 11.4048 12.4243L10.684 12.8368C10.3548 13.0326 9.92982 12.9159 9.73398 12.5868L9.68815 12.5076C9.31315 11.8534 8.69648 11.8534 8.31732 12.5076L8.27148 12.5868C8.07565 12.9159 7.65065 13.0326 7.32148 12.8368L6.60065 12.4243C6.22148 12.2076 6.09232 11.7201 6.30898 11.3451C6.68815 10.6909 6.37982 10.1576 5.62565 10.1576C5.18815 10.1576 4.83398 9.79928 4.83398 9.36595Z" stroke="#888EA8" stroke-miterlimit="10" stroke-linecap="round" stroke-linejoin="round"/>
<path d="M6.75 16.5H11.25C15 16.5 16.5 15 16.5 11.25V6.75C16.5 3 15 1.5 11.25 1.5H6.75C3 1.5 1.5 3 1.5 6.75V11.25C1.5 15 3 16.5 6.75 16.5Z" stroke="#888EA8" stroke-linecap="round" stroke-linejoin="round"/>
</svg>
