<svg width="18" height="18" viewBox="0 0 18 18" fill="none" xmlns="http://www.w3.org/2000/svg">
<path d="M6.75 16.5H11.25C15 16.5 16.5 15 16.5 11.25V6.75C16.5 3 15 1.5 11.25 1.5H6.75C3 1.5 1.5 3 1.5 6.75V11.25C1.5 15 3 16.5 6.75 16.5Z" stroke="#888EA8" stroke-linecap="round" stroke-linejoin="round"/>
<path d="M4.91016 7.49997C4.91016 6.73906 5.53198 6.11719 6.29289 6.11719C7.05379 6.11719 7.67561 6.73906 7.67561 7.49997C7.67561 9.03815 5.49106 9.20178 5.00833 10.6663C4.91015 10.9691 5.16379 11.2718 5.48288 11.2718H7.67561" stroke="#888EA8" stroke-linecap="round" stroke-linejoin="round"/>
<path d="M12.307 11.2614V6.58957C12.307 6.37685 12.1679 6.18862 11.9634 6.13134C11.7589 6.07407 11.538 6.15589 11.4234 6.33589C10.8343 7.28498 10.1961 8.36499 9.63977 9.31408C9.54977 9.46954 9.54977 9.67409 9.63977 9.82954C9.72977 9.985 9.90159 10.0831 10.0898 10.0831H13.0925" stroke="#888EA8" stroke-linecap="round" stroke-linejoin="round"/>
</svg>
